SplineFontDB: 3.0
FontName: CourerMegaSS1000wt
FullName: Courer Mega SS 1000wt
FamilyName: Courer Mega SS 1000wt
Weight: Book
Copyright: Copyright (c) 2013 by Richard Alexander Hall. Released under the CC0 1.0 Universal (CC0 1.0) Public Domain \nDedication, the text of which is available at: \nhttp://creativecommons.org/publicdomain/zero/1.0/
Version: 0.006 2013
ItalicAngle: 0
UnderlinePosition: -120
UnderlineWidth: 130
Ascent: 1638
Descent: 410
sfntRevision: 0x00000189
LayerCount: 2
Layer: 0 1 "Back"  1
Layer: 1 1 "Fore"  0
XUID: [1021 326 698722049 15875976]
FSType: 0
OS2Version: 3
OS2_WeightWidthSlopeOnly: 0
OS2_UseTypoMetrics: 1
CreationTime: 1367566382
ModificationTime: 1367704760
PfmFamily: 17
TTFWeight: 400
TTFWidth: 5
LineGap: 0
VLineGap: 0
Panose: 2 6 5 9 0 0 0 2 0 4
OS2TypoAscent: 1421
OS2TypoAOffset: 0
OS2TypoDescent: -643
OS2TypoDOffset: 0
OS2TypoLinegap: 0
OS2WinAscent: 1797
OS2WinAOffset: 0
OS2WinDescent: 839
OS2WinDOffset: 0
HheadAscent: 1421
HheadAOffset: 0
HheadDescent: -643
HheadDOffset: 0
OS2SubXSize: 1434
OS2SubYSize: 1331
OS2SubXOff: 0
OS2SubYOff: 293
OS2SupXSize: 1434
OS2SupYSize: 1331
OS2SupXOff: 0
OS2SupYOff: 928
OS2StrikeYSize: 102
OS2StrikeYPos: 512
OS2FamilyClass: 1285
OS2Vendor: 'RAH7'
OS2CodePages: 00000093.00000000
OS2UnicodeRanges: a00000af.500068fb.00000000.00000000
DEI: 91125
TtTable: prep
PUSHW_1
 0
CALL
SVTCA[y-axis]
PUSHW_3
 1
 4
 7
CALL
PUSHW_1
 0
DUP
RCVT
RDTG
ROUND[Black]
RTG
WCVTP
EndTTInstrs
TtTable: fpgm
PUSHW_1
 0
FDEF
MPPEM
PUSHW_1
 9
LT
IF
PUSHB_2
 1
 1
INSTCTRL
EIF
PUSHW_1
 511
SCANCTRL
PUSHW_1
 68
SCVTCI
PUSHW_2
 9
 3
SDS
SDB
ENDF
PUSHW_1
 1
FDEF
DUP
DUP
RCVT
ROUND[Black]
WCVTP
PUSHB_1
 1
ADD
ENDF
PUSHW_1
 2
FDEF
PUSHW_1
 1
LOOPCALL
POP
ENDF
PUSHW_1
 3
FDEF
DUP
GC[cur]
PUSHB_1
 3
CINDEX
GC[cur]
GT
IF
SWAP
EIF
DUP
ROLL
DUP
ROLL
MD[grid]
ABS
ROLL
DUP
GC[cur]
DUP
ROUND[Grey]
SUB
ABS
PUSHB_1
 4
CINDEX
GC[cur]
DUP
ROUND[Grey]
SUB
ABS
GT
IF
SWAP
NEG
ROLL
EIF
MDAP[rnd]
DUP
PUSHB_1
 0
GTEQ
IF
ROUND[Black]
DUP
PUSHB_1
 0
EQ
IF

StartChar: exclam
Encoding: 33 33 4
Width: 1228
Flags: W
LayerCount: 2
Fore
SplineSet
474.156 -61.0505 m 1
 414 -6.05116 414 -6.05116 414 71.5 c 0
 414 149.082 414 149.082 472.93 202.886 c 0
 528.912 254 528.912 254 612.5 254 c 0
 696.118 254 696.118 254 752.608 202.352 c 0
 812 148.051 812 148.051 812 71 c 0
 812 16.5999 812 16.5999 785.384 -23.1104 c 0
 774.143 -39.8822 774.143 -39.8822 758.97 -52.8077 c 0
 691.118 -112 691.118 -112 612 -112 c 0
 533.068 -112 533.068 -112 474.156 -61.0505 c 1
515.526 326 m 1
 471.3 1244 l 1
 755.803 1244 l 1
 710.381 326 l 1
 515.526 326 l 1
EndSplineSet
EndChar

StartChar: quotedbl
Encoding: 34 34 5
Width: 1228
Flags: W
LayerCount: 2
Fore
SplineSet
682.769 520 m 1
 656.124 1228 l 1
 964.876 1228 l 1
 938.231 520 l 1
 682.769 520 l 1
288.043 592.447 m 2
 277.076 914.591 277.076 914.591 267.068 1149.81 c 2
 263.741 1228 l 1
 573.876 1228 l 1
 547.231 520 l 1
 290.511 520 l 1
 288.043 592.447 l 2
EndSplineSet
EndChar

StartChar: numbersign
Encoding: 35 35 6
Width: 1228
Flags: W
LayerCount: 2
Fore
SplineSet
733.061 505 m 1
 747.707 768 l 1
 532.939 768 l 1
 518.293 505 l 1
 733.061 505 l 1
761.263 1008 m 1
 787.263 1452 l 1
 988.699 1452 l 1
 961.699 1008 l 1
 1163 1008 l 1
 1163 768 l 1
 948.939 768 l 1
 934.293 505 l 1
 1163 505 l 1
 1163 266 l 1
 921.772 266 l 1
 894.771 -199 l 1
 693.519 -199 l 1
 720.519 266 l 1
 504.651 266 l 1
 498.854 147.775 498.854 147.775 483.89 -128.064 c 2
 480.041 -199 l 1
 279.199 -199 l 1
 302.199 266 l 1
 102 266 l 1
 102 505 l 1
 316.573 505 l 1
 333.13 768 l 1
 102 768 l 1
 102 1008 l 1
 345.263 1008 l 1
 371.263 1452 l 1
 572.699 1452 l 1
 545.699 1008 l 1
 761.263 1008 l 1
EndSplineSet
EndChar

StartChar: dollar
Encoding: 36 36 7
Width: 1228
Flags: W
LayerCount: 2
Fore
SplineSet
729 450.209 m 1
 729 167.447 l 1
 782.528 178.728 782.528 178.728 808.071 193.702 c 0
 851.081 218.916 851.081 218.916 868.981 245.929 c 0
 884 268.595 884 268.595 884 300 c 0
 884 337.234 884 337.234 875.139 356.065 c 0
 865.36 376.845 865.36 376.845 849.586 391.43 c 0
 831.262 408.371 831.262 408.371 808.279 419.514 c 0
 779.512 433.461 779.512 433.461 749.97 443.454 c 0
 739.509 446.992 739.509 446.992 729 450.209 c 1
526 720.427 m 1
 526 1007.26 l 1
 467.594 992.051 467.594 992.051 439.072 966.161 c 0
 394 926.241 394 926.241 394 861 c 0
 394 809.522 394 809.522 421.9 776.981 c 0
 449.8 744.439 449.8 744.439 522.691 721.485 c 0
 523.898 721.099 523.898 721.099 525.643 720.541 c 2
 526 720.427 l 1
149.552 392.944 m 2
 139.298 470.074 l 1
 351 470.074 l 1
 351 414.763 l 1
 447.761 237.234 l 1
 452.328 234.215 452.328 234.215 456.661 231.627 c 0
 485.804 214.222 485.804 214.222 526 202.245 c 1
 526 504.793 l 1
 478.869 515.682 478.869 515.682 460.774 522.565 c 0
 441.65 529.839 441.65 529.839 414.572 538.99 c 0
 379.085 550.984 379.085 550.984 337.744 574.281 c 0
 292.894 599.555 292.894 599.555 258.926 635.509 c 0
 190.571 710.272 190.571 710.272 183.127 827.511 c 2
 183 829.51 l 1
 183 831.512 l 2
 183 978.083 183 978.083 297.54 1067.04 c 0
 383.886 1134.09 383.886 1134.09 526 1156.37 c 1
 526 1370 l 1
 729 1370 l 1
 729 1153.08 l 1
 810.588 1134.78 810.588 1134.78 861.669 1110.15 c 1
 867.04 1153.5 l 1
 1070.34 1153.5 l 1
 1060.49 1076.66 l 2
 1059 1065.07 1059 1065.07 1059 1059.02 c 2
 1059 1039.75 l 2
 1059 902.621 1059 902.621 1078.47 752.497 c 2
 1087.38 683.856 l 1
 1012.52 676.007 l 2
 981.736 672.781 981.736 672.781 972.864 670.902 c 2
 898.028 655.06 l 1
 882.541 724.068 l 2
 846.268 885.679 846.268 885.679 756.374 949.37 c 0
 749.229 953.635 749.229 953.635 729 959.959 c 1
 729 649.917 l 1
 746.519 645.826 746.519 645.826 762.462 641.763 c 0
 803.405 630.89 803.405 630.89 846.135 615.312 c 1
 963.72 577.788 963.72 577.788 1029.86 504.221 c 0
 1096 430.654 1096 430.654 1096 328.802 c 0
 1096 258.334 1096 258.334 1063.52 198.143 c 0
 1031.03 137.952 1031.03 137.952 969.585 94.3645 c 0
 874.508 28.2913 874.508 28.2913 729 8.81781 c 1
 729 -295 l 1
 526 -295 l 1
 526 9.33523 l 1
 474.015 16.2323 474.015 16.2323 430.283 29.6051 c 2
 424.68 31.3183 l 1
 419.439 33.8148 l 2
 393.274 46.278 393.274 46.278 369.182 60.202 c 1
 368.86 56.9784 368.86 56.9784 368.573 54.5216 c 2
 361.394 -6.95041 l 1
 165.542 -6.95041 l 1
 169 91.3988 l 1
 169 119.645 l 2
 169 246.639 169 246.639 149.552 392.944 c 2
EndSplineSet
EndChar

StartChar: percent
Encoding: 37 37 8
Width: 1228
Flags: W
LayerCount: 2
Fore
SplineSet
1090.07 479.775 m 0
 1178 392.904 1178 392.904 1178 283.747 c 0
 1178 204.646 1178 204.646 1135.39 139.916 c 0
 1092.78 75.1858 1092.78 75.1858 1014.14 33.0231 c 0
 926.198 -21 926.198 -21 830.5 -21 c 0
 740.014 -21 740.014 -21 673.916 8.51908 c 0
 609.763 34.158 609.763 34.158 562.447 76.5015 c 1
 466 166.261 466 166.261 466 285.468 c 0
 466 399.427 466 399.427 558.851 489.348 c 0
 578.26 508.237 578.26 508.237 599.75 523.54 c 1
 178.459 355.982 l 1
 94.4356 528.295 l 1
 393.948 647.102 l 1
 389.004 647 389.004 647 384 647 c 0
 225.521 647 225.521 647 124.967 738.119 c 0
 25 828.708 25 828.708 25 946.222 c 0
 25 1063.25 25 1063.25 124.323 1155.51 c 0
 224.963 1249 224.963 1249 383 1249 c 0
 541.732 1249 541.732 1249 640.82 1152.98 c 0
 738 1059.95 738 1059.95 738 942.018 c 0
 738 830.601 738 830.601 652.125 743.385 c 1
 1050.11 901.95 l 1
 1135 730.254 l 1
 1101.18 716.742 1101.18 716.742 1067.36 703.233 c 2
 750.81 576.175 l 1
 784.394 582 784.394 582 821 582 c 0
 987.25 582 987.25 582 1090.07 479.775 c 0
721.026 352.275 m 0
 682 322.224 682 322.224 682 282.091 c 0
 682 241.151 682 241.151 721.87 211.68 c 0
 762.108 181 762.108 181 823.5 181 c 0
 884.507 181 884.507 181 922.285 210.306 c 0
 962 241.114 962 241.114 962 281.364 c 0
 962 321.487 962 321.487 922.486 351.902 c 0
 884.684 381 884.684 381 821.5 381 c 0
 758.329 381 758.329 381 721.026 352.275 c 0
242 947.636 m 0
 242 907.172 242 907.172 281.881 877.215 c 0
 320.776 848 320.776 848 382 848 c 0
 443.217 848 443.217 848 481.612 876.846 c 0
 521 906.439 521 906.439 521 948.364 c 0
 521 990.292 521 990.292 482.105 1019.52 c 0
 444.212 1048 444.212 1048 381.5 1048 c 0
 319.321 1048 319.321 1048 281.514 1018.9 c 0
 242 988.491 242 988.491 242 947.636 c 0
EndSplineSet
EndChar

StartChar: ampersand
Encoding: 38 38 9
Width: 1228
Flags: W
LayerCount: 2
Fore
SplineSet
493.209 482.537 m 1
 431.925 448.832 431.925 448.832 405.463 406.028 c 0
 379 363.223 379 363.223 379 301 c 0
 379 217.903 379 217.903 417.8 172.977 c 0
 463.461 119.93 463.461 119.93 533.317 119.001 c 1
 591.223 119.287 591.223 119.287 668.967 197.033 c 0
 673.699 201.765 673.699 201.765 678.821 207.043 c 1
 493.209 482.537 l 1
1032.72 429 m 1
 992.694 321.641 992.694 321.641 941.942 218.027 c 1
 1005.39 126 l 1
 1192 126 l 1
 1192 -75 l 1
 869.687 -75 l 1
 799.673 26.2071 l 1
 779.62 6.18032 779.62 6.18032 766.351 -2.89804 c 2
 709.202 -42 l 1
 706.894 -42 l 1
 622.708 -92 622.708 -92 527 -92 c 0
 409.367 -92 409.367 -92 349.356 -56.279 c 0
 282.845 -15.8977 282.845 -15.8977 239.031 35.22 c 0
 157.24 130.853 157.24 130.853 150.087 289.389 c 0
 146.702 355.404 146.702 355.404 161.732 413 c 1
 128.693 413 l 1
 220.313 533.414 l 2
 276.357 607.074 276.357 607.074 364.444 660.841 c 1
 329.158 710.828 329.158 710.828 305.961 760.445 c 0
 276 825.578 276 825.578 276 893.5 c 0
 276 961.536 276 961.536 301.952 1017.53 c 0
 327.605 1072.89 327.605 1072.89 372.364 1112.23 c 0
 464.524 1194 464.524 1194 606 1194 c 0
 738.824 1194 738.824 1194 909.073 1097.2 c 2
 947 1075.63 l 1
 947 838 l 1
 740 838 l 1
 740 950.32 l 1
 706.684 965.197 706.684 965.197 650.021 981.149 c 1
 631.018 985 631.018 985 598 985 c 0
 543.744 985 543.744 985 527.126 966.252 c 2
 525.915 964.886 l 1
 524.639 963.58 l 2
 503 941.436 503 941.436 503 906 c 0
 503 866.48 503 866.48 539.329 804.257 c 1
 802.074 419.828 l 1
 818.373 456.483 818.373 456.483 828.602 481.442 c 0
 851.066 536.254 851.066 536.254 858.665 571.715 c 2
 871.446 631.36 l 1
 1176 629.557 l 1
 1176 429 l 1
 1032.72 429 l 1
EndSplineSet
EndChar

StartChar: quotesingle
Encoding: 39 39 10
Width: 1228
Flags: W
LayerCount: 2
Fore
SplineSet
481.183 586.763 m 2
 460.165 887.045 460.165 887.045 444.141 1148.41 c 2
 439.262 1228 l 1
 790.395 1228 l 1
 740.967 517 l 1
 486.066 517 l 1
 481.183 586.763 l 2
EndSplineSet
EndChar

StartChar: parenleft
Encoding: 40 40 11
Width: 1228
Flags: W
LayerCount: 2
Fore
SplineSet
992.082 -148.459 m 2
 994 -152.295 994 -152.295 996.283 -156.21 c 0
 1001 -164.302 1001 -164.302 1006.08 -174.459 c 2
 1060.35 -283 l 1
 843.303 -283 l 1
 820.981 -250.173 l 2
 766.676 -170.316 766.676 -170.316 717.678 -66.5177 c 0
 669.354 35.8499 669.354 35.8499 631.984 145.881 c 0
 594.427 256.461 594.427 256.461 572.47 365.724 c 0
 550 477.538 550 477.538 550 572 c 0
 550 641.055 550 641.055 563.971 727.03 c 0
 577.565 810.681 577.565 810.681 601.518 900.773 c 0
 625.515 991.025 625.515 991.025 659.875 1081.6 c 0
 694.648 1173.26 694.648 1173.26 738.033 1253.69 c 0
 757.366 1289.3 757.366 1289.3 777.208 1324.4 c 0
 798.061 1361.3 798.061 1361.3 821.596 1396.6 c 2
 843.861 1430 l 1
 1064.53 1430 l 1
 1007.54 1320.4 l 2
 994.508 1295.34 994.508 1295.34 982.967 1273.26 c 0
 971.439 1251.2 971.439 1251.2 960.905 1231.14 c 0
 950.153 1210.66 950.153 1210.66 940.414 1192.72 c 0
 931.943 1177.11 931.943 1177.11 924.861 1162.07 c 0
 917.304 1146 917.304 1146 910.711 1130.94 c 0
 905.36 1118.71 905.36 1118.71 901.586 1106.63 c 2
 900.608 1103.5 l 1
 899.36 1100.47 l 2
 836.802 948.393 836.802 948.393 808.201 820.173 c 0
 780 693.745 780 693.745 780 572 c 0
 780 513.224 780 513.224 786.526 455.414 c 0
 793.09 397.28 793.09 397.28 805.756 339.581 c 0
 818.608 281.035 818.608 281.035 836.708 221.975 c 0
 854.971 162.386 854.971 162.386 877.559 103.271 c 0
 900.253 43.8788 900.253 43.8788 927.353 -16.131 c 0
 953.706 -74.4892 953.706 -74.4892 983.169 -133.628 c 0
 984.958 -136.49 984.958 -136.49 985.812 -137.913 c 0
 986.393 -138.881 986.393 -138.881 987.404 -140.397 c 2
 989.994 -144.283 l 1
 992.082 -148.459 l 2
EndSplineSet
EndChar

StartChar: parenright
Encoding: 41 41 12
Width: 1228
Flags: W
LayerCount: 2
Fore
SplineSet
261.882 -170.79 m 2
 272.583 -152.062 272.583 -152.062 278.663 -139.968 c 0
 291.029 -114.232 291.029 -114.232 300.782 -95.2396 c 0
 309.995 -77.3001 309.995 -77.3001 322.76 -52.7427 c 1
 339.269 -17.363 339.269 -17.363 388.42 105.995 c 0
 487 348.656 487 348.656 487 572 c 0
 487 799.091 487 799.091 393.343 1025.18 c 1
 339.483 1165.22 339.483 1165.22 259.342 1320.62 c 2
 202.934 1430 l 1
 423.236 1430 l 1
 445.328 1395.18 l 2
 637.107 1092.92 637.107 1092.92 697.787 765.435 c 0
 716 663.656 716 663.656 716 572 c 0
 716 388.947 716 388.947 640.168 159.333 c 0
 567.152 -58.686 567.152 -58.686 445.088 -248.557 c 2
 422.946 -283 l 1
 197.762 -283 l 1
 261.882 -170.79 l 2
EndSplineSet
EndChar

StartChar: asterisk
Encoding: 42 42 13
Width: 1228
Flags: W
LayerCount: 2
Fore
SplineSet
726.341 928.717 m 1
 1007.26 1031.03 l 1
 1084.55 793.833 l 1
 796.688 713.374 l 1
 983.355 481.157 l 1
 780.194 330.766 l 1
 612.629 583.015 l 1
 564.495 510.642 564.495 510.642 489.674 396.806 c 2
 446.547 331.191 l 1
 382.977 377.279 l 2
 342.302 406.77 342.302 406.77 304.742 435.195 c 2
 243.16 481.797 l 1
 429.409 713.495 l 1
 138.449 795.216 l 1
 218.694 1030.6 l 1
 498.726 928.934 l 1
 494.238 1033.66 494.238 1033.66 491.03 1147.89 c 2
 488.864 1225 l 1
 738.013 1225 l 1
 726.341 928.717 l 1
EndSplineSet
EndChar

StartChar: plus
Encoding: 43 43 14
Width: 1228
Flags: W
LayerCount: 2
Fore
SplineSet
1172 515 m 1
 719 515 l 1
 719 72 l 1
 511 72 l 1
 511 515 l 1
 58 515 l 1
 58 723 l 1
 511 723 l 1
 511 1167 l 1
 719 1167 l 1
 719 723 l 1
 1172 723 l 1
 1172 515 l 1
EndSplineSet
EndChar

StartChar: comma
Encoding: 44 44 15
Width: 1228
Flags: W
LayerCount: 2
Fore
SplineSet
287.947 -276 m 1
 482.882 347 l 1
 822.027 347 l 1
 541.48 -276 l 1
 287.947 -276 l 1
EndSplineSet
EndChar

StartChar: hyphen
Encoding: 45 45 16
Width: 1228
Flags: W
LayerCount: 2
Fore
SplineSet
891 506 m 1
 333 506 l 1
 333 724 l 1
 891 724 l 1
 891 506 l 1
EndSplineSet
EndChar

StartChar: period
Encoding: 46 46 17
Width: 1228
Flags: W
LayerCount: 2
Fore
SplineSet
829 105 m 0
 829 19.7327 829 19.7327 762.093 -38.1995 c 0
 699.959 -92 699.959 -92 614 -92 c 0
 528.022 -92 528.022 -92 476.9 -47.6939 c 0
 399 19.72 399 19.72 399 105 c 0
 399 190.267 399 190.267 465.907 248.199 c 0
 528.041 302 528.041 302 614 302 c 0
 699.979 302 699.979 302 751.112 257.684 c 0
 829 190.279 829 190.279 829 105 c 0
EndSplineSet
EndChar

StartChar: slash
Encoding: 47 47 18
Width: 1228
Flags: W
LayerCount: 2
Fore
SplineSet
121.003 -277.79 m 1
 945.75 1516.36 l 1
 1131.95 1441.08 l 1
 302.352 -364.522 l 1
 121.003 -277.79 l 1
EndSplineSet
EndChar

StartChar: zero
Encoding: 48 48 19
Width: 1228
Flags: W
LayerCount: 2
Fore
SplineSet
789.104 219.911 m 0
 860 361.37 860 361.37 860 638 c 0
 860 795.59 860 795.59 838.533 902.137 c 1
 535.314 111.443 l 1
 569.699 95 569.699 95 602 95 c 0
 659.856 95 659.856 95 689.922 112.407 c 0
 726.571 133.625 726.571 133.625 747.851 158.152 c 0
 771.121 184.972 771.121 184.972 789.104 219.911 c 0
1030.43 966.912 m 0
 1075 841.044 1075 841.044 1075 628.732 c 0
 1075 319.25 1075 319.25 965.003 149.861 c 1
 908.405 58.7377 908.405 58.7377 817.916 10.4203 c 0
 727.427 -37.8971 727.427 -37.8971 613 -37.8971 c 0
 532.727 -37.8971 532.727 -37.8971 463.648 -13.8701 c 1
 409.695 -141.127 l 1
 218.738 -64.0101 l 1
 244.913 -2.11225 l 2
 268.662 54.044 268.662 54.044 293.242 112.049 c 1
 275.568 133.251 275.568 133.251 260.045 157.163 c 0
 152 327.991 152 327.991 152 637.769 c 0
 152 1036.89 152 1036.89 339.967 1206.24 c 2
 341.794 1207.89 l 1
 343.741 1209.42 l 2
 457.926 1299 457.926 1299 613 1299 c 0
 686.16 1299 686.16 1299 751.023 1275.52 c 0
 768.804 1269.09 768.804 1269.09 786.028 1261.36 c 1
 820.827 1351.12 l 1
 1012.14 1279.85 l 1
 949.885 1133.01 l 1
 993.846 1070.21 993.846 1070.21 1030.43 966.912 c 0
366 589 m 0
 366 390.312 366 390.312 398.114 255.531 c 1
 545.004 638.687 545.004 638.687 713.282 1073.54 c 1
 671.272 1102 671.272 1102 613 1102 c 0
 567.373 1102 567.373 1102 531.482 1085.61 c 0
 495.591 1069.23 495.591 1069.23 464.992 1031.96 c 0
 434.393 994.697 434.393 994.697 412.874 929.523 c 0
 391.355 864.35 391.355 864.35 379.383 771.399 c 0
 366 668.148 366 668.148 366 589 c 0
EndSplineSet
EndChar

StartChar: one
Encoding: 49 49 20
Width: 1228
Flags: W
LayerCount: 2
Fore
SplineSet
154.064 1024.17 m 2
 124.898 1083.86 l 1
 608.102 1272 l 1
 737 1272 l 1
 737 201 l 1
 1107 201 l 1
 1107 0 l 1
 152 0 l 1
 152 201 l 1
 530 201 l 1
 530 1049.67 l 1
 207.27 918.351 l 1
 176.398 979.635 l 2
 157.228 1017.69 157.228 1017.69 154.064 1024.17 c 2
EndSplineSet
EndChar

StartChar: two
Encoding: 50 50 21
Width: 1228
Flags: W
LayerCount: 2
Fore
SplineSet
1040 415 m 1
 1040 0 l 1
 96 0 l 1
 96 165.995 l 1
 124.563 185.735 l 2
 175.139 220.689 175.139 220.689 227.761 260.836 c 0
 281.184 301.593 281.184 301.593 334.127 343.663 c 0
 387.24 385.867 387.24 385.867 438.845 428.057 c 0
 490.153 470.004 490.153 470.004 535.553 508.932 c 0
 580.985 547.889 580.985 547.889 620.808 582.349 c 0
 660.022 616.287 660.022 616.287 689.467 642.097 c 0
 718.58 667.616 718.58 667.616 735.725 683.073 c 0
 752.295 698.012 752.295 698.012 756.352 701.599 c 0
 775.996 719.612 775.996 719.612 789.381 736.521 c 0
 801.664 752.037 801.664 752.037 809.543 768.989 c 0
 817.283 785.64 817.283 785.64 820.927 805.769 c 0
 825 828.263 825 828.263 825 859.012 c 0
 825 910.323 825 910.323 801.073 950.33 c 0
 779.188 986.923 779.188 986.923 744.734 1012.41 c 1
 739.105 1015.73 l 2
 697.738 1040.15 697.738 1040.15 656.869 1053.18 c 0
 619.791 1065 619.791 1065 576 1065 c 0
 533.053 1065 533.053 1065 501.533 1056.01 c 0
 467.462 1045.86 467.462 1045.86 426.737 1025.52 c 1
 400.84 1011.29 400.84 1011.29 385.084 994.565 c 0
 370.204 978.774 370.204 978.774 362.358 959.459 c 0
 351.795 934.108 351.795 934.108 349.755 908.939 c 2
 344.165 840 l 1
 139 840 l 1
 139 1052.85 l 1
 159.515 1074.54 l 2
 197.736 1114.94 197.736 1114.94 240.848 1150.42 c 0
 286.506 1187.98 286.506 1187.98 339.083 1215.14 c 0
 391.966 1242.45 391.966 1242.45 451.482 1258.05 c 0
 512.34 1274 512.34 1274 581 1274 c 0
 664.905 1274 664.905 1274 746.889 1242.51 c 0
 828.662 1215.06 828.662 1215.06 893.89 1164.27 c 0
 959.893 1112.87 959.893 1112.87 1000.37 1040.55 c 0
 1042 966.161 1042 966.161 1042 875.813 c 0
 1042 829.565 1042 829.565 1032.35 790.021 c 0
 1022.4 749.244 1022.4 749.244 999.76 709.136 c 0
 977.778 670.19 977.778 670.19 941.423 629.837 c 0
 907.529 592.216 907.529 592.216 857.351 546.971 c 0
 808.738 503.136 808.738 503.136 742.546 448.391 c 0
 677.392 394.505 677.392 394.505 590.543 323.885 c 1
 506.37 258.101 506.37 258.101 432.648 201 c 1
 838 201 l 1
 838 415 l 1
 1040 415 l 1
EndSplineSet
EndChar

StartChar: three
Encoding: 51 51 22
Width: 1228
Flags: W
LayerCount: 2
Fore
SplineSet
909.111 619.166 m 1
 974.959 546.923 l 1
 1024 473.296 1024 473.296 1024 372.625 c 0
 1024 191.313 1024 191.313 882.932 78.6658 c 0
 745.597 -31 745.597 -31 540 -31 c 0
 538.41 -31 538.41 -31 536.054 -30.988 c 1
 614.25 -109.184 l 1
 285.155 16.969 l 2
 224.319 40.2896 224.319 40.2896 150.492 70.6295 c 2
 80.2552 99.4937 l 1
 159.977 286.839 l 1
 229.805 255.381 l 2
 417.117 171 417.117 171 542 171 c 0
 656.032 171 656.032 171 738.734 228.326 c 0
 815 281.191 815 281.191 815 376.569 c 0
 815 423.896 815 423.896 794.009 458.626 c 0
 773.017 493.356 773.017 493.356 727.272 521.994 c 1
 692.315 540.942 692.315 540.942 671.266 545.758 c 2
 628.194 555.615 l 1
 586.176 562 586.176 562 532 562 c 2
 425 562 l 1
 425 603.667 l 1
 130.956 673.562 l 1
 425 673.562 l 1
 425 733.849 l 1
 497.118 736.267 l 2
 605.826 739.913 605.826 739.913 652.666 766.456 c 0
 702.918 795.817 702.918 795.817 723.959 826.859 c 0
 745 857.901 745 857.901 745 897.121 c 0
 745 979.392 745 979.392 688.6 1024.42 c 1
 624.725 1071 624.725 1071 536.959 1071 c 1
 450.11 1073.41 450.11 1073.41 341.83 1008.83 c 0
 306.54 987.251 306.54 987.251 273.744 966.032 c 0
 243.146 946.228 243.146 946.228 208.605 923.887 c 1
 168.688 990.413 l 2
 165.669 995.445 165.669 995.445 142.837 1033.16 c 2
 105.212 1095.33 l 1
 166.155 1134.9 l 2
 248.165 1188.15 248.165 1188.15 338.077 1228.05 c 0
 437.104 1272 437.104 1272 528.5 1272 c 0
 589.01 1272 589.01 1272 642.594 1260.15 c 0
 666.888 1254.78 666.888 1254.78 689.736 1246.98 c 0
 763.977 1224.29 763.977 1224.29 823.697 1180.66 c 0
 958 1080.68 958 1080.68 958 923.918 c 0
 958 850.803 958 850.803 927.415 786.909 c 0
 896.83 723.015 896.83 723.015 838.971 675.282 c 1
 865.969 658.203 865.969 658.203 889.033 637.562 c 0
 898.172 629.383 898.172 629.383 909.111 619.166 c 1
EndSplineSet
EndChar

StartChar: four
Encoding: 52 52 23
Width: 1228
Flags: W
LayerCount: 2
Fore
SplineSet
375.008 444 m 1
 648 444 l 1
 648 908.948 l 1
 375.008 444 l 1
111 382.858 m 1
 121.483 399.303 l 2
 613.503 1171.12 613.503 1171.12 654.524 1235.31 c 2
 676.324 1272 l 1
 852 1272 l 1
 852 444 l 1
 1047 444 l 1
 1047 241 l 1
 852 241 l 1
 852 201 l 1
 1047 201 l 1
 1047 0 l 1
 356 0 l 1
 356 201 l 1
 648 201 l 1
 648 241 l 1
 111 241 l 1
 111 382.858 l 1
EndSplineSet
EndChar

StartChar: five
Encoding: 53 53 24
Width: 1228
Flags: W
LayerCount: 2
Fore
SplineSet
385 1038 m 1
 385 816.319 l 1
 505.908 856 505.908 856 597 856 c 0
 810.143 856 810.143 856 942.31 728.043 c 0
 1073 601.517 1073 601.517 1073 418.954 c 0
 1073 211.377 1073 211.377 912.955 76.9271 c 1
 779.182 -31 779.182 -31 569 -31 c 0
 459.457 -31 459.457 -31 388.134 -11.3223 c 0
 253.852 24.8818 253.852 24.8818 165.146 60.3643 c 2
 94.803 88.5013 l 1
 173.751 280.232 l 1
 243.863 249.798 l 2
 411.574 177 411.574 177 569 177 c 0
 710.476 177 710.476 177 783.92 241.811 c 0
 858 307.183 858 307.183 858 411.246 c 0
 858 516.243 858 516.243 782.135 586.597 c 0
 708.374 655 708.374 655 586 655 c 0
 454.896 655 454.896 655 333.387 568.824 c 2
 295.193 541.736 l 1
 254.086 564.158 l 2
 241.121 571.23 241.121 571.23 223.25 582.4 c 2
 188 604.431 l 1
 188 1241 l 1
 1011 1241 l 1
 1011 1038 l 1
 385 1038 l 1
EndSplineSet
EndChar

StartChar: six
Encoding: 54 54 25
Width: 1228
Flags: W
LayerCount: 2
Fore
SplineSet
1026.24 1065.6 m 0
 999.646 1067.3 999.646 1067.3 986.222 1068.15 c 2
 941.609 1071 l 1
 899.751 1071 l 1
 675.035 1072.13 675.035 1072.13 548.517 997.723 c 0
 421.999 917.301 421.999 917.301 374.923 745.604 c 1
 379.539 748.636 379.539 748.636 383.899 751.379 c 0
 501.162 826 501.162 826 612.5 826 c 0
 719.82 826 719.82 826 800.249 788.739 c 0
 877.905 752.762 877.905 752.762 934.685 692.77 c 0
 1053 566.576 1053 566.576 1053 392.902 c 0
 1053 222.914 1053 222.914 930.618 98.3631 c 0
 803.274 -31 803.274 -31 620 -31 c 0
 441.127 -31 441.127 -31 302.991 91.5933 c 0
 221.699 164.867 221.699 164.867 179.744 273.311 c 1
 -10.5908 67.0475 l 1
 153.523 360.883 l 1
 135 444.474 135 444.474 135 544.626 c 0
 135 977.108 135 977.108 452.556 1175.61 c 1
 548.517 1233.57 548.517 1233.57 643.349 1250.56 c 0
 791.695 1280.02 791.695 1280.02 911.656 1278 c 1
 950 1278 l 2
 970.703 1278 970.703 1278 994.406 1276.92 c 2
 1066 1273.67 l 1
 1066 1063.06 l 1
 1052.83 1063.9 1052.83 1063.9 1026.24 1065.6 c 0
408.822 526.752 m 2
 395.227 512.687 l 1
 374.94 488.384 374.94 488.384 356.922 453.182 c 1
 358.518 434.395 358.518 434.395 361.346 416.879 c 0
 374.863 333.154 374.863 333.154 413.634 280.938 c 0
 452.404 228.721 452.404 228.721 518.488 199.734 c 0
 569.41 177 569.41 177 615.5 177 c 0
 664.117 177 664.117 177 702.6 191.582 c 0
 741.143 206.188 741.143 206.188 770.429 233.721 c 0
 836 295.695 836 295.695 836 393.227 c 0
 836 486.361 836 486.361 770.908 555.237 c 0
 738.443 588.802 738.443 588.802 703.81 603.401 c 0
 669.177 618 669.177 618 625 618 c 0
 548.009 618 548.009 618 471.515 576.023 c 0
 439.383 558.37 439.383 558.37 408.822 526.752 c 2
EndSplineSet
EndChar

StartChar: seven
Encoding: 55 55 26
Width: 1228
Flags: W
LayerCount: 2
Fore
SplineSet
1089 1118.18 m 1
 653.331 0 l 1
 424.068 0 l 1
 855.068 1040 l 1
 344 1040 l 1
 344 861 l 1
 139 861 l 1
 139 1241 l 1
 1089 1241 l 1
 1089 1118.18 l 1
EndSplineSet
EndChar

StartChar: eight
Encoding: 56 56 27
Width: 1228
Flags: W
LayerCount: 2
Fore
SplineSet
883 349.599 m 0
 883 418.421 883 418.421 816.101 476.687 c 1
 748.045 534 748.045 534 632 534 c 0
 506.193 534 506.193 534 442.34 473.079 c 1
 381 415.889 381 415.889 381 346.699 c 0
 381 281.757 381 281.757 451.612 227.263 c 0
 524.515 171 524.515 171 632 171 c 0
 739.386 171 739.386 171 810.746 226.324 c 0
 883 282.462 883 282.462 883 349.599 c 0
625 734 m 0
 721.261 734 721.261 734 793.253 785.718 c 1
 860 834.762 860 834.762 860 909.735 c 0
 860 948.723 860 948.723 844.462 976.318 c 0
 828.924 1003.91 828.924 1003.91 795.265 1026.27 c 0
 723.412 1074 723.412 1074 650 1074 c 0
 567.284 1074 567.284 1074 525.336 1057.26 c 0
 481.691 1039.85 481.691 1039.85 454.526 1014.77 c 0
 404 966.473 404 966.473 404 904.41 c 0
 404 844.543 404 844.543 468.367 787.801 c 1
 532.203 734 532.203 734 625 734 c 0
315.974 651.744 m 1
 275.326 695.601 l 2
 189 788.744 189 788.744 189 923.385 c 0
 189 1063.15 189 1063.15 318.107 1170.13 c 0
 444.654 1275 444.654 1275 631 1275 c 0
 816.752 1275 816.752 1275 945.348 1169.12 c 1
 1076 1064.98 1076 1064.98 1076 912.854 c 0
 1076 831.345 1076 831.345 1019.77 739.341 c 0
 987.387 686.694 987.387 686.694 919.779 638.671 c 1
 996.216 591.313 996.216 591.313 1036.56 531.19 c 1
 1100 433.794 1100 433.794 1100 353.093 c 0
 1100 218.854 1100 218.854 985.579 101.619 c 0
 928.22 42.5227 928.22 42.5227 835.164 7.40271 c 0
 744.178 -31 744.178 -31 632 -31 c 0
 405.345 -31 405.345 -31 277.162 98.2113 c 1
 164 220.014 164 220.014 164 334.519 c 0
 164 444.831 164 444.831 232.37 537.919 c 2
 315.974 651.744 l 1
EndSplineSet
EndChar

StartChar: nine
Encoding: 57 57 28
Width: 1228
Flags: W
LayerCount: 2
Fore
SplineSet
94 189.476 m 1
 179.607 177.246 l 2
 191.425 175.558 191.425 175.558 201.228 174.741 c 0
 210.12 174 210.12 174 217 174 c 0
 239.359 174 239.359 174 267.707 174.375 c 0
 294.584 174.73 294.584 174.73 320.634 176.209 c 0
 447.25 180.337 447.25 180.337 537.24 213.825 c 0
 625.467 246.657 625.467 246.657 683.727 304.245 c 0
 743.729 367.129 743.729 367.129 774.778 457.222 c 0
 780.712 478.413 780.712 478.413 785.725 500.993 c 1
 778.026 495.771 778.026 495.771 770.313 490.939 c 0
 716.911 457.491 716.911 457.491 660.047 439.129 c 0
 600.808 420 600.808 420 547 420 c 0
 448.6 420 448.6 420 366.199 454.654 c 0
 284.564 488.986 284.564 488.986 226.175 548.579 c 0
 168.421 607.523 168.421 607.523 137.458 686.038 c 0
 107 763.274 107 763.274 107 851.299 c 0
 107 927.148 107 927.148 135.766 1001.87 c 0
 164.831 1077.38 164.831 1077.38 219.686 1136.89 c 0
 275.428 1197.36 275.428 1197.36 355.358 1234.78 c 0
 437.945 1277 437.945 1277 540 1277 c 0
 604.043 1277 604.043 1277 666.115 1258.32 c 0
 728.691 1241.52 728.691 1241.52 783.729 1208.07 c 0
 838.172 1174.98 838.172 1174.98 883.519 1125.61 c 0
 928.584 1076.54 928.584 1076.54 960.237 1011.87 c 0
 970.701 990.49 970.701 990.49 979.581 967.356 c 1
 1161.13 1160.43 l 1
 1005.42 882.665 l 1
 1006.81 876.782 1006.81 876.782 1008.11 870.811 c 0
 1025 793.556 1025 793.556 1025 701.479 c 0
 1025 633.162 1025 633.162 1015.94 567.54 c 0
 1006.76 501.085 1006.76 501.085 987.28 438.35 c 0
 967.571 374.877 967.571 374.877 936.349 315.76 c 0
 904.826 256.074 904.826 256.074 860.331 201.508 c 1
 801.772 131.865 801.772 131.865 730.874 87.8083 c 0
 661.834 44.9058 661.834 44.9058 586.631 20.5155 c 0
 513.753 -5.98483 513.753 -5.98483 439.028 -17.6087 c 0
 368.056 -28.6488 368.056 -28.6488 298.945 -31.8978 c 0
 279.657 -33 279.657 -33 262 -33 c 2
 232 -33 l 2
 214.79 -33 214.79 -33 198.082 -32.461 c 0
 181.45 -31.9245 181.45 -31.9245 164.322 -30.8539 c 2
 94 -26.4588 l 1
 94 189.476 l 1
751.536 719.615 m 2
 760.619 728.871 l 1
 783.435 755.227 783.435 755.227 802.623 792.065 c 1
 796.286 844.1 796.286 844.1 779.11 893.478 c 0
 760.74 946.288 760.74 946.288 726.685 986.618 c 0
 694.735 1024.46 694.735 1024.46 647.404 1047.48 c 0
 603.153 1069 603.153 1069 538 1069 c 0
 489.151 1069 489.151 1069 452.801 1053.02 c 0
 413.742 1035.85 413.742 1035.85 386.954 1008.57 c 0
 358.764 979.859 358.764 979.859 342.777 943.2 c 0
 326.719 906.378 326.719 906.378 324 868.092 c 1
 324 852.773 l 2
 324 812.862 324 812.862 339.171 770.811 c 0
 353.938 729.877 353.938 729.877 382.441 696.719 c 0
 409.161 665.636 409.161 665.636 449.102 645.856 c 0
 485.16 628 485.16 628 535 628 c 0
 567.883 628 567.883 628 597.532 634.253 c 0
 628.14 640.707 628.14 640.707 655.35 652.166 c 0
 681.842 663.323 681.842 663.323 704.986 679.806 c 0
 729.835 697.503 729.835 697.503 751.536 719.615 c 2
EndSplineSet
EndChar

StartChar: colon
Encoding: 58 58 29
Width: 1228
Flags: W
LayerCount: 2
Fore
SplineSet
829 659 m 0
 829 573.735 829 573.735 762.093 515.801 c 0
 699.961 462 699.961 462 614 462 c 0
 528.021 462 528.021 462 476.909 506.298 c 0
 399 573.721 399 573.721 399 659 c 0
 399 744.265 399 744.265 465.907 802.199 c 0
 528.039 856 528.039 856 614 856 c 0
 699.977 856 699.977 856 751.135 811.663 c 0
 829 744.282 829 744.282 829 659 c 0
829 105 m 0
 829 19.7327 829 19.7327 762.093 -38.1995 c 0
 699.959 -92 699.959 -92 614 -92 c 0
 528.022 -92 528.022 -92 476.9 -47.6939 c 0
 399 19.72 399 19.72 399 105 c 0
 399 190.267 399 190.267 465.907 248.199 c 0
 528.041 302 528.041 302 614 302 c 0
 699.979 302 699.979 302 751.112 257.684 c 0
 829 190.279 829 190.279 829 105 c 0
EndSplineSet
EndChar

StartChar: semicolon
Encoding: 59 59 30
Width: 1228
Flags: W
LayerCount: 2
Fore
SplineSet
829 660 m 0
 829 574.735 829 574.735 762.093 516.801 c 0
 699.961 463 699.961 463 614 463 c 0
 528.021 463 528.021 463 476.909 507.298 c 0
 399 574.721 399 574.721 399 660 c 0
 399 745.265 399 745.265 465.907 803.199 c 0
 528.039 857 528.039 857 614 857 c 0
 699.977 857 699.977 857 751.135 812.663 c 0
 829 745.282 829 745.282 829 660 c 0
289.535 -296 m 1
 487.103 327 l 1
 823.251 327 l 1
 541.387 -296 l 1
 289.535 -296 l 1
EndSplineSet
EndChar

StartChar: less
Encoding: 60 60 31
Width: 1228
Flags: W
LayerCount: 2
Fore
SplineSet
445.104 631.683 m 1
 1068.03 345.365 1068.03 345.365 1127.31 318.151 c 2
 1196.02 286.581 l 1
 1109.26 101.732 l 1
 1041.63 132.877 l 2
 889.068 203.134 889.068 203.134 678.289 301.034 c 0
 279.618 487.886 279.618 487.886 116.65 562.866 c 2
 -28.7571 629.772 l 1
 1099.33 1167.95 l 1
 1131.66 1100.36 l 2
 1143.07 1076.5 1143.07 1076.5 1156.44 1046.68 c 2
 1186.6 979.4 l 1
 445.104 631.683 l 1
EndSplineSet
EndChar

StartChar: equal
Encoding: 61 61 32
Width: 1228
Flags: W
LayerCount: 2
Fore
SplineSet
1155 332 m 1
 71 332 l 1
 71 539 l 1
 1155 539 l 1
 1155 332 l 1
1155 725 m 1
 71 725 l 1
 71 932 l 1
 1155 932 l 1
 1155 725 l 1
EndSplineSet
EndChar

StartChar: greater
Encoding: 62 62 33
Width: 1228
Flags: W
LayerCount: 2
Fore
SplineSet
35.025 983.665 m 1
 118.674 1169.98 l 1
 1281.33 630.913 l 1
 115.613 75.6913 l 1
 86.1936 150.576 l 2
 76.1777 176.071 76.1777 176.071 66.3399 196.641 c 2
 33.7793 264.722 l 1
 808.213 629.215 l 1
 282.53 870.939 282.53 870.939 102.914 952.746 c 2
 35.025 983.665 l 1
EndSplineSet
EndChar

StartChar: question
Encoding: 63 63 34
Width: 1228
Flags: W
LayerCount: 2
Fore
SplineSet
647.896 -85.3036 m 1
 599.214 -112 599.214 -112 548 -112 c 0
 502.306 -112 502.306 -112 466.995 -98.6604 c 0
 432.896 -85.7786 432.896 -85.7786 405.623 -63.3192 c 0
 360.643 -24.4185 360.643 -24.4185 347.388 21.8481 c 0
 342 40.6534 342 40.6534 342 60 c 0
 342 111.704 342 111.704 359.918 147.541 c 0
 377.036 181.777 377.036 181.777 406.824 206.308 c 0
 466.825 254 466.825 254 530.5 254 c 0
 581.415 254 581.415 254 616.999 240.85 c 0
 652.134 227.865 652.134 227.865 678.71 205.035 c 0
 741 152.183 741 152.183 741 65 c 0
 741 17.8207 741 17.8207 715.334 -21.5895 c 0
 689.667 -60.9997 689.667 -60.9997 647.896 -85.3036 c 1
650 293 m 1
 445 293 l 1
 445 590.154 l 1
 501.322 604.637 l 2
 536.896 613.784 536.896 613.784 563.999 620.68 c 0
 590.148 627.339 590.148 627.339 636.297 640.94 c 0
 677.117 652.971 677.117 652.971 718.903 674.301 c 0
 755.839 693.155 755.839 693.155 780.21 718.266 c 0
 830 769.459 830 769.459 830 847 c 0
 830 909.455 830 909.455 802.59 949.572 c 0
 775.181 989.689 775.181 989.689 710.571 1018.45 c 0
 662.082 1040 662.082 1040 567.5 1040 c 0
 489.124 1040 489.124 1040 383 1002.43 c 1
 383 849 l 1
 176 849 l 1
 176 1155.43 l 1
 227.748 1172.3 l 2
 419.728 1234.91 419.728 1234.91 477.141 1240.19 c 0
 529.578 1245 529.578 1245 600 1245 c 0
 680.587 1245 680.587 1245 765.334 1213.22 c 0
 850.612 1181.25 850.612 1181.25 911.219 1126.71 c 0
 1039.52 1010.75 1039.52 1010.75 1041.99 843.111 c 2
 1042.02 841.087 l 1
 1041.94 839.061 l 2
 1037.03 713.803 1037.03 713.803 961.042 620.379 c 0
 885.054 526.954 885.054 526.954 751.477 472.616 c 0
 702.743 452.425 702.743 452.425 650 435.346 c 1
 650 293 l 1
EndSplineSet
EndChar

StartChar: at
Encoding: 64 64 35
Width: 1228
Flags: W
LayerCount: 2
Fore
SplineSet
958.545 834.993 m 1
 861.518 486.837 l 1
 843.685 415.399 843.685 415.399 840.998 395.314 c 1
 840.964 381.144 840.964 381.144 840.563 371.104 c 0
 840.82 369.988 840.82 369.988 841.079 368.864 c 0
 841.949 365.096 841.949 365.096 844.229 362.789 c 0
 858.842 350 858.842 350 887 350 c 0
 951.573 350 951.573 350 1002.97 467.324 c 1
 1024.29 519.12 1024.29 519.12 1026.02 611.595 c 0
 1029.2 743.383 1029.2 743.383 958.545 834.993 c 1
1099.7 249.938 m 1
 1184.66 90.6345 l 1
 1120.82 54.6595 l 2
 851.673 -97 851.673 -97 600 -97 c 0
 452.926 -97 452.926 -97 334.764 -43.9127 c 0
 214.691 10.0331 214.691 10.0331 140.367 103.233 c 0
 65.4038 197.216 65.4038 197.216 39.1879 272.289 c 0
 -3 393.303 -3 393.303 -3 523 c 0
 -3 800.851 -3 800.851 165.158 987.068 c 1
 341.349 1185 341.349 1185 646 1185 c 0
 811.111 1185 811.111 1185 938.956 1115.8 c 0
 1066.8 1046.61 1066.8 1046.61 1146.41 912.424 c 0
 1226 779.783 1226 779.783 1226 596 c 0
 1226 433.807 1226 433.807 1143.9 307.151 c 0
 1123.17 275.328 1123.17 275.328 1099.7 249.938 c 1
682.955 218.434 m 1
 674.371 210.911 674.371 210.911 664.674 203.29 c 0
 597.631 150 597.631 150 504 150 c 0
 432.266 150 432.266 150 365.904 201.616 c 1
 283 270.952 283 270.952 283 417 c 0
 283 523.931 283 523.931 319.064 607.548 c 0
 441.706 897 441.706 897 651 897 c 0
 703.497 897 703.497 897 749.175 866.944 c 1
 753.206 886 l 1
 910.334 886 l 1
 883.301 909.686 883.301 909.686 850.35 930.338 c 0
 763.665 984 763.665 984 645.5 984 c 0
 522.884 984 522.884 984 440.151 944.741 c 0
 357.54 905.539 357.54 905.539 304.891 842.318 c 0
 200 713.748 200 713.748 200 517 c 0
 200 346.639 200 346.639 298.018 231.723 c 0
 406.52 105 406.52 105 607 105 c 0
 642.086 105 642.086 105 686.814 110.177 c 1
 774.992 122.683 774.992 122.683 860.347 154.004 c 1
 828.833 156.707 828.833 156.707 796.213 165.657 c 0
 754.952 176.91 754.952 176.91 721.5 202 c 1
 682.955 218.434 l 1
512 353 m 0
 540.455 353 540.455 353 573.095 389.496 c 0
 618.01 439.718 618.01 439.718 634.096 486.446 c 0
 667 581.609 667 581.609 667 615 c 0
 667 648.358 667 648.358 662.643 660.917 c 0
 658.627 672.494 658.627 672.494 652.445 679.913 c 0
 646.515 686.991 646.515 686.991 641.902 689.982 c 1
 620.008 689.521 620.008 689.521 606.064 682.663 c 0
 592.12 675.804 592.12 675.804 577.86 658.277 c 0
 488 550.784 488 550.784 488 408 c 0
 488 363.456 488 363.456 503.309 355.079 c 0
 506.774 353 506.774 353 512 353 c 0
EndSplineSet
EndChar

StartChar: A
Encoding: 65 65 36
Width: 1228
Flags: W
LayerCount: 2
Fore
SplineSet
452.056 516 m 1
 780.631 516 l 1
 615.744 912.928 l 1
 452.056 516 l 1
1283 200 m 1
 1283 0 l 1
 745 0 l 1
 745 200 l 1
 937.986 200 l 1
 858.331 323 l 1
 372.669 323 l 1
 293.014 200 l 1
 482 200 l 1
 482 0 l 1
 -56 0 l 1
 -56 200 l 1
 73.7471 200 l 1
 445.066 953 l 1
 164 953 l 1
 164 1153 l 1
 707.361 1153 l 1
 1158.36 200 l 1
 1283 200 l 1
EndSplineSet
EndChar

StartChar: B
Encoding: 66 66 37
Width: 1228
Flags: W
LayerCount: 2
Fore
SplineSet
876.748 770.174 m 2
 883.286 779.072 l 2
 890.319 790.157 890.319 790.157 894.984 800.752 c 0
 900 812.144 900 812.144 900 826.5 c 0
 900 856.646 900 856.646 888.464 876.668 c 0
 885.928 881.069 885.928 881.069 882.912 885.131 c 0
 872.843 898.691 872.843 898.691 856.82 909.051 c 0
 833.306 924.254 833.306 924.254 796.224 934.265 c 0
 755.03 945.385 755.03 945.385 702.187 951.498 c 1
 690.058 951.704 690.058 951.704 679.537 952.516 c 0
 673.258 953 673.258 953 666 953 c 2
 404 953 l 1
 404 700 l 1
 638 700 l 2
 743.377 700 743.377 700 802.309 721.193 c 0
 854.57 739.987 854.57 739.987 876.748 770.174 c 2
404 200 m 1
 696.02 200 l 1
 731.846 202.314 731.846 202.314 768.615 205.624 c 0
 803.769 208.788 803.769 208.788 837.532 215.453 c 0
 868.8 221.625 868.8 221.625 896.065 231.889 c 0
 917.56 239.981 917.56 239.981 933.976 253.618 c 0
 950.096 267.01 950.096 267.01 961.167 288.48 c 0
 972.407 310.277 972.407 310.277 974.993 343.981 c 1
 974.499 383.496 974.499 383.496 955.827 407.494 c 0
 934.694 434.655 934.694 434.655 887.808 457.644 c 2
 883.55 459.732 l 1
 784.205 500 784.205 500 621 500 c 2
 404 500 l 1
 404 200 l 1
19 200 m 1
 196 200 l 1
 196 953 l 1
 19 953 l 1
 19 1153 l 1
 652 1153 l 2
 759.275 1153 759.275 1153 841.556 1127.68 c 0
 926.514 1104.76 926.514 1104.76 985.553 1063.77 c 0
 1047.71 1020.62 1047.71 1020.62 1079.21 960.186 c 0
 1110 901.123 1110 901.123 1110 834.184 c 0
 1110 775.453 1110 775.453 1085.75 724.311 c 0
 1062.1 674.424 1062.1 674.424 1020.99 635.554 c 0
 1008.64 623.881 1008.64 623.881 994.67 613.09 c 1
 1039.85 590.832 1039.85 590.832 1075.34 561.607 c 0
 1127.25 518.867 1127.25 518.867 1155.89 463.041 c 0
 1185 406.326 1185 406.326 1185 339.587 c 0
 1185 282.76 1185 282.76 1165.87 230.805 c 0
 1145.92 176.607 1145.92 176.607 1104.12 132.616 c 0
 1062.16 88.4605 1062.16 88.4605 998.092 58.7159 c 0
 936.494 26.1053 936.494 26.1053 853.9 11.9459 c 0
 809.381 5.26813 809.381 5.26813 753.602 2.58652 c 0
 699.8 0 699.8 0 633 0 c 2
 19 0 l 1
 19 200 l 1
EndSplineSet
EndChar

StartChar: C
Encoding: 67 67 38
Width: 1228
Flags: W
LayerCount: 2
Fore
SplineSet
1149.83 676.305 m 1
 1103.62 663.814 l 2
 1091.42 660.863 1091.42 660.863 1079.13 659.188 c 0
 1069.79 657.914 1069.79 657.914 1060.42 656.21 c 2
 991.882 643.749 l 1
 974.4 711.178 l 2
 961.574 760.649 961.574 760.649 944.813 802.775 c 0
 929.641 840.906 929.641 840.906 907.365 877.097 c 1
 864.958 931.058 864.958 931.058 810.076 956.529 c 0
 755.195 982 755.195 982 679 982 c 0
 594.286 982 594.286 982 521.352 955.824 c 0
 450.262 930.309 450.262 930.309 402.223 886.088 c 1
 384.909 869.042 l 2
 327.896 813.029 327.896 813.029 302.519 745.211 c 0
 276 674.342 276 674.342 276 590.425 c 0
 276 538.318 276 538.318 286.465 485.71 c 0
 296.663 434.442 296.663 434.442 318.786 387.02 c 0
 340.593 340.277 340.593 340.277 374.124 299.484 c 0
 405.837 260.904 405.837 260.904 450.353 232.381 c 0
 494.545 204.065 494.545 204.065 552.869 187.541 c 0
 611.253 171 611.253 171 687 171 c 0
 740.799 171 740.799 171 793.794 182.728 c 0
 847.777 194.675 847.777 194.675 901.179 217.817 c 0
 955.617 241.407 955.617 241.407 1010.5 276.623 c 0
 1066.3 312.43 1066.3 312.43 1121.51 359.217 c 2
 1174.2 403.868 l 1
 1316.86 261.203 l 1
 1260.24 208.23 l 2
 1226.61 176.771 1226.61 176.771 1191.23 149.553 c 0
 1156.28 122.672 1156.28 122.672 1121.2 100.006 c 0
 1085.85 77.1619 1085.85 77.1619 1052.34 59.584 c 0
 1019.7 42.4574 1019.7 42.4574 990.511 29.4867 c 0
 928.991 2.02281 928.991 2.02281 875.587 -12.0306 c 0
 823.751 -25.6711 823.751 -25.6711 783.318 -31.2869 c 0
 742.183 -37 742.183 -37 714 -37 c 2
 687 -37 l 2
 563.487 -37 563.487 -37 450.525 8.41258 c 0
 336.219 48.7304 336.219 48.7304 248.621 128.099 c 0
 161.549 206.991 161.549 206.991 110.561 322.517 c 0
 60 437.074 60 437.074 60 585.363 c 0
 60 653.002 60 653.002 77.2258 722.231 c 0
 94.4792 791.571 94.4792 791.571 128.933 856.906 c 0
 163.688 922.813 163.688 922.813 215.238 979.835 c 0
 267.618 1037.78 267.618 1037.78 336.387 1081.66 c 0
 406.399 1132.57 406.399 1132.57 493.564 1161.24 c 0
 580.974 1190 580.974 1190 684.094 1190 c 1
 803.81 1186.51 803.81 1186.51 894.435 1143.86 c 0
 925.164 1129.4 925.164 1129.4 953.414 1109.97 c 1
 953.878 1112.65 953.878 1112.65 954.285 1114.82 c 2
 965.756 1176 l 1
 1169.53 1176 l 1
 1154.98 1088.67 l 2
 1153.69 1080.94 1153.69 1080.94 1153.41 1075.25 c 0
 1153 1067.12 1153 1067.12 1153 1058 c 2
 1153 1055.26 l 1
 1152.8 1052.53 l 2
 1147.17 975.672 1147.17 975.672 1151.85 901.737 c 0
 1156.73 824.595 1156.73 824.595 1165.53 746.385 c 2
 1172.71 682.546 l 1
 1149.83 676.305 l 1
EndSplineSet
EndChar

StartChar: D
Encoding: 68 68 39
Width: 1228
Flags: W
LayerCount: 2
Fore
SplineSet
372 200 m 1
 572 200 l 2
 655.829 200 655.829 200 705.848 208.049 c 0
 798.268 222.793 798.268 222.793 852.967 268.406 c 0
 986 379.343 986 379.343 986 590.259 c 0
 986 748.994 986 748.994 895.392 854.451 c 1
 841.34 915.159 841.34 915.159 780.127 934.022 c 1
 712.46 953 712.46 953 583 953 c 2
 372 953 l 1
 372 200 l 1
-3 200 m 1
 165 200 l 1
 165 953 l 1
 -3 953 l 1
 -3 1153 l 1
 581 1153 l 2
 743.961 1153 743.961 1153 826.459 1128.36 c 0
 911.288 1106.04 911.288 1106.04 964 1071.21 c 0
 1012.82 1038.95 1012.82 1038.95 1057.33 992.496 c 1
 1201 829.018 1201 829.018 1201 595.809 c 0
 1201 288.517 1201 288.517 1007.71 123.205 c 1
 900.591 35.1091 900.591 35.1091 757.729 15.9203 c 1
 661.696 0 661.696 0 572 0 c 2
 -3 0 l 1
 -3 200 l 1
EndSplineSet
EndChar

StartChar: E
Encoding: 69 69 40
Width: 1228
Flags: W
LayerCount: 2
Fore
SplineSet
433 200 m 1
 972.009 200 l 1
 984.009 493 l 1
 1179 493 l 1
 1179 0 l 1
 45 0 l 1
 45 200 l 1
 226 200 l 1
 226 953 l 1
 45 953 l 1
 45 1153 l 1
 1158.27 1153 l 1
 1169.77 660 l 1
 973.42 660 l 1
 951.42 953 l 1
 433 953 l 1
 433 710 l 1
 679 710 l 1
 679 867 l 1
 877 867 l 1
 877 357 l 1
 679 357 l 1
 679 510 l 1
 433 510 l 1
 433 200 l 1
EndSplineSet
EndChar

StartChar: F
Encoding: 70 70 41
Width: 1228
Flags: W
LayerCount: 2
Fore
SplineSet
76 1153 m 1
 1175.58 1153 l 1
 1191.5 668 l 1
 997.531 668 l 1
 971.531 953 l 1
 456 953 l 1
 456 710 l 1
 703 710 l 1
 703 867 l 1
 901 867 l 1
 901 357 l 1
 703 357 l 1
 703 510 l 1
 456 510 l 1
 456 200 l 1
 734 200 l 1
 734 0 l 1
 76 0 l 1
 76 200 l 1
 249 200 l 1
 249 953 l 1
 76 953 l 1
 76 1153 l 1
EndSplineSet
EndChar

StartChar: G
Encoding: 71 71 42
Width: 1228
Flags: W
LayerCount: 2
Fore
SplineSet
100.92 220.158 m 1
 130.388 220.158 l 1
 113.993 247.017 l 2
 68.3391 321.809 68.3391 321.809 46.5588 402.262 c 0
 25 481.897 25 481.897 25 572.792 c 0
 25 633.421 25 633.421 38.6518 701.467 c 0
 52.5087 770.536 52.5087 770.536 82.8993 837.438 c 0
 113.295 904.351 113.295 904.351 159.596 965.73 c 0
 207.966 1029.85 207.966 1029.85 276.409 1078.65 c 0
 345.44 1127.87 345.44 1127.87 433.966 1156.84 c 0
 523.554 1190 523.554 1190 634 1190 c 2
 650.88 1190 l 1
 653.752 1189.78 l 2
 739.83 1183.16 739.83 1183.16 809.105 1162.32 c 0
 874.731 1142.58 874.731 1142.58 929.03 1106.67 c 1
 930.915 1116.92 930.915 1116.92 933.849 1125.72 c 2
 950.943 1177 l 1
 1146.48 1177 l 1
 1134.25 1091.39 l 2
 1128.9 1059.25 1128.9 1059.25 1127.99 1013.84 c 0
 1127 964.797 1127 964.797 1127 908.764 c 0
 1127 871.062 1127 871.062 1127.97 843.648 c 0
 1128.77 820.884 1128.77 820.884 1133.44 801.449 c 2
 1148.03 740.832 l 1
 1078.19 725.818 l 2
 1062.97 722.547 1062.97 722.547 1050.2 720.813 c 0
 1042.22 719.73 1042.22 719.73 1033.71 718.266 c 2
 966.086 706.637 l 1
 946.946 763.605 l 2
 934.37 801.039 934.37 801.039 921.349 834.629 c 0
 910.069 863.727 910.069 863.727 893.982 888.555 c 0
 878.74 912.08 878.74 912.08 858.134 931.47 c 0
 839.683 948.833 839.683 948.833 812.067 962.268 c 0
 782.853 976.48 782.853 976.48 741.144 985.533 c 0
 697.796 994.942 697.796 994.942 638.379 997.327 c 1
 553.618 997.025 553.618 997.025 482.92 967.33 c 0
 410.209 936.79 410.209 936.79 357.428 882.762 c 0
 303.337 827.393 303.337 827.393 272.37 750.51 c 0
 241 672.627 241 672.627 241 581.155 c 0
 241 488.657 241 488.657 269.099 411.186 c 0
 295.997 337.024 295.997 337.024 348.944 283.908 c 0
 400.927 231.76 400.927 231.76 479.96 201.556 c 0
 559.916 171 559.916 171 670 171 c 0
 728.405 171 728.405 171 808.97 182.67 c 0
 871.341 191.704 871.341 191.704 947 208.64 c 1
 947 353 l 1
 631 353 l 1
 631 553 l 1
 1258 553 l 1
 1258 353 l 1
 1155 353 l 1
 1155 80.3208 l 1
 1109.26 64.9436 l 2
 985.056 12.3158 985.056 12.3158 876.498 -12.163 c 0
 766.351 -37 766.351 -37 668 -37 c 0
 601.903 -37 601.903 -37 540.888 -27.0156 c 0
 479.276 -16.9334 479.276 -16.9334 424.961 2.30296 c 0
 369.802 21.8387 369.802 21.8387 321.799 50.7564 c 0
 286.021 72.3095 286.021 72.3095 255 98.8244 c 1
 255 16.0111 l 1
 162.713 167.201 l 1
 100.92 220.158 l 1
EndSplineSet
EndChar

StartChar: H
Encoding: 72 72 43
Width: 1228
Flags: W
LayerCount: 2
Fore
SplineSet
1224 200 m 1
 1224 0 l 1
 694 0 l 1
 694 200 l 1
 854 200 l 1
 854 496 l 1
 373 496 l 1
 373 200 l 1
 533 200 l 1
 533 0 l 1
 6 0 l 1
 6 200 l 1
 166 200 l 1
 166 953 l 1
 6 953 l 1
 6 1153 l 1
 533 1153 l 1
 533 953 l 1
 373 953 l 1
 373 696 l 1
 854 696 l 1
 854 953 l 1
 694 953 l 1
 694 1153 l 1
 1224 1153 l 1
 1224 953 l 1
 1061 953 l 1
 1061 200 l 1
 1224 200 l 1
EndSplineSet
EndChar

StartChar: I
Encoding: 73 73 44
Width: 1228
Flags: W
LayerCount: 2
Fore
SplineSet
1091 200 m 1
 1091 0 l 1
 137 0 l 1
 137 200 l 1
 510 200 l 1
 510 953 l 1
 137 953 l 1
 137 1153 l 1
 1091 1153 l 1
 1091 953 l 1
 718 953 l 1
 718 200 l 1
 1091 200 l 1
EndSplineSet
EndChar

StartChar: J
Encoding: 74 74 45
Width: 1228
Flags: W
LayerCount: 2
Fore
SplineSet
988 953 m 1
 988 420.067 l 2
 988 347.124 988 347.124 981.687 287.619 c 0
 974.783 222.533 974.783 222.533 952.364 170.047 c 0
 928.136 113.324 928.136 113.324 882.829 71.3945 c 0
 837.112 29.0852 837.112 29.0852 764.615 2.0948 c 0
 673.396 -37 673.396 -37 605 -37 c 0
 529.291 -37 529.291 -37 461.69 -24.8095 c 0
 396.226 -13.0044 396.226 -13.0044 344.89 2.83308 c 0
 293.956 18.5466 293.956 18.5466 260.179 33.1833 c 0
 231.908 45.4346 231.908 45.4346 225.666 47.7753 c 2
 223.737 48.4986 l 1
 221.851 49.3267 l 2
 180.999 67.2616 180.999 67.2616 151.179 80.1833 c 0
 119.295 93.9997 119.295 93.9997 107.459 99.918 c 2
 68.4626 119.416 l 1
 66.1093 162.952 l 2
 60.071 274.655 60.071 274.655 56.545 376.403 c 0
 53.0486 477.294 53.0486 477.294 49.0524 584.198 c 2
 46.1439 662 l 1
 248.717 662 l 1
 251.925 590.355 l 2
 254.96 522.59 254.96 522.59 256.479 457.757 c 0
 257.934 395.733 257.934 395.733 261.783 345.198 c 0
 265.3 299.035 265.3 299.035 273.261 267.19 c 0
 275.787 257.085 275.787 257.085 278.632 252.121 c 1
 303.74 231.834 303.74 231.834 335.721 217.193 c 0
 371.098 200.996 371.098 200.996 409.57 191.165 c 0
 449.797 180.885 449.797 180.885 490.904 175.97 c 0
 532.467 171 532.467 171 570 171 c 0
 627.078 171 627.078 171 668.4 183.313 c 0
 702.842 193.577 702.842 193.577 725.772 216.289 c 0
 751.05 241.328 751.05 241.328 765.167 284.545 c 0
 781 333.012 781 333.012 781 405.936 c 2
 781 953 l 1
 360 953 l 1
 360 1153 l 1
 1259 1153 l 1
 1259 953 l 1
 988 953 l 1
EndSplineSet
EndChar

StartChar: K
Encoding: 75 75 46
Width: 1228
Flags: W
LayerCount: 2
Fore
SplineSet
1278 200 m 1
 1278 0 l 1
 919.695 0 l 1
 901.1 47.8165 l 2
 860.979 150.99 860.979 150.99 772.691 313.108 c 1
 681.045 469.514 681.045 469.514 582.025 540.243 c 0
 562.335 554.682 562.335 554.682 541.628 567.491 c 1
 436 466.864 l 1
 436 200 l 1
 617 200 l 1
 617 0 l 1
 50 0 l 1
 50 200 l 1
 229 200 l 1
 229 953 l 1
 50 953 l 1
 50 1153 l 1
 617 1153 l 1
 617 953 l 1
 436 953 l 1
 436 597.593 l 1
 801.344 953 l 1
 699 953 l 1
 699 1153 l 1
 1216 1153 l 1
 1216 953 l 1
 1090.44 953 l 1
 688.86 627.56 l 1
 703.873 619.733 703.873 619.733 715.811 612.267 c 0
 779.123 570.395 779.123 570.395 831.506 520.596 c 1
 941.067 423.703 941.067 423.703 1063.57 200 c 1
 1278 200 l 1
EndSplineSet
EndChar

StartChar: L
Encoding: 76 76 47
Width: 1228
Flags: W
LayerCount: 2
Fore
SplineSet
468 200 m 1
 976.866 200 l 1
 1005.87 632 l 1
 1206.5 632 l 1
 1177.65 0 l 1
 48 0 l 1
 48 200 l 1
 262 200 l 1
 262 953 l 1
 48 953 l 1
 48 1153 l 1
 731 1153 l 1
 731 953 l 1
 468 953 l 1
 468 200 l 1
EndSplineSet
EndChar

StartChar: M
Encoding: 77 77 48
Width: 1228
Flags: W
LayerCount: 2
Fore
SplineSet
382.907 1153 m 1
 611.419 473.432 l 1
 689.847 686.132 689.847 686.132 842.562 1103.76 c 2
 860.57 1153 l 1
 1288 1153 l 1
 1288 953 l 1
 1138.83 953 l 1
 1172.27 200 l 1
 1304 200 l 1
 1304 0 l 1
 751 0 l 1
 751 200 l 1
 978.466 200 l 1
 952.144 991.918 l 1
 694.922 308 l 1
 513.773 308 l 1
 276.827 985.599 l 1
 251.461 200 l 1
 479 200 l 1
 479 0 l 1
 -74 0 l 1
 -74 200 l 1
 57.7264 200 l 1
 91.1708 953 l 1
 -60 953 l 1
 -60 1153 l 1
 382.907 1153 l 1
EndSplineSet
EndChar

StartChar: N
Encoding: 78 78 49
Width: 1228
Flags: W
LayerCount: 2
Fore
SplineSet
1146 953 m 1
 1146 -28 l 1
 874.921 -28 l 1
 347 1014.02 l 1
 347 200 l 1
 589 200 l 1
 589 0 l 1
 -18 0 l 1
 -18 200 l 1
 149 200 l 1
 149 953 l 1
 -18 953 l 1
 -18 1153 l 1
 429.148 1153 l 1
 948 125.452 l 1
 948 953 l 1
 709 953 l 1
 709 1153 l 1
 1285 1153 l 1
 1285 953 l 1
 1146 953 l 1
EndSplineSet
EndChar

StartChar: O
Encoding: 79 79 50
Width: 1228
Flags: W
LayerCount: 2
Fore
SplineSet
816.727 925.631 m 2
 799.513 936.631 l 1
 719.454 982 719.454 982 628 982 c 0
 522.632 982 522.632 982 450.169 950.994 c 0
 377.707 919.989 377.707 919.989 327.613 855.17 c 0
 230 731.604 230 731.604 230 577.766 c 0
 230 414.176 230 414.176 330.871 295.742 c 0
 385.822 231.393 385.822 231.393 454.389 201.197 c 0
 522.956 171 522.956 171 613 171 c 0
 720.203 171 720.203 171 796.948 211.927 c 0
 873.692 252.854 873.692 252.854 929.898 341.836 c 0
 997 446.894 997 446.894 997 565.107 c 0
 997 810.441 997 810.441 816.727 925.631 c 2
863.721 18.5139 m 0
 749.219 -37 749.219 -37 613 -37 c 0
 344.972 -37 344.972 -37 173.267 145.38 c 0
 121.045 201.906 121.045 201.906 85.7668 271.403 c 0
 15 407.599 15 407.599 15 573.823 c 0
 15 730.403 15 730.403 84.3524 877.222 c 1
 200.016 1100.21 200.016 1100.21 444.258 1165.78 c 0
 523.845 1190 523.845 1190 635.5 1190 c 0
 754.039 1190 754.039 1190 867.091 1132.3 c 0
 978.286 1082.29 978.286 1082.29 1056.3 997.355 c 0
 1213 826.692 1213 826.692 1213 575.049 c 0
 1213 327.599 1213 327.599 1054.76 153.24 c 0
 977.741 67.2335 977.741 67.2335 863.721 18.5139 c 0
EndSplineSet
EndChar

StartChar: P
Encoding: 80 80 51
Width: 1228
Flags: W
LayerCount: 2
Fore
SplineSet
845.314 922.482 m 2
 833.905 927.577 l 1
 764.453 953 764.453 953 613 953 c 2
 454 953 l 1
 454 598 l 1
 650.241 598 l 1
 691.879 599.649 691.879 599.649 749.911 603.575 c 0
 835.472 609.267 835.472 609.267 879.31 638.328 c 0
 923.148 667.388 923.148 667.388 941.341 728.113 c 0
 948 748.879 948 748.879 948 775.087 c 0
 948 800.297 948 800.297 939.637 823.412 c 0
 931.193 846.754 931.193 846.754 916.508 865.545 c 0
 888.586 903.154 888.586 903.154 845.314 922.482 c 2
769 200 m 1
 769 0 l 1
 74 0 l 1
 74 200 l 1
 247 200 l 1
 247 953 l 1
 74 953 l 1
 74 1153 l 1
 613 1153 l 2
 737.621 1153 737.621 1153 811.628 1139.84 c 0
 890.759 1125.77 890.759 1125.77 946.885 1094.86 c 0
 1052.09 1043.71 1052.09 1043.71 1108.51 952.361 c 0
 1164 862.493 1164 862.493 1164 768.161 c 0
 1164 674.86 1164 674.86 1124.13 608.013 c 0
 1094.07 556.67 1094.07 556.67 1064.77 523.469 c 0
 1035.47 490.269 1035.47 490.269 997.585 470.314 c 0
 898.072 418.679 898.072 418.679 828.038 410.344 c 0
 731.603 398 731.603 398 523 398 c 2
 454 398 l 1
 454 200 l 1
 769 200 l 1
EndSplineSet
EndChar

StartChar: Q
Encoding: 81 81 52
Width: 1228
Flags: W
LayerCount: 2
Fore
SplineSet
817.727 925.631 m 2
 800.59 936.581 l 1
 720.406 982 720.406 982 628 982 c 0
 523.174 982 523.174 982 450.955 951.013 c 0
 378.736 920.026 378.736 920.026 328.613 855.17 c 0
 231 731.604 231 731.604 231 577.766 c 0
 231 414.322 231 414.322 332.864 295.751 c 0
 387.524 231.243 387.524 231.243 455.706 201.122 c 0
 523.888 171 523.888 171 614 171 c 0
 721.138 171 721.138 171 798.249 212.006 c 0
 875.361 253.011 875.361 253.011 931.854 341.768 c 0
 998 446.713 998 446.713 998 565.107 c 0
 998 810.441 998 810.441 817.727 925.631 c 2
1032.32 -30.3537 m 2
 1088.06 4.38929 l 1
 1215.71 -150.335 l 1
 1146.6 -196.404 l 2
 1031.71 -273 1031.71 -273 926 -273 c 0
 858.713 -273 858.713 -273 802.426 -250.747 c 0
 757.93 -233.156 757.93 -233.156 715.269 -213.421 c 1
 635.959 -179 635.959 -179 563.5 -179 c 0
 494.698 -179 494.698 -179 371.858 -248.318 c 2
 308.505 -284.068 l 1
 211.246 -123.379 l 1
 269.42 -83.259 l 2
 320.089 -48.3149 320.089 -48.3149 348.645 -16.448 c 0
 366.174 3.11343 366.174 3.11343 377.943 16.175 c 1
 220.857 82.6714 220.857 82.6714 129.733 208.185 c 1
 16 368.355 16 368.355 16 578.183 c 0
 16 860.015 16 860.015 194.907 1027.69 c 1
 373.392 1190 373.392 1190 612 1190 c 0
 780.74 1190 780.74 1190 917.61 1103.37 c 0
 1053.73 1027.4 1053.73 1027.4 1135.08 883.939 c 2
 1189.35 788.222 l 1
 1177.61 788.222 l 1
 1214 684.248 1214 684.248 1214 564.23 c 0
 1214 390.236 1214 390.236 1129.76 237.753 c 1
 1081.81 159.238 1081.81 159.238 1011.16 96.9291 c 1
 911.659 14.7874 911.659 14.7874 767.09 -16.2569 c 1
 828.464 -41.5346 828.464 -41.5346 850.404 -49.4334 c 0
 875.053 -58.3076 875.053 -58.3076 888.81 -64.2862 c 1
 902.786 -67 902.786 -67 937 -67 c 0
 973.536 -67 973.536 -67 1032.32 -30.3537 c 2
EndSplineSet
EndChar

StartChar: R
Encoding: 82 82 53
Width: 1228
Flags: W
LayerCount: 2
Fore
SplineSet
400 677 m 1
 592 677 l 2
 750 677 750 677 811.5 712.385 c 0
 873 747.769 873 747.769 873 822.47 c 0
 873 881.832 873 881.832 845.679 909.159 c 0
 818.358 936.485 818.358 936.485 751.839 946.983 c 0
 710.441 953 710.441 953 613 953 c 2
 400 953 l 1
 400 677 l 1
1255 200 m 1
 1255 0 l 1
 906.594 0 l 1
 886.254 42.8207 l 2
 831.639 140.827 831.639 140.827 679.742 336.355 c 0
 649.76 373.813 649.76 373.813 606.469 417.936 c 0
 570.473 454.625 570.473 454.625 556.423 464.831 c 1
 535.627 476 535.627 476 504 476 c 2
 400 476 l 1
 400 200 l 1
 591 200 l 1
 591 0 l 1
 18 0 l 1
 18 200 l 1
 194 200 l 1
 194 953 l 1
 18 953 l 1
 18 1153 l 1
 617 1153 l 2
 788.672 1153 788.672 1153 870.699 1122.09 c 0
 905.008 1108.89 905.008 1108.89 937.428 1086.85 c 0
 1011.18 1043.17 1011.18 1043.17 1049.09 976.954 c 0
 1087 910.734 1087 910.734 1087 829.523 c 0
 1087 712.613 1087 712.613 1011.18 631.965 c 0
 935.362 551.317 935.362 551.317 797.929 518.069 c 1
 897 407.947 897 407.947 1044.36 200 c 1
 1255 200 l 1
EndSplineSet
EndChar

StartChar: S
Encoding: 83 83 54
Width: 1228
Flags: W
LayerCount: 2
Fore
SplineSet
209.715 637.576 m 1
 170.005 685.639 l 1
 136 742.046 136 742.046 136 824.88 c 0
 136 973.514 136 973.514 277.203 1082.67 c 0
 416.127 1190.07 416.127 1190.07 628.214 1180.91 c 0
 783.676 1173.19 783.676 1173.19 892.63 1114.25 c 1
 876.942 1177 l 1
 1115.87 1177 l 1
 1099.79 1088.58 l 2
 1089 1029.22 1089 1029.22 1089 958 c 0
 1089 883.914 1089 883.914 1103.58 746.934 c 2
 1110.99 677.309 l 1
 1042.03 665.141 l 2
 1025.88 662.292 1025.88 662.292 1014.41 660.826 c 2
 920.111 642.863 l 1
 907.936 719.186 l 2
 885.491 859.886 885.491 859.886 818.426 920.943 c 0
 751.361 982 751.361 982 624 982 c 0
 485.066 982 485.066 982 413.033 920.036 c 0
 350.852 866.547 350.852 866.547 350.499 802.339 c 0
 350.331 771.722 350.331 771.722 363.36 750.321 c 0
 376.389 728.919 376.389 728.919 407.56 709.787 c 0
 479.727 665.496 479.727 665.496 630.397 654.883 c 0
 747.064 645.923 747.064 645.923 820.424 632.664 c 0
 903.411 617.664 903.411 617.664 971.785 578.803 c 1
 1044.72 536.077 1044.72 536.077 1082.86 472.75 c 0
 1121 409.424 1121 409.424 1121 332.537 c 0
 1121 248.122 1121 248.122 1079.08 177.914 c 0
 1037.16 107.705 1037.16 107.705 957.52 58.9182 c 0
 823.001 -37 823.001 -37 632 -37 c 0
 468.8 -37 468.8 -37 349.103 41.1277 c 1
 349 36.3297 349 36.3297 349 32 c 2
 349 -43 l 1
 130.579 -43 l 1
 143.872 43.4043 l 2
 155 115.737 155 115.737 155 176 c 0
 155 238.174 155 238.174 139.391 390.348 c 2
 130.914 473 l 1
 320.515 473 l 1
 334.038 415.042 l 2
 358.229 311.367 358.229 311.367 382.017 281.283 c 0
 428.285 221.796 428.285 221.796 477.496 195.835 c 0
 524.57 171 524.57 171 614 171 c 0
 708.521 171 708.521 171 765.886 189.551 c 0
 821.438 207.517 821.438 207.517 852.355 233.154 c 0
 905 276.579 905 276.579 905 341.653 c 0
 905 370.694 905 370.694 893.426 393.159 c 0
 881.851 415.624 881.851 415.624 854.205 435.505 c 0
 826.558 455.386 826.558 455.386 775.894 469.32 c 0
 725.23 483.254 725.23 483.254 651.585 490.951 c 0
 493.361 505.968 493.361 505.968 384.118 540.756 c 0
 274.875 575.544 274.875 575.544 209.715 637.576 c 1
EndSplineSet
EndChar

StartChar: T
Encoding: 84 84 55
Width: 1228
Flags: W
LayerCount: 2
Fore
SplineSet
54.2968 1153 m 1
 1175.7 1153 l 1
 1203.45 536 l 1
 1001.7 536 l 1
 974.699 953 l 1
 719 953 l 1
 719 200 l 1
 976 200 l 1
 976 0 l 1
 252 0 l 1
 252 200 l 1
 511 200 l 1
 511 953 l 1
 253.965 953 l 1
 224.965 536 l 1
 26.5516 536 l 1
 54.2968 1153 l 1
EndSplineSet
EndChar

StartChar: U
Encoding: 85 85 56
Width: 1228
Flags: W
LayerCount: 2
Fore
SplineSet
899.103 38.0808 m 1
 848.636 10.7795 l 1
 748.841 -37.1334 748.841 -37.1334 644.121 -35.9949 c 0
 467.268 -33.7698 467.268 -33.7698 370.678 16.3137 c 0
 263.169 63.6548 263.169 63.6548 213.107 123.972 c 0
 172.52 172.446 172.52 172.446 155.118 233.52 c 0
 129 327.323 129 327.323 129 458.232 c 2
 129 953 l 1
 -26 953 l 1
 -26 1153 l 1
 553 1153 l 1
 553 953 l 1
 336 953 l 1
 336 422.935 l 2
 336 322.826 336 322.826 371.019 262.486 c 1
 402.437 218.457 402.437 218.457 461.663 195.729 c 0
 520.888 173 520.888 173 619.5 173 c 0
 718.669 173 718.669 173 774.766 195.573 c 0
 830.863 218.146 830.863 218.146 857.287 261.291 c 2
 865.487 274.678 l 1
 872.633 288.714 872.633 288.714 878.358 306.193 c 1
 882.541 323.233 l 2
 895 373.987 895 373.987 895 471.581 c 2
 895 953 l 1
 677 953 l 1
 677 1153 l 1
 1256 1153 l 1
 1256 953 l 1
 1102 953 l 1
 1102 459.851 l 2
 1102 229.439 1102 229.439 1015.88 126.679 c 0
 974.465 77.2056 974.465 77.2056 899.103 38.0808 c 1
EndSplineSet
EndChar

StartChar: V
Encoding: 86 86 57
Width: 1228
Flags: W
LayerCount: 2
Fore
SplineSet
1126.61 953 m 1
 704.607 0 l 1
 533.218 0 l 1
 115.218 953 l 1
 -64 953 l 1
 -64 1153 l 1
 494 1153 l 1
 494 953 l 1
 331.324 953 l 1
 622.335 198.716 l 1
 916.279 953 l 1
 738 953 l 1
 738 1153 l 1
 1293 1153 l 1
 1293 953 l 1
 1126.61 953 l 1
EndSplineSet
EndChar

StartChar: W
Encoding: 87 87 58
Width: 1228
Flags: W
LayerCount: 2
Fore
SplineSet
238.636 953 m 1
 324.599 306.708 l 1
 419.907 574.15 419.907 574.15 529.303 883.039 c 2
 546.998 933 l 1
 689.504 933 l 1
 904.613 308.021 l 1
 994.785 953 l 1
 784 953 l 1
 784 1153 l 1
 1301 1153 l 1
 1301 953 l 1
 1194.91 953 l 1
 1034.91 0 l 1
 849.759 0 l 1
 611.026 683.27 l 1
 369 0 l 1
 183.509 0 l 1
 33.5091 953 l 1
 -73 953 l 1
 -73 1153 l 1
 448 1153 l 1
 448 953 l 1
 238.636 953 l 1
EndSplineSet
EndChar

StartChar: X
Encoding: 88 88 59
Width: 1228
Flags: W
LayerCount: 2
Fore
SplineSet
1234 200 m 1
 1234 0 l 1
 703 0 l 1
 703 200 l 1
 846.53 200 l 1
 613.908 519.165 l 1
 372.693 200 l 1
 549 200 l 1
 549 0 l 1
 -6 0 l 1
 -6 200 l 1
 127.728 200 l 1
 492.85 601.873 l 1
 172.8 953 l 1
 33 953 l 1
 33 1153 l 1
 549 1153 l 1
 549 953 l 1
 423.346 953 l 1
 615.865 694.426 l 1
 814.03 953 l 1
 703 953 l 1
 703 1153 l 1
 1193 1153 l 1
 1193 953 l 1
 1059.15 953 l 1
 738.908 602.366 l 1
 1098.63 200 l 1
 1234 200 l 1
EndSplineSet
EndChar

StartChar: Y
Encoding: 89 89 60
Width: 1228
Flags: W
LayerCount: 2
Fore
SplineSet
972 200 m 1
 972 0 l 1
 260 0 l 1
 260 200 l 1
 513 200 l 1
 513 451.909 l 1
 149.702 953 l 1
 -7 953 l 1
 -7 1153 l 1
 511 1153 l 1
 511 953 l 1
 387.824 953 l 1
 622.386 569.692 l 1
 852.498 953 l 1
 723 953 l 1
 723 1153 l 1
 1237 1153 l 1
 1237 953 l 1
 1080.52 953 l 1
 721 452.06 l 1
 721 200 l 1
 972 200 l 1
EndSplineSet
EndChar

StartChar: Z
Encoding: 90 90 61
Width: 1228
Flags: W
LayerCount: 2
Fore
SplineSet
1127 0 m 1
 103 0 l 1
 103 144.834 l 1
 791.648 953 l 1
 319 953 l 1
 319 641 l 1
 118 641 l 1
 118 1153 l 1
 1077 1153 l 1
 1077 1019.43 l 1
 380.172 200 l 1
 926 200 l 1
 926 547 l 1
 1127 547 l 1
 1127 0 l 1
EndSplineSet
EndChar

StartChar: bracketleft
Encoding: 91 91 62
Width: 1228
Flags: W
LayerCount: 2
Fore
SplineSet
1053 -268 m 1
 573 -268 l 1
 573 1414 l 1
 1053 1414 l 1
 1053 1207 l 1
 781 1207 l 1
 781 -60 l 1
 1053 -60 l 1
 1053 -268 l 1
EndSplineSet
EndChar

StartChar: backslash
Encoding: 92 92 63
Width: 1228
Flags: W
LayerCount: 2
Fore
SplineSet
939.837 -370.536 m 1
 112.702 1450.46 l 1
 299.203 1528.17 l 1
 1124.23 -286.023 l 1
 939.837 -370.536 l 1
EndSplineSet
EndChar

StartChar: bracketright
Encoding: 93 93 64
Width: 1228
Flags: W
LayerCount: 2
Fore
SplineSet
657 -268 m 1
 177 -268 l 1
 177 -60 l 1
 450 -60 l 1
 450 1207 l 1
 177 1207 l 1
 177 1414 l 1
 657 1414 l 1
 657 -268 l 1
EndSplineSet
EndChar

StartChar: asciicircum
Encoding: 94 94 65
Width: 1228
Flags: W
LayerCount: 2
Fore
SplineSet
44.3799 241 m 1
 503.177 1227 l 1
 724.823 1227 l 1
 1183.62 241 l 1
 936.262 241 l 1
 613.677 931.35 l 1
 529.366 750.476 529.366 750.476 314.084 284.542 c 2
 293.965 241 l 1
 44.3799 241 l 1
EndSplineSet
EndChar

StartChar: underscore
Encoding: 95 95 66
Width: 1228
Flags: W
LayerCount: 2
Fore
SplineSet
1399 -331 m 1
 -171 -331 l 1
 -171 -124 l 1
 1399 -124 l 1
 1399 -331 l 1
EndSplineSet
EndChar

StartChar: grave
Encoding: 96 96 67
Width: 1228
Flags: W
LayerCount: 2
Fore
SplineSet
605.426 1009.85 m 2
 545.032 1061.19 545.032 1061.19 489.395 1110.24 c 0
 432.106 1160.77 432.106 1160.77 376.475 1209.68 c 2
 227.127 1341 l 1
 615.697 1341 l 1
 638.019 1308.17 l 2
 671.594 1258.8 671.594 1258.8 705.613 1208.53 c 0
 739.618 1158.29 739.618 1158.29 773.019 1109.17 c 2
 852.697 992 l 1
 626.432 992 l 1
 605.426 1009.85 l 2
EndSplineSet
EndChar

StartChar: a
Encoding: 97 97 68
Width: 1228
Flags: W
LayerCount: 2
Fore
SplineSet
806 325.408 m 1
 806 411.601 l 1
 702.975 423 702.975 423 614 423 c 0
 499.793 423 499.793 423 447.92 414.617 c 0
 396.903 406.373 396.903 406.373 362.467 394.474 c 0
 313.109 376.406 313.109 376.406 289.429 353.592 c 0
 265.749 330.778 265.749 330.778 259 297.441 c 1
 259 287.615 l 2
 259 243.493 259 243.493 310.127 210 c 0
 366.607 173 366.607 173 440 173 c 0
 619.866 173 619.866 173 806 325.408 c 1
120.325 806.185 m 1
 187.861 833.521 l 2
 411.401 924 411.401 924 595 924 c 0
 734.413 924 734.413 924 834.268 876.134 c 0
 934.122 836.969 934.122 836.969 980.375 754.786 c 0
 1000.03 718.329 1000.03 718.329 1005.9 680.416 c 0
 1010.46 651.013 1010.46 651.013 1011.49 643.868 c 0
 1013 633.338 1013 633.338 1013 620.742 c 2
 1013 201 l 1
 1206 201 l 1
 1206 0 l 1
 806 0 l 1
 806 105.063 l 1
 615.017 -31 615.017 -31 442 -31 c 0
 270.405 -31 270.405 -31 156.325 64.7133 c 1
 44.0133 162.157 44.0133 162.157 43.0036 286.987 c 1
 38.6977 390.826 38.6977 390.826 131.781 485.663 c 0
 270.238 626 270.238 626 552 626 c 0
 675.929 626 675.929 626 806 606.321 c 1
 806 614.919 l 1
 808.004 674.956 808.004 674.956 782.29 701.769 c 0
 756.577 727.578 756.577 727.578 693.731 737.412 c 0
 647.585 744.652 647.585 744.652 592.41 745.33 c 1
 445.659 745.191 445.659 745.191 265.073 691.571 c 2
 196.921 671.335 l 1
 167.288 719.161 l 2
 159.435 731.836 159.435 731.836 145.693 757.959 c 2
 120.325 806.185 l 1
EndSplineSet
EndChar

StartChar: b
Encoding: 98 98 69
Width: 1228
Flags: W
LayerCount: 2
Fore
SplineSet
340 434.651 m 0
 340 333.285 340 333.285 434.371 258.673 c 1
 529.48 186 529.48 186 666.5 186 c 0
 802.678 186 802.678 186 891.48 258.142 c 0
 982 331.68 982 331.68 982 433.5 c 0
 982 535.246 982 535.246 891.096 608.764 c 0
 801.778 681 801.778 681 666 681 c 0
 529.066 681 529.066 681 434.533 608.451 c 0
 340 535.903 340 535.903 340 434.651 c 0
-69 1287.87 m 1
 0.694178 1292.81 l 2
 142.099 1302.85 142.099 1302.85 258.482 1309.86 c 2
 338 1314.66 l 1
 338 779.383 l 1
 363.003 798.032 363.003 798.032 390.516 813.961 c 0
 520.649 888.814 520.649 888.814 647.299 889.997 c 0
 770.062 891.143 770.062 891.143 868.544 848.936 c 0
 965.545 813.477 965.545 813.477 1039.68 751.229 c 0
 1202.23 614.559 1202.23 614.559 1198 428.658 c 1
 1197.59 248.983 1197.59 248.983 1052.31 119.115 c 0
 896.199 -21 896.199 -21 672 -21 c 0
 471.465 -21 471.465 -21 344.927 89.2806 c 0
 341.314 92.3725 341.314 92.3725 338 95.2437 c 1
 338 0 l 1
 -43 0 l 1
 -43 201 l 1
 131 201 l 1
 131 1099.16 l 1
 -69 1089.16 l 1
 -69 1287.87 l 1
EndSplineSet
EndChar

StartChar: c
Encoding: 99 99 70
Width: 1228
Flags: W
LayerCount: 2
Fore
SplineSet
1148 835.857 m 0
 1144.11 809.182 1144.11 809.182 1142.21 796.177 c 0
 1129 705.545 1129 705.545 1129 651.5 c 0
 1129 594.342 1129 594.342 1132.85 532.678 c 2
 1137.06 465.352 l 1
 951.852 433.901 l 1
 933.048 497.838 l 2
 926.982 518.46 926.982 518.46 924.834 534.495 c 1
 911.29 601.2 911.29 601.2 863.395 640.546 c 0
 808.525 685.62 808.525 685.62 732.789 699.173 c 2
 730.794 699.53 l 1
 728.822 699.994 l 2
 703.299 706 703.299 706 626 706 c 0
 555.223 706 555.223 706 484.25 682.58 c 0
 415.663 659.947 415.663 659.947 374.826 623.458 c 0
 286 542.296 286 542.296 286 443.448 c 0
 286 342.796 286 342.796 369.195 263.722 c 0
 408.186 226.053 408.186 226.053 476.944 201.79 c 0
 547.193 177 547.193 177 640 177 c 0
 812.018 177 812.018 177 1049.95 338.105 c 2
 1110.09 378.822 l 1
 1225.34 219.858 l 1
 1165.58 175.687 l 2
 1093.15 122.151 1093.15 122.151 1050.48 97.5361 c 0
 1010.39 74.4073 1010.39 74.4073 973.914 55.6186 c 0
 812.825 -30.7357 812.825 -30.7357 629.724 -30.9998 c 1
 391.438 -34.5914 391.438 -34.5914 226.249 104.926 c 0
 63.4592 243.371 63.4592 243.371 69.9999 438.493 c 1
 70.7675 613.308 70.7675 613.308 206.549 752.089 c 0
 275.966 822.829 275.966 822.829 389.199 864.825 c 0
 500.46 913 500.46 913 637 913 c 0
 809.12 913 809.12 913 937.129 833.396 c 1
 940.337 891.143 l 1
 1153.88 876.158 l 1
 1151.89 862.531 1151.89 862.531 1148 835.857 c 0
EndSplineSet
EndChar

StartChar: d
Encoding: 100 100 71
Width: 1228
Flags: W
LayerCount: 2
Fore
SplineSet
693.844 658.347 m 0
 632.819 681 632.819 681 557 681 c 0
 430.001 681 430.001 681 335.73 612.08 c 0
 243 544.287 243 544.287 243 435.802 c 0
 243 326.568 243 326.568 334.916 256.336 c 0
 426.968 186 426.968 186 557.5 186 c 0
 688.125 186 688.125 186 780.7 256.424 c 0
 873 326.64 873 326.64 873 430.047 c 0
 873 523.276 873 523.276 792.553 599.651 c 0
 755.053 635.626 755.053 635.626 693.844 658.347 c 0
525.308 1186.21 m 2
 518.513 1260.95 l 1
 1085 1312.07 l 1
 1085 201 l 1
 1269 201 l 1
 1269 0 l 1
 877 0 l 1
 877 89.6172 l 1
 852.154 70.2732 852.154 70.2732 824.586 53.6872 c 0
 699.716 -21 699.716 -21 557 -21 c 0
 335.768 -21 335.768 -21 181.268 111.212 c 0
 27 243.225 27 243.225 27 429.143 c 0
 27 561.423 27 561.423 105.139 666.214 c 0
 182.136 769.475 182.136 769.475 302.423 824.525 c 0
 422.078 889 422.078 889 553 889 c 0
 708.826 889 708.826 889 846.284 796.782 c 0
 861.851 786.339 861.851 786.339 877 774.514 c 1
 877 1088.68 l 1
 531.577 1064.99 l 1
 527.129 1140.6 l 2
 526 1159.8 526 1159.8 526 1172 c 0
 526 1178.6 526 1178.6 525.308 1186.21 c 2
EndSplineSet
EndChar

StartChar: e
Encoding: 101 101 72
Width: 1228
Flags: W
LayerCount: 2
Fore
SplineSet
306.355 562 m 1
 953.264 562 l 1
 948.559 574.96 948.559 574.96 941.405 587.433 c 0
 921.412 622.295 921.412 622.295 881.697 649.439 c 0
 841.947 676.606 841.947 676.606 781.687 693.246 c 0
 721.014 710 721.014 710 637 710 c 0
 559.172 710 559.172 710 498.366 694.185 c 0
 437.563 678.371 437.563 678.371 393.956 651.575 c 0
 350.228 624.705 350.228 624.705 322.875 587.585 c 0
 313.834 575.317 313.834 575.317 306.355 562 c 1
1179 489.523 m 2
 1179 361 l 1
 298.022 361 l 1
 304.115 341.688 304.115 341.688 313.512 323.153 c 0
 335.371 280.038 335.371 280.038 378.147 246.864 c 0
 420.299 214.174 420.299 214.174 487.095 193.669 c 0
 554.423 173 554.423 173 652 173 c 0
 732.054 173 732.054 173 835.565 203.872 c 0
 943.728 236.131 943.728 236.131 1080.22 302.458 c 2
 1141.29 332.132 l 1
 1159.08 303.219 1159.08 303.219 1176.87 274.307 c 0
 1186.3 258.984 1186.3 258.984 1194.04 244.101 c 0
 1199.29 234.016 1199.29 234.016 1205.87 223.307 c 2
 1247.08 156.352 l 1
 1178.26 118.346 l 2
 1107.32 79.1687 1107.32 79.1687 1037.63 50.9746 c 0
 967.99 22.7999 967.99 22.7999 901.185 4.62937 c 0
 834.026 -13.6375 834.026 -13.6375 771.248 -22.2966 c 0
 708.148 -31 708.148 -31 650 -31 c 0
 529.639 -31 529.639 -31 426.434 3.96606 c 0
 320.414 34.5594 320.414 34.5594 242.49 93.9414 c 0
 163.751 153.946 163.751 153.946 119.207 241.302 c 0
 75 327.999 75 327.999 75 437.515 c 0
 75 525.962 75 525.962 112.446 609.378 c 0
 150.003 693.04 150.003 693.04 220.542 759.028 c 0
 291.681 825.578 291.681 825.578 392.348 865.494 c 0
 494.392 913 494.392 913 619 913 c 0
 725.254 913 725.254 913 823.999 882.701 c 0
 925.132 855.57 925.132 855.57 1002.98 802.744 c 0
 1082.73 748.635 1082.73 748.635 1130.27 670.166 c 0
 1179 589.75 1179 589.75 1179 489.523 c 2
EndSplineSet
EndChar

StartChar: f
Encoding: 102 102 73
Width: 1228
Flags: W
LayerCount: 2
Fore
SplineSet
1022 201 m 1
 1022 0 l 1
 128 0 l 1
 128 201 l 1
 353 201 l 1
 353 654 l 1
 128 654 l 1
 128 855 l 1
 353.105 855 l 1
 353.467 969.968 353.467 969.968 355.137 997.537 c 0
 357.66 1039.17 357.66 1039.17 370.134 1080.95 c 0
 382.914 1123.77 382.914 1123.77 405.977 1161.56 c 0
 432.145 1204.45 432.145 1204.45 475.284 1234.65 c 0
 521.932 1266.64 521.932 1266.64 588.791 1282.88 c 0
 651.029 1298 651.029 1298 735 1298 c 0
 774.03 1298 774.03 1298 812.603 1295.89 c 0
 850.638 1293.8 850.638 1293.8 888.659 1290.16 c 0
 926.172 1286.56 926.172 1286.56 963.677 1281.94 c 0
 1000.62 1277.38 1000.62 1277.38 1038.04 1272.32 c 2
 1146.42 1257.68 l 1
 1093.72 1161.86 l 2
 1085.57 1147.04 1085.57 1147.04 1083.07 1140.1 c 0
 1078.28 1126.8 1078.28 1126.8 1073 1113.08 c 2
 1050.12 1053.57 l 1
 1036.74 1056.36 1036.74 1056.36 987.705 1066.58 c 0
 919.268 1080.84 919.268 1080.84 853.897 1087.94 c 0
 788.173 1095.08 788.173 1095.08 724.357 1098 c 1
 672.417 1097.81 672.417 1097.81 637.368 1088.18 c 0
 608.221 1080.17 608.221 1080.17 591.547 1065.76 c 0
 577.04 1053.22 577.04 1053.22 570.173 1033.89 c 0
 561 1008.08 561 1008.08 561 970 c 2
 561 855 l 1
 1022 855 l 1
 1022 654 l 1
 561 654 l 1
 561 201 l 1
 1022 201 l 1
EndSplineSet
EndChar

StartChar: g
Encoding: 103 103 74
Width: 1228
Flags: W
LayerCount: 2
Fore
SplineSet
324.567 594.541 m 2
 301.827 573.008 l 1
 234 494.943 234 494.943 234 384 c 0
 234 255.068 234 255.068 322.033 167.033 c 0
 410.064 79 410.064 79 537 79 c 0
 662.698 79 662.698 79 745.008 166.033 c 0
 829 254.844 829 254.844 829 385 c 0
 829 513.416 829 513.416 743.592 596.85 c 0
 657.449 681 657.449 681 537 681 c 0
 415.877 681 415.877 681 324.567 594.541 c 2
93.1684 211.696 m 1
 34.079 331.319 l 1
 17 387.38 17 387.38 17 446.369 c 0
 17 564.778 17 564.778 90.2573 666.632 c 0
 162.502 767.08 162.502 767.08 279.994 823.516 c 0
 397.513 889 397.513 889 531 889 c 0
 618.628 889 618.628 889 668.066 871.863 c 0
 709.985 857.332 709.985 857.332 750.672 837.265 c 0
 789.491 818.12 789.491 818.12 829 788.197 c 1
 829 881 l 1
 1213 881 l 1
 1213 679 l 1
 1038 679 l 1
 1038 100.977 l 2
 1038 9.01127 1038 9.01127 1012.91 -55.9162 c 0
 985.631 -140.939 985.631 -140.939 919.939 -204.105 c 0
 854.047 -267.387 854.047 -267.387 747.857 -294.693 c 0
 641.666 -322 641.666 -322 492 -322 c 2
 306 -322 l 1
 306 -120 l 1
 429.193 -120 l 1
 520.606 -118.034 l 2
 561.102 -116.304 561.102 -116.304 593.622 -113.585 c 1
 268.022 63.2392 l 2
 159.948 121.931 159.948 121.931 93.1684 211.696 c 1
547.877 21.1892 m 1
 672.786 -103.72 l 1
 709.255 -97.4079 709.255 -97.4079 721.008 -91.7577 c 0
 745.31 -77.8212 745.31 -77.8212 760.51 -66.6208 c 0
 773.003 -57.4155 773.003 -57.4155 784.95 -44.167 c 0
 810.186 -15.3687 810.186 -15.3687 818.365 20.6216 c 0
 827.979 62.9236 827.979 62.9236 828.916 121.501 c 1
 812.249 109.097 812.249 109.097 797.582 100.276 c 2
 793.904 97.7984 l 2
 685.641 24.8625 685.641 24.8625 547.877 21.1892 c 1
EndSplineSet
EndChar

StartChar: h
Encoding: 104 104 75
Width: 1228
Flags: W
LayerCount: 2
Fore
SplineSet
-5 201 m 1
 177 201 l 1
 177 1098.09 l 1
 122.954 1093.4 122.954 1093.4 56.8829 1086.42 c 2
 -18.4092 1078.46 l 1
 -37.9151 1281.32 l 1
 37.6591 1287.73 l 2
 202.689 1301.74 202.689 1301.74 303.763 1308.82 c 2
 384 1314.43 l 1
 384 805.672 l 1
 404.389 819.578 404.389 819.578 414.891 825.996 c 2
 952.759 1154.69 l 1
 711.054 912.988 l 1
 714.5 913 l 2
 874.818 913 874.818 913 975.8 816.343 c 0
 1076 720.92 1076 720.92 1076 576.824 c 2
 1076 201 l 1
 1258 201 l 1
 1258 0 l 1
 684 0 l 1
 684 201 l 1
 868 201 l 1
 868 544.863 l 2
 868 623.886 868 623.886 821.633 668.145 c 0
 801.02 687.883 801.02 687.883 775.08 696.941 c 0
 749.141 706 749.141 706 710 706 c 0
 573.99 706 573.99 706 384 591.866 c 1
 384 201 l 1
 556 201 l 1
 556 0 l 1
 -5 0 l 1
 -5 201 l 1
EndSplineSet
EndChar

StartChar: i
Encoding: 105 105 76
Width: 1228
Flags: W
LayerCount: 2
Fore
SplineSet
723 1343 m 1
 723 986 l 1
 467 986 l 1
 467 1343 l 1
 723 1343 l 1
1097 201 m 1
 1097 0 l 1
 134 0 l 1
 134 201 l 1
 514 201 l 1
 514 679 l 1
 196 679 l 1
 196 881 l 1
 723 881 l 1
 723 201 l 1
 1097 201 l 1
EndSplineSet
EndChar

StartChar: j
Encoding: 106 106 77
Width: 1228
Flags: W
LayerCount: 2
Fore
SplineSet
823 1342 m 1
 823 985 l 1
 567 985 l 1
 567 1342 l 1
 823 1342 l 1
107.502 -60.3549 m 1
 177.978 -75.7217 l 2
 303.081 -103 303.081 -103 396.5 -103 c 0
 486.674 -103 486.674 -103 530.852 -89.3448 c 0
 571.936 -76.6459 571.936 -76.6459 595.643 -57.3423 c 0
 618.299 -38.8943 618.299 -38.8943 629.602 -16.5929 c 0
 643.583 10.9918 643.583 10.9918 650.555 44.6954 c 0
 658 73.7998 658 73.7998 658 144.418 c 2
 658 679 l 1
 106 679 l 1
 106 881 l 1
 866 881 l 1
 866 108.54 l 2
 866 -116.203 866 -116.203 726.708 -216.87 c 0
 619.726 -305.409 619.726 -305.409 410.825 -310 c 1
 305.787 -310 305.787 -310 133.721 -276.628 c 2
 55.3711 -261.433 l 1
 107.502 -60.3549 l 1
EndSplineSet
EndChar

StartChar: k
Encoding: 107 107 78
Width: 1228
Flags: W
LayerCount: 2
Fore
SplineSet
947.386 679 m 1
 642.634 501.652 l 1
 902.312 313.688 902.312 313.688 1023.99 201 c 1
 1232 201 l 1
 1232 0 l 1
 683 0 l 1
 683 201 l 1
 758 201 l 1
 529.146 430.789 529.146 430.789 482.461 474.173 c 1
 414 421.902 l 1
 414 0 l 1
 26 0 l 1
 26 201 l 1
 206 201 l 1
 206 1096.08 l 1
 150.963 1091.37 150.963 1091.37 81.5201 1084.38 c 2
 6.55569 1076.82 l 1
 -12.9126 1279.29 l 1
 414 1315.66 l 1
 414 516.264 l 1
 627.983 679 l 1
 598 679 l 1
 598 881 l 1
 1150 881 l 1
 1150 679 l 1
 947.386 679 l 1
EndSplineSet
EndChar

StartChar: l
Encoding: 108 108 79
Width: 1228
Flags: W
LayerCount: 2
Fore
SplineSet
164.431 1039.27 m 1
 136.516 1238.66 l 1
 717 1275.98 l 1
 717 201 l 1
 1094 201 l 1
 1094 0 l 1
 133 0 l 1
 133 201 l 1
 509 201 l 1
 509 1063.53 l 1
 164.431 1039.27 l 1
EndSplineSet
EndChar

StartChar: m
Encoding: 109 109 80
Width: 1228
Flags: W
LayerCount: 2
Fore
SplineSet
422.344 890.998 m 1
 568.069 890.58 568.069 890.58 647.825 796.059 c 1
 759.118 892 759.118 892 876 892 c 0
 973.973 892 973.973 892 1047.14 847.609 c 0
 1120.31 811.578 1120.31 811.578 1152.24 742.646 c 0
 1166.1 712.646 1166.1 712.646 1170.55 670.608 c 0
 1175 628.57 1175 628.57 1175 556.525 c 2
 1175 201 l 1
 1299 201 l 1
 1299 0 l 1
 968 0 l 1
 968 693 l 2
 968 723.498 968 723.498 965.385 750.546 c 0
 962.77 777.594 962.77 777.594 960.142 790.408 c 0
 957.514 803.223 957.514 803.223 955.698 806.935 c 0
 944.767 826.668 944.767 826.668 927.868 836.043 c 0
 910.968 845.417 910.968 845.417 877.595 846.992 c 1
 803.329 845.709 803.329 845.709 724 737.307 c 1
 724 201 l 1
 858 201 l 1
 858 0 l 1
 516 0 l 1
 516 532.419 l 2
 516 565.083 516 565.083 513.854 594.746 c 0
 511.709 624.409 511.709 624.409 509.549 638.76 c 0
 507.388 653.11 507.388 653.11 506.082 656.156 c 0
 497.736 673.542 497.736 673.542 490.582 678.607 c 0
 479.185 686.677 479.185 686.677 467.666 690.232 c 2
 465.905 690.775 l 1
 464.179 691.391 l 2
 448.448 697 448.448 697 426 697 c 0
 355.23 697 355.23 697 282 622.414 c 1
 282 201 l 1
 429 201 l 1
 429 0 l 1
 -73 0 l 1
 -73 201 l 1
 74 201 l 1
 74 679 l 1
 -73 679 l 1
 -73 881 l 1
 282 881 l 1
 282 858.298 l 1
 349.12 892.961 349.12 892.961 422.344 890.998 c 1
EndSplineSet
EndChar

StartChar: n
Encoding: 110 110 81
Width: 1228
Flags: W
LayerCount: 2
Fore
SplineSet
1234 201 m 1
 1234 0 l 1
 667 0 l 1
 667 201 l 1
 853 201 l 1
 853 544.863 l 2
 853 580.297 853 580.297 840.682 611.85 c 0
 829.062 641.617 829.062 641.617 807.685 663.407 c 0
 787.879 683.594 787.879 683.594 759.976 695.374 c 0
 734.808 706 734.808 706 702 706 c 0
 660.078 706 660.078 706 622.298 698.028 c 0
 582.381 689.605 582.381 689.605 541.88 673.498 c 0
 498.799 656.365 498.799 656.365 453.384 631.962 c 0
 418.659 613.302 418.659 613.302 380 590.949 c 1
 380 201 l 1
 562 201 l 1
 562 0 l 1
 -4 0 l 1
 -4 201 l 1
 173 201 l 1
 173 679 l 1
 -4 679 l 1
 -4 881 l 1
 380 881 l 1
 380 798.956 l 1
 395.309 808.796 395.309 808.796 408.951 817.412 c 0
 473.492 858.175 473.492 858.175 543.939 882.036 c 0
 617.645 907 617.645 907 688 907 c 0
 768.637 907 768.637 907 835.905 881.698 c 0
 907.796 859.54 907.796 859.54 959.126 812.088 c 0
 1007.93 766.971 1007.93 766.971 1034.3 705.154 c 0
 1060 644.902 1060 644.902 1060 573.84 c 2
 1060 201 l 1
 1234 201 l 1
EndSplineSet
EndChar

StartChar: o
Encoding: 111 111 82
Width: 1228
Flags: W
LayerCount: 2
Fore
SplineSet
764.407 197.088 m 0
 834.216 216.476 834.216 216.476 883.091 252.16 c 0
 930.682 286.235 930.682 286.235 958.319 335.517 c 0
 986 384.879 986 384.879 986 445.327 c 0
 986 496.771 986 496.771 963.029 546.111 c 0
 940.928 593.583 940.928 593.583 895.332 630.829 c 0
 849.497 668.271 849.497 668.271 777.698 692.109 c 0
 705.742 716 705.742 716 604 716 c 0
 531.768 716 531.768 716 465.626 696.353 c 0
 399.916 676.834 399.916 676.834 350.427 641.669 c 0
 301.791 607.11 301.791 607.11 272.687 557.403 c 0
 244 508.408 244 508.408 244 446.109 c 0
 244 390.167 244 390.167 269.104 341.229 c 0
 293.885 292.922 293.885 292.922 340.033 256.82 c 0
 386.59 220.398 386.59 220.398 452.969 198.653 c 0
 519.07 177 519.07 177 603 177 c 0
 692.081 177 692.081 177 764.407 197.088 c 0
1176.04 301.671 m 0
 1150.29 231.742 1150.29 231.742 1102.84 173.11 c 0
 1055.76 114.034 1055.76 114.034 989.5 70.8165 c 0
 922.712 27.2519 922.712 27.2519 841.502 5.75906 c 1
 790.662 -12.1004 790.662 -12.1004 736.706 -21.0001 c 0
 682.858 -29.882 682.858 -29.882 624.721 -31 c 1
 591 -31 l 2
 473.216 -31 473.216 -31 370.542 11.1088 c 0
 268.165 46.8999 268.165 46.8999 191.789 110.033 c 0
 115.048 173.467 115.048 173.467 71.6257 259.341 c 0
 28 345.617 28 345.617 28 445.757 c 0
 28 534.607 28 534.607 64.0274 618.941 c 0
 100.957 705.387 100.957 705.387 175.961 771.82 c 0
 250.653 837.977 250.653 837.977 360.847 877.602 c 0
 470.834 924 470.834 924 615 924 c 0
 731.544 924 731.544 924 836.402 887.919 c 0
 943.243 856.499 943.243 856.499 1024.27 796.148 c 0
 1106.39 734.991 1106.39 734.991 1154.12 646.441 c 0
 1202 557.619 1202 557.619 1202 446.122 c 0
 1202 372.175 1202 372.175 1176.04 301.671 c 0
EndSplineSet
EndChar

StartChar: p
Encoding: 112 112 83
Width: 1228
Flags: W
LayerCount: 2
Fore
SplineSet
895.014 265.435 m 0
 989 339.288 989 339.288 989 450.748 c 0
 989 543.599 989 543.599 909.852 621.916 c 1
 872.182 656.058 872.182 656.058 811.856 678.583 c 0
 751.82 701 751.82 701 675 701 c 0
 527.691 701 527.691 701 431.578 628.022 c 0
 336 555.45 336 555.45 336 453.838 c 0
 336 332.225 336 332.225 447.691 258.46 c 0
 548.63 192 548.63 192 677 192 c 0
 801.559 192 801.559 192 895.014 265.435 c 0
912 11.3941 m 1
 912 43.6422 l 1
 801.152 -15 801.152 -15 677 -15 c 2
 658 -15 l 2
 497.689 -15 497.689 -15 345 102.64 c 1
 345 -120 l 1
 667 -120 l 1
 667 -322 l 1
 -40 -322 l 1
 -40 -120 l 1
 138 -120 l 1
 138 679 l 1
 -40 679 l 1
 -40 881 l 1
 345 881 l 1
 345 797.418 l 1
 364.262 811.472 364.262 811.472 384.935 824.023 c 0
 521.83 908 521.83 908 675.5 908 c 0
 829.5 908 829.5 908 954.223 830.117 c 0
 1077.86 764.865 1077.86 764.865 1141.79 662.742 c 0
 1205 561.771 1205 561.771 1205 444.627 c 0
 1205 250.361 1205 250.361 1039.08 115.042 c 2
 912 11.3941 l 1
EndSplineSet
EndChar

StartChar: q
Encoding: 113 113 84
Width: 1228
Flags: W
LayerCount: 2
Fore
SplineSet
238 443.024 m 0
 238 341.006 238 341.006 332.485 265.823 c 1
 427.655 192 427.655 192 555 192 c 0
 651.753 192 651.753 192 737.211 234.936 c 1
 793.303 260.996 793.303 260.996 827.606 296.275 c 0
 861.908 331.554 861.908 331.554 879.578 380.845 c 0
 891 414.583 891 414.583 891 453.838 c 0
 891 555.45 891 555.45 795.536 627.936 c 0
 698.491 701 698.491 701 553 701 c 0
 472.332 701 472.332 701 415.614 681.618 c 0
 358.896 662.236 358.896 662.236 317.176 621.956 c 1
 238 548.062 238 548.062 238 443.024 c 0
1268 -120 m 1
 1268 -322 l 1
 559 -322 l 1
 559 -120 l 1
 883 -120 l 1
 883 107.308 l 1
 763.156 6.56064 763.156 6.56064 622.9 -10.4701 c 0
 584.397 -15 584.397 -15 570 -15 c 2
 551 -15 l 2
 421.728 -15 421.728 -15 300.344 51.7904 c 0
 178.672 107.925 178.672 107.925 100.818 212.855 c 0
 22 319.083 22 319.083 22 442.277 c 0
 22 563.178 22 563.178 85.7705 663.798 c 0
 150.191 765.443 150.191 765.443 274.004 830.446 c 0
 396.21 908 396.21 908 555 908 c 0
 700.66 908 700.66 908 846.167 816.338 c 0
 865.354 804.09 865.354 804.09 883 790.911 c 1
 883 881 l 1
 1268 881 l 1
 1268 679 l 1
 1090 679 l 1
 1090 -120 l 1
 1268 -120 l 1
EndSplineSet
EndChar

StartChar: r
Encoding: 114 114 85
Width: 1228
Flags: W
LayerCount: 2
Fore
SplineSet
1217.89 805.156 m 2
 1272.17 756.026 l 1
 1074.17 634.615 l 1
 1029.86 687.728 l 2
 1012.69 708.306 1012.69 708.306 989.67 721.273 c 0
 974.992 729.542 974.992 729.542 933.136 729.029 c 0
 883.291 728.418 883.291 728.418 830.91 708.474 c 0
 770.958 685.647 770.958 685.647 719.764 654.371 c 0
 640.921 607.546 640.921 607.546 558 531.102 c 1
 558 201 l 1
 970 201 l 1
 970 0 l 1
 82 0 l 1
 82 201 l 1
 351 201 l 1
 351 679 l 1
 99 679 l 1
 99 881 l 1
 558 881 l 1
 558 730.595 l 1
 760.046 911 760.046 911 957 911 c 0
 1089.03 911 1089.03 911 1174.94 839.85 c 1
 1198.12 823.051 1198.12 823.051 1217.89 805.156 c 2
EndSplineSet
EndChar

StartChar: s
Encoding: 115 115 86
Width: 1228
Flags: W
LayerCount: 2
Fore
SplineSet
1069.44 892.623 m 1
 1056.93 819.378 l 2
 1044 743.662 1044 743.662 1044 693 c 0
 1044 638.925 1044 638.925 1049.77 565.903 c 2
 1055.39 494.654 l 1
 879.609 472.214 l 1
 858.219 526.511 l 2
 845.455 558.914 845.455 558.914 829.743 596.718 c 0
 820.083 619.958 820.083 619.958 795.263 642.767 c 0
 730.781 702 730.781 702 565 702 c 0
 451.607 702 451.607 702 392.957 668.635 c 0
 347 642.49 347 642.49 347 620.173 c 0
 347 585.555 347 585.555 359.086 571.739 c 0
 373.62 555.126 373.62 555.126 401.14 544.669 c 0
 471.061 517.233 471.061 517.233 620.547 510.552 c 0
 680.331 507.307 680.331 507.307 737.408 504.881 c 0
 800.919 502.182 800.919 502.182 846.278 494.234 c 0
 891.412 486.326 891.412 486.326 930.785 474.068 c 0
 975.401 460.179 975.401 460.179 1012.37 436.529 c 0
 1057.91 407.313 1057.91 407.313 1082.46 366.138 c 0
 1107 324.962 1107 324.962 1107 277.803 c 0
 1107 190.552 1107 190.552 1058.44 132.642 c 0
 1013.62 79.1844 1013.62 79.1844 942.589 44.6887 c 0
 813.879 -33 813.879 -33 634 -33 c 0
 475.216 -33 475.216 -33 338.77 40.9959 c 1
 335.876 -27 l 1
 120.945 -27 l 1
 132.703 58.2478 l 2
 140 111.146 140 111.146 140 173.5 c 0
 140 237.531 140 237.531 130.319 342.085 c 2
 123.778 412.73 l 1
 292.76 437.898 l 1
 317.842 391.914 l 2
 338.014 354.931 338.014 354.931 357.19 306.718 c 0
 369.729 275.193 369.729 275.193 396.817 245.095 c 0
 459.535 175 459.535 175 621 175 c 0
 800.642 175 800.642 175 872.205 242.439 c 0
 892 261.066 892 261.066 892 296.903 c 0
 892 306.148 892 306.148 888.755 313.58 c 0
 885.51 321.013 885.51 321.013 872.822 330.217 c 0
 860.135 339.422 860.135 339.422 838.45 345.583 c 0
 816.764 351.745 816.764 351.745 776.219 356.019 c 0
 735.674 360.292 735.674 360.292 680.378 360.292 c 1
 459.442 368.064 459.442 368.064 363.301 395.937 c 0
 261.144 425.554 261.144 425.554 200.896 476.555 c 0
 132 534.878 132 534.878 132 617.914 c 0
 132 693.578 132 693.578 170.504 744.781 c 0
 206.605 792.789 206.605 792.789 268.984 825.793 c 0
 392.027 907 392.027 907 563 907 c 0
 731.932 907 731.932 907 847 847.804 c 1
 847 932.734 l 1
 1069.44 892.623 l 1
EndSplineSet
EndChar

StartChar: t
Encoding: 116 116 87
Width: 1228
Flags: W
LayerCount: 2
Fore
SplineSet
673.583 177 m 1
 676 177 l 2
 803.528 177 803.528 177 1052.1 276.617 c 2
 1121.06 304.255 l 1
 1198.29 116.701 l 1
 1131.06 87.2882 l 2
 860.694 -31 860.694 -31 685.5 -31 c 0
 494.932 -31 494.932 -31 382.967 60.7563 c 0
 302.689 126.545 302.689 126.545 295.103 239.489 c 0
 294.118 255.637 294.118 255.637 293.146 268.379 c 0
 292 283.406 292 283.406 292 305.812 c 2
 292 650 l 1
 145 650 l 1
 145 850 l 1
 292 850 l 1
 292 1153 l 1
 500 1153 l 1
 500 850 l 1
 1024 850 l 1
 1024 650 l 1
 500 650 l 1
 500 349.345 l 2
 500 265.38 500 265.38 508.076 245.235 c 1
 516.637 227.477 516.637 227.477 523.478 220.799 c 0
 537.552 206.715 537.552 206.715 560.085 195.897 c 0
 581.92 185.414 581.92 185.414 613.273 180.967 c 0
 649.541 175.775 649.541 175.775 671.171 176.844 c 2
 673.583 177 l 1
EndSplineSet
EndChar

StartChar: u
Encoding: 117 117 88
Width: 1228
Flags: W
LayerCount: 2
Fore
SplineSet
1225 201 m 1
 1225 0 l 1
 841 0 l 1
 841 61.0828 l 1
 804.198 35.7679 804.198 35.7679 776.36 21.3336 c 0
 727.722 -3.57936 727.722 -3.57936 676.588 -16.6602 c 0
 624.441 -30 624.441 -30 577 -30 c 0
 505.496 -30 505.496 -30 451.141 -19.0133 c 0
 394.597 -7.58408 394.597 -7.58408 352.361 13.2183 c 0
 309.415 34.3708 309.415 34.3708 280.114 60.9461 c 0
 251.743 81.6527 251.743 81.6527 233.596 103.556 c 0
 216.644 124.019 216.644 124.019 197.877 159.884 c 0
 177.386 199.046 177.386 199.046 171.319 251.772 c 0
 165.981 298.167 165.981 298.167 167 340.031 c 1
 167 679 l 1
 -9 679 l 1
 -9 881 l 1
 376 881 l 1
 376 338.234 l 2
 376.945 292.984 376.945 292.984 389.114 257.873 c 0
 399.019 229.296 399.019 229.296 419.198 211.905 c 0
 438.926 194.902 438.926 194.902 469.62 186.899 c 0
 507.579 177 507.579 177 552 177 c 0
 689.417 177 689.417 177 841 299.657 c 1
 841 679 l 1
 655 679 l 1
 655 881 l 1
 1049 881 l 1
 1049 201 l 1
 1225 201 l 1
EndSplineSet
EndChar

StartChar: v
Encoding: 118 118 89
Width: 1228
Flags: W
LayerCount: 2
Fore
SplineSet
1079.5 679 m 1
 687.498 0 l 1
 544.606 0 l 1
 150.606 679 l 1
 -32 679 l 1
 -32 881 l 1
 529 881 l 1
 529 679 l 1
 384.466 679 l 1
 622.279 166.32 l 1
 862.114 679 l 1
 722 679 l 1
 722 881 l 1
 1261 881 l 1
 1261 679 l 1
 1079.5 679 l 1
EndSplineSet
EndChar

StartChar: w
Encoding: 119 119 90
Width: 1228
Flags: W
LayerCount: 2
Fore
SplineSet
384.369 227.666 m 1
 559.35 712 l 1
 703.721 712 l 1
 877.154 229.992 l 1
 1009.67 679 l 1
 832 679 l 1
 832 881 l 1
 1300 881 l 1
 1300 679 l 1
 1214.17 679 l 1
 971.171 0 l 1
 795.703 0 l 1
 624.795 463.893 l 1
 457.702 0 l 1
 279.958 0 l 1
 34.9585 679 l 1
 -71 679 l 1
 -71 881 l 1
 416 881 l 1
 416 679 l 1
 252.953 679 l 1
 384.369 227.666 l 1
EndSplineSet
EndChar

StartChar: x
Encoding: 120 120 91
Width: 1228
Flags: W
LayerCount: 2
Fore
SplineSet
1251 201 m 1
 1251 0 l 1
 711 0 l 1
 711 201 l 1
 803.952 201 l 1
 609.929 396.579 l 1
 415.387 201 l 1
 504 201 l 1
 504 0 l 1
 -22 0 l 1
 -22 201 l 1
 134.719 201 l 1
 466.979 456.384 l 1
 172.113 679 l 1
 9 679 l 1
 9 881 l 1
 526 881 l 1
 526 679 l 1
 459.066 679 l 1
 610.08 527.986 l 1
 761.548 679 l 1
 702 679 l 1
 702 881 l 1
 1199 881 l 1
 1199 679 l 1
 1042.19 679 l 1
 752.241 457.1 l 1
 1092.8 201 l 1
 1251 201 l 1
EndSplineSet
EndChar

StartChar: y
Encoding: 121 121 92
Width: 1228
Flags: W
LayerCount: 2
Fore
SplineSet
763 -112 m 1
 763 -313 l 1
 14 -313 l 1
 14 -112 l 1
 356.017 -112 l 1
 493.788 95.0351 l 1
 132.47 679 l 1
 -26 679 l 1
 -26 881 l 1
 478 881 l 1
 478 679 l 1
 368.195 679 l 1
 615.957 199.678 l 1
 895.449 679 l 1
 785 679 l 1
 785 881 l 1
 1281 881 l 1
 1281 679 l 1
 1133.44 679 l 1
 593.503 -112 l 1
 763 -112 l 1
EndSplineSet
EndChar

StartChar: z
Encoding: 122 122 93
Width: 1228
Flags: W
LayerCount: 2
Fore
SplineSet
158 881 m 1
 1090 881 l 1
 1090 752.735 l 1
 461.57 201 l 1
 891 201 l 1
 891 401 l 1
 1091 401 l 1
 1091 0 l 1
 138 0 l 1
 138 127.46 l 1
 768.106 679 l 1
 360 679 l 1
 360 487 l 1
 158 487 l 1
 158 881 l 1
EndSplineSet
EndChar

StartChar: braceleft
Encoding: 123 123 94
Width: 1228
Flags: W
LayerCount: 2
Fore
SplineSet
439 480.183 m 1
 439 674.125 l 1
 506.811 680.655 l 2
 599.684 689.595 599.684 689.595 622.525 735.742 c 0
 629 749.417 629 749.417 629 771 c 0
 629 808.566 629 808.566 612.795 879.684 c 0
 577 1043.92 577 1043.92 577 1114 c 0
 577 1197.75 577 1197.75 617.139 1261.13 c 0
 655.13 1321.12 655.13 1321.12 715.842 1356.57 c 0
 808.374 1412.18 808.374 1412.18 948.929 1417.94 c 2
 1027 1421.14 l 1
 1027 1343 l 2
 1027 1315.66 1027 1315.66 1028.81 1290.34 c 2
 1034.55 1210 l 1
 954 1210 l 2
 837.159 1210 837.159 1210 794.174 1161.6 c 1
 780 1142.37 780 1142.37 780 1121 c 0
 780 1065.39 780 1065.39 795.165 998.487 c 0
 832 834.318 832 834.318 832 783 c 0
 832 728.223 832 728.223 818.89 687.51 c 0
 805.986 647.441 805.986 647.441 781.623 612.249 c 0
 768.767 593.75 768.767 593.75 753.951 578.114 c 1
 800.647 530.027 800.647 530.027 820.039 461.878 c 0
 832 421.237 832 421.237 832 370 c 0
 832 316.244 832 316.244 811.482 217.985 c 0
 780.652 63.8285 780.652 63.8285 779.999 35.8751 c 0
 780.136 0.176763 780.136 0.176763 788.075 -15.3474 c 0
 796.013 -30.8716 796.013 -30.8716 812.473 -39.9183 c 0
 862.627 -66.3436 862.627 -66.3436 959.296 -73.1872 c 2
 1031.49 -78.2984 l 1
 1024.31 -282.968 l 1
 948.987 -279.939 l 2
 710.921 -270.371 710.921 -270.371 616.577 -123.034 c 0
 577 -59.4305 577 -59.4305 577 18 c 0
 577 93.8916 577 93.8916 595.632 181.563 c 0
 629 338.857 629 338.857 629 378 c 0
 629 406.475 629 406.475 620.837 423.328 c 0
 612.674 440.18 612.674 440.18 584.978 453.334 c 0
 557.281 466.487 557.281 466.487 505.373 472.498 c 2
 439 480.183 l 1
EndSplineSet
EndChar

StartChar: bar
Encoding: 124 124 95
Width: 1228
Flags: W
LayerCount: 2
Fore
SplineSet
724 -455 m 1
 509 -455 l 1
 509 1453 l 1
 724 1453 l 1
 724 -455 l 1
EndSplineSet
EndChar

StartChar: braceright
Encoding: 125 125 96
Width: 1228
Flags: W
LayerCount: 2
Fore
SplineSet
812 674.347 m 1
 812 480.183 l 1
 745.627 472.498 l 2
 693.719 466.487 693.719 466.487 666.022 453.334 c 0
 638.326 440.18 638.326 440.18 630.163 423.327 c 0
 622 406.475 622 406.475 622 378 c 0
 622 347.121 622 347.121 629.662 307.105 c 0
 638.5 260.946 638.5 260.946 647.43 219.273 c 0
 674 87.4827 674 87.4827 674 21 c 0
 674 -59.7502 674 -59.7502 633.861 -123.129 c 0
 595.703 -183.381 595.703 -183.381 536.311 -218.477 c 0
 443.11 -274.156 443.11 -274.156 302.071 -279.937 c 2
 226.692 -283.026 l 1
 219.511 -78.3747 l 1
 291.625 -73.1929 l 2
 360.824 -68.2206 360.824 -68.2206 402.413 -53.9487 c 0
 444.001 -39.6768 444.001 -39.6768 455.609 -26.1535 c 1
 471 -4.5647 471 -4.5647 471 17 c 0
 471 67.9222 471 67.9222 455.706 138.093 c 0
 419 306.939 419 306.939 419 363 c 0
 419 421.421 419 421.421 430.34 461.445 c 0
 442.056 502.792 442.056 502.792 466.765 539.855 c 0
 480.303 559.806 480.303 559.806 497.484 577.655 c 1
 482.229 593.755 482.229 593.755 469.452 612.141 c 0
 419 684.41 419 684.41 419 763 c 0
 419 825.594 419 825.594 429.521 877.03 c 0
 438.584 921.334 438.584 921.334 448.748 966.109 c 0
 471 1071.1 471 1071.1 471 1099 c 0
 471 1140.26 471 1140.26 462.946 1152.64 c 1
 447.041 1172.27 447.041 1172.27 434.371 1179.62 c 0
 416.688 1189.88 416.688 1189.88 395.813 1196.36 c 0
 351.671 1210 351.671 1210 297 1210 c 2
 216.452 1210 l 1
 222.191 1290.34 l 2
 224 1315.68 224 1315.68 224 1343 c 2
 224 1421.08 l 1
 302.013 1417.94 l 2
 540.37 1408.36 540.37 1408.36 633.228 1261.34 c 0
 674 1198.07 674 1198.07 674 1120 c 0
 674 1043.77 674 1043.77 654.234 954.822 c 0
 622 807.848 622 807.848 622 774 c 0
 622 749.156 622 749.156 628.541 735.606 c 0
 635.038 722.148 635.038 722.148 646.58 712.784 c 0
 680.296 686.6 680.296 686.6 743.947 680.678 c 2
 812 674.347 l 1
EndSplineSet
EndChar

StartChar: asciitilde
Encoding: 126 126 97
Width: 1228
Flags: W
LayerCount: 2
Fore
SplineSet
233.424 385.574 m 1
 93.0453 548.716 l 1
 118.438 594.423 l 2
 140.133 633.473 140.133 633.473 155.38 655.757 c 0
 177.017 686.505 177.017 686.505 216.927 731.808 c 0
 299.487 824 299.487 824 418 824 c 0
 479.18 824 479.18 824 554.872 794.327 c 0
 618.009 769.575 618.009 769.575 712.426 730.904 c 0
 738.465 720.239 738.465 720.239 763.031 712.154 c 0
 787.598 704.068 787.598 704.068 799.48 701.084 c 0
 811.361 698.1 811.361 698.1 814.083 697.999 c 0
 879.665 698.328 879.665 698.328 949.424 809.789 c 2
 1001.35 892.763 l 1
 1144.2 738.93 l 1
 1117.37 691.23 l 2
 1112.62 682.789 1112.62 682.789 1107.32 674 c 1
 1164.86 674 l 1
 995.504 540.158 l 2
 913.061 475 913.061 475 817 475 c 0
 755.025 475 755.025 475 640.351 522.687 c 0
 478.5 589.128 478.5 589.128 444.574 599.059 c 1
 428.639 601 428.639 601 408.5 601 c 0
 397.638 601 397.638 601 390.216 597.536 c 0
 377.015 591.375 377.015 591.375 370.809 586.056 c 0
 360.271 577.022 360.271 577.022 349.012 565.023 c 0
 329.961 544.234 329.961 544.234 319.404 528.397 c 0
 304.937 506.697 304.937 506.697 297.442 495.99 c 0
 292.411 488.803 292.411 488.803 286.118 477.79 c 2
 233.424 385.574 l 1
EndSplineSet
EndChar

StartChar: exclamdown
Encoding: 161 161 99
Width: 1228
Flags: W
LayerCount: 2
Fore
SplineSet
767.668 681.288 m 2
 708.177 634 708.177 634 628.5 634 c 0
 544.6 634 544.6 634 489.277 687.67 c 0
 433 742.264 433 742.264 433 817 c 0
 433 892.077 433 892.077 489.695 946.233 c 0
 544.935 999 544.935 999 630.5 999 c 0
 714.779 999 714.779 999 771.172 948.247 c 0
 831 894.403 831 894.403 831 816.5 c 0
 831 738.947 831 738.947 771.608 684.648 c 2
 769.696 682.9 l 1
 767.668 681.288 l 2
488.1 -374 m 1
 534.707 545 l 1
 729.571 545 l 1
 772.593 -374 l 1
 488.1 -374 l 1
EndSplineSet
EndChar

StartChar: sterling
Encoding: 163 163 101
Width: 1228
Flags: W
LayerCount: 2
Fore
SplineSet
548.072 1083.02 m 0
 486 1023.14 486 1023.14 486 958.5 c 0
 486 888.788 486 888.788 530.025 758 c 1
 1071 758 l 1
 1071 557 l 1
 584.863 557 l 1
 594 493.18 594 493.18 594 441 c 0
 594 350.779 594 350.779 576.36 287.272 c 0
 552.754 199.009 552.754 199.009 534.885 162.072 c 1
 565.204 167 565.204 167 590.5 167 c 0
 666.18 167 666.18 167 769.888 126.32 c 0
 847.187 96 847.187 96 881.5 96 c 0
 911.999 96 911.999 96 928.253 103.979 c 0
 970.732 125.752 970.732 125.752 1011.61 157.93 c 2
 1069.2 203.272 l 1
 1192.22 54.1579 l 1
 1144.03 5.96699 l 2
 1032.06 -106 1032.06 -106 885 -106 c 0
 809.213 -106 809.213 -106 739.826 -79.5964 c 0
 685.208 -58.8126 685.208 -58.8126 662.142 -51.4318 c 0
 637.36 -43.5018 637.36 -43.5018 620.953 -38.3748 c 0
 607.829 -34 607.829 -34 577 -34 c 0
 496.409 -34 496.409 -34 376.383 -100.584 c 2
 320.636 -131.509 l 1
 196.61 25.5898 l 1
 239.677 72.6396 l 2
 393 240.141 393 240.141 393 440 c 0
 393 498.05 393 498.05 379.366 557 c 1
 140 557 l 1
 140 758 l 1
 317.444 758 l 1
 281 874.256 281 874.256 281 946 c 0
 281 1118.62 281 1118.62 412.091 1235.48 c 0
 539.431 1349 539.431 1349 699.5 1349 c 0
 838.303 1349 838.303 1349 970.775 1298.74 c 1
 979.203 1313 l 1
 1166 1313 l 1
 1143.95 1220.59 l 2
 1124.11 1137.45 1124.11 1137.45 1113.6 1036.26 c 2
 1107.34 975.987 l 1
 912.921 954.854 l 1
 918.129 1043.4 l 2
 919.764 1071.2 919.764 1071.2 920 1077.72 c 2
 920 1082 l 2
 920 1093.92 920 1093.92 907.531 1104.27 c 1
 867.117 1126.29 867.117 1126.29 812.603 1134.3 c 0
 746.509 1144 746.509 1144 722 1144 c 0
 611.273 1144 611.273 1144 548.072 1083.02 c 0
EndSplineSet
EndChar

StartChar: currency
Encoding: 164 164 102
Width: 1228
Flags: W
LayerCount: 2
Fore
SplineSet
801.523 752.452 m 2
 735.715 822 735.715 822 631 822 c 0
 527.047 822 527.047 822 463.848 752.888 c 0
 398 680.879 398 680.879 398 586.5 c 0
 398 491.995 398 491.995 463.496 419.95 c 0
 526.178 351 526.178 351 629.5 351 c 0
 733.377 351 733.377 351 800.133 422.633 c 0
 869 496.531 869 496.531 869 590.5 c 0
 869 672.326 869 672.326 817.549 735.515 c 1
 801.523 752.452 l 2
1042.59 1135.65 m 1
 1189.68 996.299 l 1
 1005.17 812.854 l 1
 1069 702.263 1069 702.263 1069 586.5 c 0
 1069 470.741 1069 470.741 1005.36 360.466 c 1
 1188.53 180.466 l 1
 1135.03 126.967 l 2
 1130.21 122.145 1130.21 122.145 1125.47 117.419 c 0
 1097.28 89.3791 1097.28 89.3791 1089.85 83.4348 c 2
 1037.59 41.6223 l 1
 861.578 216.613 l 1
 752.701 150 752.701 150 632.5 150 c 0
 511.854 150 511.854 150 401.534 217.383 c 1
 359.482 174.416 359.482 174.416 327.533 142.467 c 0
 293.392 108.325 293.392 108.325 271.724 87.6897 c 2
 218.722 37.2117 l 1
 75.1598 180.774 l 1
 260.929 361.236 l 1
 197 471.993 197 471.993 197 570 c 0
 197 693.708 197 693.708 242.918 785.541 c 2
 245.006 789.718 l 1
 247.596 793.603 l 2
 252.185 800.485 252.185 800.485 259.634 812.391 c 1
 196.613 874.323 196.613 874.323 128.967 941.967 c 2
 75.934 995 l 1
 128.967 1048.03 l 2
 134.732 1053.8 134.732 1053.8 140.34 1059.25 c 0
 155.769 1074.25 155.769 1074.25 170.173 1087.06 c 2
 222.723 1133.77 l 1
 402.355 956.199 l 1
 511.921 1023 511.921 1023 629.5 1023 c 0
 747.705 1023 747.705 1023 861.861 955.988 c 1
 922.366 1015.43 922.366 1015.43 990.967 1084.03 c 2
 1042.59 1135.65 l 1
EndSplineSet
EndChar

StartChar: yen
Encoding: 165 165 103
Width: 1228
Flags: W
LayerCount: 2
Fore
SplineSet
998 -75 m 1
 280 -75 l 1
 280 126 l 1
 537 126 l 1
 537 226 l 1
 218 226 l 1
 218 427 l 1
 537 427 l 1
 537 454 l 1
 218 454 l 1
 218 655 l 1
 507.998 655 l 1
 159.145 1107 l 1
 2 1107 l 1
 2 1308 l 1
 528 1308 l 1
 528 1107 l 1
 414.524 1107 l 1
 638.36 816.665 l 1
 857.447 1107 l 1
 743 1107 l 1
 743 1308 l 1
 1262 1308 l 1
 1262 1107 l 1
 1107.6 1107 l 1
 770.059 655 l 1
 1053 655 l 1
 1053 454 l 1
 741 454 l 1
 741 427 l 1
 1053 427 l 1
 1053 226 l 1
 741 226 l 1
 741 126 l 1
 998 126 l 1
 998 -75 l 1
EndSplineSet
EndChar

StartChar: brokenbar
Encoding: 166 166 104
Width: 1228
Flags: W
LayerCount: 2
Fore
SplineSet
741 -476 m 1
 526 -476 l 1
 526 431 l 1
 741 431 l 1
 741 -476 l 1
741 574 m 1
 526 574 l 1
 526 1482 l 1
 741 1482 l 1
 741 574 l 1
EndSplineSet
EndChar

StartChar: section
Encoding: 167 167 105
Width: 1228
Flags: W
LayerCount: 2
Fore
SplineSet
779.897 284.12 m 1
 838.403 291.468 838.403 291.468 864.468 318.534 c 0
 881 335.066 881 335.066 881 352.5 c 0
 881 374.352 881 374.352 874.475 383.089 c 0
 838.338 426.796 838.338 426.796 765.817 483.905 c 2
 506.737 684.805 l 1
 438.278 670.22 438.278 670.22 418.449 628.327 c 0
 412 613.004 412 613.004 412 605 c 0
 412 577.826 412 577.826 448.88 543.104 c 0
 469.695 524.159 469.695 524.159 501.864 499.342 c 2
 779.897 284.12 l 1
335.216 887.187 m 1
 325 922.17 325 922.17 325 952 c 0
 325 1025.81 325 1025.81 355.545 1087.54 c 0
 386.091 1149.28 386.091 1149.28 444.991 1191.45 c 1
 521.797 1244 521.797 1244 677 1244 c 2
 1048 1244 l 1
 1048 857 l 1
 846 857 l 1
 846 1043 l 1
 647 1043 l 2
 576 1043 576 1043 556 1027 c 0
 536 1011 536 1011 536 967 c 0
 536 921.082 536 921.082 595.534 875.596 c 2
 771.696 741 l 1
 770.067 741 l 1
 825.515 698.187 825.515 698.187 858.943 672.281 c 0
 899.978 640.48 899.978 640.48 907.014 634.617 c 0
 911.947 630.505 911.947 630.505 921.859 622.846 c 0
 932.452 614.66 932.452 614.66 946.622 603.759 c 2
 969.664 584.906 l 2
 1013.14 548.884 1013.14 548.884 1038.83 518.714 c 0
 1064.51 488.544 1064.51 488.544 1076.33 452.181 c 0
 1093 400.882 1093 400.882 1093 359 c 0
 1093 317.437 1093 317.437 1080.52 277.915 c 0
 1067.2 235.736 1067.2 235.736 1036.02 197.48 c 0
 995.316 147.989 995.316 147.989 931.621 117.721 c 1
 954 62.0518 954 62.0518 954 14 c 0
 954 -50.709 954 -50.709 928.19 -106.27 c 0
 902.38 -161.831 902.38 -161.831 853.046 -200.201 c 0
 760.731 -272 760.731 -272 608 -272 c 2
 216 -272 l 1
 216 140 l 1
 418 140 l 1
 418 -71 l 1
 621 -71 l 2
 670.907 -71 670.907 -71 714.34 -42.9778 c 0
 730.112 -32.8022 730.112 -32.8022 736.056 -21.4868 c 0
 742 -10.1714 742 -10.1714 742 12 c 0
 742 42.0331 742 42.0331 714.508 68.4262 c 0
 698.458 84.476 698.458 84.476 672.368 104.48 c 2
 496.906 239 l 1
 498.569 239 l 1
 447.434 278.424 447.434 278.424 418 300.5 c 0
 385.174 325.12 385.174 325.12 378.773 329.667 c 0
 369.786 335.849 369.786 335.849 357.426 346.355 c 0
 348.42 354.01 348.42 354.01 337.447 362.697 c 0
 324.983 372.564 324.983 372.564 312.475 382.798 c 0
 275.211 415.564 275.211 415.564 253.043 442.716 c 0
 230.874 469.868 230.874 469.868 219.043 502.293 c 0
 201 551.746 201 551.746 201 615 c 0
 201 690.733 201 690.733 262.299 769.546 c 0
 296.753 813.844 296.753 813.844 354.264 842.179 c 1
 343.591 862.364 343.591 862.364 335.216 887.187 c 1
EndSplineSet
EndChar

StartChar: dieresis
Encoding: 168 168 106
Width: 1228
Flags: W
LayerCount: 2
Fore
SplineSet
900 1037 m 1
 646 1037 l 1
 646 1370 l 1
 900 1370 l 1
 900 1037 l 1
619 1037 m 1
 364 1037 l 1
 364 1370 l 1
 619 1370 l 1
 619 1037 l 1
EndSplineSet
EndChar

StartChar: copyright
Encoding: 169 169 107
Width: 1228
Flags: W
LayerCount: 2
Fore
SplineSet
834.775 654.949 m 2
 829.404 654.501 829.404 654.501 824 654.498 c 2
 778.338 654.5 l 1
 767.995 698.975 l 2
 759.46 735.677 759.46 735.677 744.786 765.861 c 0
 731.758 792.663 731.758 792.663 712.631 811.067 c 0
 694.425 828.585 694.425 828.585 669.159 838.41 c 0
 643.211 848.5 643.211 848.5 608 848.5 c 0
 558.74 848.5 558.74 848.5 518.788 829.882 c 0
 478.353 811.037 478.353 811.037 449.368 777.744 c 0
 419.465 743.397 419.465 743.397 402.119 695.073 c 0
 384.5 645.99 384.5 645.99 384.5 586 c 0
 384.5 514.259 384.5 514.259 402.592 459.554 c 0
 419.946 407.08 419.946 407.08 450.304 372.329 c 0
 479.828 338.532 479.828 338.532 519.52 321.191 c 0
 560.012 303.5 560.012 303.5 610 303.5 c 2
 620 303.5 l 2
 647.229 303.5 647.229 303.5 674.144 309.927 c 0
 702.376 316.669 702.376 316.669 731.936 329.95 c 0
 762.253 343.571 762.253 343.571 793.422 364.053 c 0
 825.692 385.259 825.692 385.259 859.189 413.173 c 2
 903.031 449.708 l 1
 939.895 406.142 l 2
 947.659 396.966 947.659 396.966 955.811 390.173 c 2
 1004.18 349.864 l 1
 959.659 305.341 l 2
 920.267 265.949 920.267 265.949 876.031 237.592 c 0
 833.383 210.253 833.383 210.253 792.419 191.985 c 0
 750.823 173.436 750.823 173.436 713.946 164.217 c 0
 675.079 154.5 675.079 154.5 649 154.5 c 2
 610.395 154.5 l 1
 499.697 156.83 499.697 156.83 424.208 201.52 c 0
 350.644 245.072 350.644 245.072 306.427 310.203 c 0
 263.409 373.571 263.409 373.571 246.488 446.505 c 0
 230.5 515.417 230.5 515.417 230.5 576 c 2
 230.5 585 l 2
 230.5 652.909 230.5 652.909 253.195 724.398 c 0
 276.352 797.342 276.352 797.342 323.302 857.044 c 0
 370.98 917.673 370.98 917.673 441.646 956.803 c 0
 515.141 997.5 515.141 997.5 610.766 997.5 c 1
 698.031 995.172 698.031 995.172 759.205 958.989 c 1
 764.29 989.5 l 1
 901.5 989.5 l 1
 901.5 932 l 2
 901.5 920.266 901.5 920.266 899.517 905.063 c 0
 898.5 897.266 898.5 897.266 898.5 886 c 2
 898.5 863 l 2
 898.5 828.411 898.5 828.411 898.994 792.799 c 0
 899.422 762.087 899.422 762.087 906.383 727.275 c 2
 917.136 673.514 l 1
 870.715 661.909 l 1
 834.775 654.949 l 2
967.665 220.942 m 0
 1003.95 255.525 1003.95 255.525 1033.63 296.003 c 0
 1063.07 336.157 1063.07 336.157 1084.1 382.68 c 0
 1105.16 429.262 1105.16 429.262 1116.87 481.974 c 0
 1128.5 534.315 1128.5 534.315 1128.5 593 c 0
 1128.5 652.964 1128.5 652.964 1113.19 714.65 c 0
 1097.84 776.539 1097.84 776.539 1067.98 833.985 c 0
 1038.16 891.356 1038.16 891.356 993.727 942.136 c 0
 950.043 992.06 950.043 992.06 893.31 1028.69 c 0
 836.448 1065.41 836.448 1065.41 766.49 1087.07 c 0
 697.29 1108.5 697.29 1108.5 615 1108.5 c 0
 505.015 1108.5 505.015 1108.5 412.047 1067.82 c 0
 318.504 1026.89 318.504 1026.89 249.428 955.126 c 0
 180.167 883.168 180.167 883.168 140.836 785.517 c 0
 101.5 687.853 101.5 687.853 101.5 573 c 0
 101.5 478.455 101.5 478.455 141.346 390.794 c 0
 181.992 301.373 181.992 301.373 252.027 231.79 c 0
 321.983 162.285 321.983 162.285 416.259 120.586 c 0
 509.148 79.5 509.148 79.5 615 79.5 c 0
 709.928 79.5 709.928 79.5 802.145 116.387 c 0
 894.332 153.263 894.332 153.263 967.665 220.942 c 0
1079.9 125.586 m 1
 988.346 32.1352 988.346 32.1352 867.393 -17.669 c 0
 746.375 -67.5 746.375 -67.5 615 -67.5 c 0
 528.512 -67.5 528.512 -67.5 445.776 -45.5829 c 0
 363.416 -23.7652 363.416 -23.7652 290.203 16.6652 c 0
 216.676 57.2693 216.676 57.2693 155.28 115.924 c 0
 93.7945 174.664 93.7945 174.664 48.8555 248.649 c 0
 3.79934 322.828 3.79934 322.828 -20.8268 409.841 c 0
 -45.5 497.021 -45.5 497.021 -45.5 595 c 0
 -45.5 728.589 -45.5 728.589 4.98776 848.77 c 0
 55.2498 968.413 55.2498 968.413 143.97 1058.78 c 0
 232.737 1149.2 232.737 1149.2 353.39 1202.15 c 0
 474.952 1255.5 474.952 1255.5 615 1255.5 c 0
 694.419 1255.5 694.419 1255.5 774.077 1234.62 c 0
 853.181 1213.89 853.181 1213.89 926.216 1174.65 c 0
 999.124 1135.48 999.124 1135.48 1062.7 1078.98 c 0
 1127.1 1021.74 1127.1 1021.74 1174.39 948.057 c 0
 1221.71 874.332 1221.71 874.332 1248.54 785.647 c 0
 1275.5 696.518 1275.5 696.518 1275.5 595 c 0
 1275.5 463.569 1275.5 463.569 1225.12 341.987 c 0
 1174.95 220.925 1174.95 220.925 1079.9 125.586 c 1
EndSplineSet
EndChar

StartChar: ordfeminine
Encoding: 170 170 108
Width: 1228
Flags: W
LayerCount: 2
Fore
SplineSet
928.5 518.5 m 1
 336.5 518.5 l 1
 336.5 660.5 l 1
 928.5 660.5 l 1
 928.5 518.5 l 1
700.5 930.038 m 1
 645.622 936.5 645.622 936.5 595.5 936.5 c 0
 535.571 936.5 535.571 936.5 497.1 912.318 c 0
 481.735 902.661 481.735 902.661 476.617 893.87 c 0
 471.5 885.08 471.5 885.08 471.5 871 c 0
 471.5 853.745 471.5 853.745 480.314 845.875 c 0
 510.949 818.5 510.949 818.5 541 818.5 c 0
 616.413 818.5 616.413 818.5 700.5 903.83 c 1
 700.5 930.038 l 1
408.862 1216.86 m 2
 533.607 1263.5 533.607 1263.5 617 1263.5 c 0
 720.231 1263.5 720.231 1263.5 782.865 1209.33 c 0
 845.5 1155.16 845.5 1155.16 845.5 1058 c 2
 845.5 833.5 l 1
 938.5 833.5 l 1
 938.5 692.5 l 1
 700.5 692.5 l 1
 700.5 726.985 l 1
 615.354 676.5 615.354 676.5 550.5 676.5 c 0
 452.293 676.5 452.293 676.5 390.003 731.343 c 0
 324.5 789.016 324.5 789.016 324.5 876 c 0
 324.5 966.004 324.5 966.004 405.323 1025.74 c 0
 478.06 1079.5 478.06 1079.5 598 1079.5 c 0
 634.97 1079.5 634.97 1079.5 699.275 1072.3 c 1
 696.155 1096.84 696.155 1096.84 686.499 1105.35 c 0
 669.292 1120.5 669.292 1120.5 621.5 1120.5 c 0
 562.442 1120.5 562.442 1120.5 460.19 1082.16 c 2
 407.843 1062.53 l 1
 353.415 1196.13 l 1
 408.862 1216.86 l 2
EndSplineSet
EndChar

StartChar: guillemotleft
Encoding: 171 171 109
Width: 1228
Flags: W
LayerCount: 2
Fore
SplineSet
764.786 465.829 m 1
 1171.16 114.03 l 1
 1045.67 -39.7949 l 1
 987.345 9.92387 l 2
 924.102 63.84 924.102 63.84 868.309 111.452 c 0
 811.258 160.147 811.258 160.147 752.852 209.916 c 0
 695.297 258.965 695.297 258.965 637.57 308.661 c 0
 579.892 358.311 579.892 358.311 520.426 408.855 c 2
 453.797 465.489 l 1
 1044.23 976.439 l 1
 1179.34 822.562 l 1
 764.786 465.829 l 1
386.796 465.705 m 1
 790.238 115.731 l 1
 667.379 -39.891 l 1
 608.072 11.1575 l 2
 529.24 79.0154 529.24 79.0154 423.824 168.941 c 0
 317.999 259.219 317.999 259.219 260.823 308.873 c 0
 204.137 358.101 204.137 358.101 144.426 408.855 c 2
 78.0007 465.316 l 1
 664.755 976.197 l 1
 713.849 918.921 l 2
 719.889 912.177 719.889 912.177 749.033 883.033 c 2
 806.258 825.808 l 1
 386.796 465.705 l 1
EndSplineSet
EndChar

StartChar: logicalnot
Encoding: 172 172 110
Width: 1228
Flags: W
LayerCount: 2
Fore
SplineSet
1156 291 m 1
 949 291 l 1
 949 766 l 1
 127 766 l 1
 127 973 l 1
 1156 973 l 1
 1156 291 l 1
EndSplineSet
EndChar

StartChar: registered
Encoding: 174 174 111
Width: 1228
Flags: W
LayerCount: 2
Fore
SplineSet
615 -67.5 m 0
 337.893 -67.5 337.893 -67.5 147.806 125.883 c 0
 88.1422 187.717 88.1422 187.717 44.4568 262.812 c 0
 -45.5 413.671 -45.5 413.671 -45.5 595 c 0
 -45.5 774.441 -45.5 774.441 43.6207 928.471 c 1
 139.65 1084.52 139.65 1084.52 287.234 1169.79 c 0
 435.595 1255.5 435.595 1255.5 615 1255.5 c 0
 794.557 1255.5 794.557 1255.5 945.973 1167.17 c 0
 1097.08 1079.01 1097.08 1079.01 1186.19 925.928 c 0
 1275.5 772.507 1275.5 772.507 1275.5 595 c 0
 1275.5 417.558 1275.5 417.558 1185.75 262.67 c 0
 1096.16 108.065 1096.16 108.065 946.574 20.3921 c 0
 796.611 -67.5 796.611 -67.5 615 -67.5 c 0
598 677.5 m 2
 659.316 677.5 659.316 677.5 693.342 689.212 c 0
 727.367 700.924 727.367 700.924 738.434 720.159 c 0
 749.5 739.393 749.5 739.393 749.5 772 c 0
 749.5 812.371 749.5 812.371 736.766 828.529 c 0
 724.033 844.687 724.033 844.687 688.439 851.672 c 0
 665.909 856.5 665.909 856.5 610 856.5 c 2
 499.5 856.5 l 1
 499.5 677.5 l 1
 598 677.5 l 2
1000.5 253.958 m 1
 1032.62 290.826 1032.62 290.826 1059.54 335.336 c 0
 1128.5 453.997 1128.5 453.997 1128.5 593 c 0
 1128.5 804.485 1128.5 804.485 977.977 957.709 c 0
 829.882 1108.5 829.882 1108.5 615 1108.5 c 0
 509.803 1108.5 509.803 1108.5 415.65 1068.15 c 0
 351.637 1040.72 351.637 1040.72 299.309 1000.5 c 1
 613 1000.5 l 2
 717.197 1000.5 717.197 1000.5 754.975 985.541 c 0
 825.237 958.382 825.237 958.382 863.368 902.599 c 0
 901.5 846.817 901.5 846.817 901.5 772 c 0
 901.5 692.44 901.5 692.44 859.257 634.577 c 0
 817.013 576.714 817.013 576.714 741.23 550.899 c 1
 794.64 478.554 794.64 478.554 870.495 353.5 c 1
 1000.5 353.5 l 1
 1000.5 253.958 l 1
248.5 955.676 m 1
 181.667 888.079 181.667 888.079 141.966 794.12 c 0
 101.5 698.352 101.5 698.352 101.5 573.5 c 0
 101.5 452.597 101.5 452.597 170.619 334.555 c 0
 203.994 277.556 203.994 277.556 248.5 232.148 c 1
 248.5 353.5 l 1
 351.5 353.5 l 1
 351.5 856.5 l 1
 248.5 856.5 l 1
 248.5 955.676 l 1
272.193 209.5 m 1
 311.068 174.692 311.068 174.692 357.437 147.688 c 0
 474.523 79.5 474.523 79.5 615.5 79.5 c 0
 756.216 79.5 756.216 79.5 871.141 147.737 c 1
 917.216 173.858 917.216 173.858 956.818 209.5 c 1
 773.535 209.5 l 1
 757.988 242.485 l 2
 687.314 392.436 687.314 392.436 582.49 514.408 c 0
 566.778 532.5 566.778 532.5 546 532.5 c 2
 499.5 532.5 l 1
 499.5 353.5 l 1
 610.5 353.5 l 1
 610.5 209.5 l 1
 272.193 209.5 l 1
EndSplineSet
EndChar

StartChar: overscore.001
Encoding: 175 175 112
Width: 1228
Flags: W
LayerCount: 2
Fore
SplineSet
1032.5 1116.5 m 1
 231.5 1116.5 l 1
 231.5 1288.5 l 1
 1032.5 1288.5 l 1
 1032.5 1116.5 l 1
EndSplineSet
EndChar

StartChar: degree
Encoding: 176 176 113
Width: 1228
Flags: W
LayerCount: 2
Fore
SplineSet
760.341 1116.34 m 0
 708.187 1168.5 708.187 1168.5 632.5 1168.5 c 0
 556.944 1168.5 556.944 1168.5 504.805 1115.99 c 0
 452.5 1063.31 452.5 1063.31 452.5 987.5 c 0
 452.5 911.817 452.5 911.817 504.159 860.159 c 0
 555.817 808.5 555.817 808.5 631.5 808.5 c 0
 707.183 808.5 707.183 808.5 759.841 861.159 c 0
 812.5 913.817 812.5 913.817 812.5 989 c 0
 812.5 1064.18 812.5 1064.18 760.341 1116.34 c 0
995.5 986 m 0
 995.5 835.989 995.5 835.989 888.431 730.115 c 0
 781.624 624.5 781.624 624.5 631.5 624.5 c 0
 481.562 624.5 481.562 624.5 374.57 729.113 c 1
 268.5 835.183 268.5 835.183 268.5 986 c 0
 268.5 1136.44 268.5 1136.44 374.119 1244.44 c 1
 482.173 1352.5 482.173 1352.5 633 1352.5 c 0
 784.277 1352.5 784.277 1352.5 890.218 1243.59 c 0
 995.5 1135.36 995.5 1135.36 995.5 986 c 0
EndSplineSet
EndChar

StartChar: plusminus
Encoding: 177 177 114
Width: 1228
Flags: W
LayerCount: 2
Fore
SplineSet
1171.5 9.5 m 1
 92.5 9.5 l 1
 92.5 182.5 l 1
 1171.5 182.5 l 1
 1171.5 9.5 l 1
1171.5 657.5 m 1
 718.5 657.5 l 1
 718.5 232.5 l 1
 545.5 232.5 l 1
 545.5 657.5 l 1
 92.5 657.5 l 1
 92.5 829.5 l 1
 545.5 829.5 l 1
 545.5 1254.5 l 1
 718.5 1254.5 l 1
 718.5 829.5 l 1
 1171.5 829.5 l 1
 1171.5 657.5 l 1
EndSplineSet
EndChar

StartChar: twosuperior
Encoding: 178 178 115
Width: 1228
Flags: W
LayerCount: 2
Fore
SplineSet
312.5 479.5 m 1
 312.5 612.256 l 1
 332.341 629.452 l 2
 406.724 693.916 406.724 693.916 523.3 799.527 c 0
 602.945 872.342 602.945 872.342 655.749 925.75 c 0
 708.553 979.157 708.553 979.157 718.098 994.04 c 0
 738.5 1025.85 738.5 1025.85 738.5 1080.5 c 0
 738.5 1127.22 738.5 1127.22 701.452 1163.26 c 1
 660.029 1201.5 660.029 1201.5 610.5 1201.5 c 0
 570.574 1201.5 570.574 1201.5 542.559 1186.31 c 1
 524.666 1173.39 l 2
 493.478 1150.86 493.478 1150.86 492.465 1121.98 c 2
 490.518 1066.5 l 1
 339.5 1066.5 l 1
 339.5 1211.88 l 1
 352.897 1227.89 l 2
 428.438 1318.19 428.438 1318.19 531.455 1343.22 c 0
 569.657 1352.5 569.657 1352.5 611 1352.5 c 0
 727.922 1352.5 727.922 1352.5 812.062 1272.73 c 0
 897.5 1191.72 897.5 1191.72 897.5 1084.5 c 0
 897.5 983.464 897.5 983.464 846.087 914.612 c 0
 804.6 858.102 804.6 858.102 648.032 711.776 c 1
 559.122 630.5 l 1
 746.5 630.5 l 1
 746.5 754.5 l 1
 894.5 754.5 l 1
 894.5 479.5 l 1
 312.5 479.5 l 1
EndSplineSet
EndChar

StartChar: threesuperior
Encoding: 179 179 116
Width: 1228
Flags: W
LayerCount: 2
Fore
SplineSet
360.563 1270.78 m 2
 491.548 1352.5 491.548 1352.5 592 1352.5 c 0
 698.146 1352.5 698.146 1352.5 772.068 1285.65 c 0
 848.5 1216.52 848.5 1216.52 848.5 1105 c 0
 848.5 1021.46 848.5 1021.46 781.699 945.572 c 1
 887.5 858.697 887.5 858.697 887.5 748.5 c 0
 887.5 617.002 887.5 617.002 802.222 537.454 c 0
 718.653 459.5 718.653 459.5 589 459.5 c 0
 536.562 459.5 536.562 459.5 491.119 471.458 c 0
 477.376 475.207 477.376 475.207 356.911 520.124 c 2
 302.586 540.38 l 1
 357.866 684.959 l 1
 413.157 660.631 l 2
 527.099 610.5 527.099 610.5 576 610.5 c 0
 655.954 610.5 655.954 610.5 694.789 647.584 c 0
 732.5 683.596 732.5 683.596 732.5 740.5 c 0
 732.5 795.719 732.5 795.719 700.373 823.52 c 0
 664.574 854.5 664.574 854.5 589 854.5 c 2
 505.5 854.5 l 1
 505.5 1003.02 l 1
 560.466 1005.44 l 2
 611.475 1007.69 611.475 1007.69 627.375 1013.5 c 1
 664.225 1033.41 664.225 1033.41 678.862 1055.66 c 0
 693.5 1077.9 693.5 1077.9 693.5 1109 c 0
 693.5 1149.7 693.5 1149.7 667 1174.75 c 0
 637.343 1201.5 637.343 1201.5 585.5 1201.5 c 0
 530.022 1201.5 530.022 1201.5 456.133 1152.34 c 1
 447.695 1146.38 l 1
 401.296 1099.98 l 1
 311.035 1239.88 l 1
 360.563 1270.78 l 2
EndSplineSet
EndChar

StartChar: acute
Encoding: 180 180 117
Width: 1228
Flags: W
LayerCount: 2
Fore
SplineSet
347.732 1014 m 1
 616.059 1363 l 1
 1018.72 1363 l 1
 844.859 1228.65 l 2
 823.461 1212.12 823.461 1212.12 600.294 1030.79 c 2
 579.628 1014 l 1
 347.732 1014 l 1
EndSplineSet
EndChar

StartChar: micro
Encoding: 181 181 118
Width: 1228
Flags: W
LayerCount: 2
Fore
SplineSet
508.505 -95.8091 m 1
 459.467 -87.6144 459.467 -87.6144 416.54 -68.5359 c 0
 406.327 -63.9969 406.327 -63.9969 396 -58.4488 c 1
 396 -411 l 1
 189 -411 l 1
 189 755 l 1
 11 755 l 1
 11 957 l 1
 396 957 l 1
 396 395 l 2
 396 303.236 396 303.236 407.261 258.19 c 0
 418.296 214.047 418.296 214.047 442.305 168.923 c 0
 451.735 153.302 451.735 153.302 457.759 148.056 c 0
 468.109 139.041 468.109 139.041 489.166 126.563 c 0
 516.713 110.317 516.713 110.317 546.718 104.735 c 0
 582.092 98.1538 582.092 98.1538 619.596 98.0022 c 1
 683.699 100.702 683.699 100.702 738.459 128.082 c 2
 757.871 137.788 l 1
 813.679 172.184 813.679 172.184 842.026 255.242 c 0
 862 313.497 862 313.497 862 395 c 2
 862 755 l 1
 685 755 l 1
 685 957 l 1
 1070 957 l 1
 1070 293.853 l 1
 1151.84 334.771 l 1
 1070 252.934 l 1
 1070 127 l 1
 1249 127 l 1
 1249 -74 l 1
 862 -74 l 1
 862 -35.7022 l 1
 759.829 -99.5883 759.829 -99.5883 615.789 -104.948 c 2
 613.58 -105.03 l 1
 611.37 -104.982 l 2
 601.604 -104.77 601.604 -104.77 591.96 -104.331 c 2
 508.505 -95.8091 l 1
EndSplineSet
EndChar

StartChar: paragraph
Encoding: 182 182 119
Width: 1228
Flags: W
LayerCount: 2
Fore
SplineSet
401 841 m 2
 401 770.969 401 770.969 416.835 741.799 c 0
 432.669 712.63 432.669 712.63 460.778 703.771 c 0
 483.431 697.255 483.431 697.255 522 696.104 c 1
 522 1040.02 l 1
 453.643 1027.62 453.643 1027.62 427.322 996.328 c 0
 401 965.036 401 965.036 401 897 c 2
 401 841 l 2
718 -47 m 1
 797 -47 l 1
 797 1046 l 1
 718 1046 l 1
 718 -47 l 1
1107 -242 m 1
 388 -242 l 1
 388 -47 l 1
 522 -47 l 1
 522 490.064 l 1
 514.09 490 514.09 490 507 490 c 0
 359.688 490 359.688 490 249.825 596.122 c 0
 203.572 641.016 203.572 641.016 177.669 710.951 c 2
 140.243 812 l 1
 155.603 812 l 1
 154.027 826.79 154.027 826.79 153.137 841.463 c 2
 153 843.729 l 1
 153 889.069 l 1
 153.251 892.127 l 2
 159.084 963.292 159.084 963.292 180.627 1021.94 c 0
 221.97 1133.69 221.97 1133.69 324.038 1188.85 c 0
 426.106 1244 426.106 1244 571 1244 c 2
 1098 1244 l 1
 1098 1046 l 1
 993 1046 l 1
 993 -47 l 1
 1107 -47 l 1
 1107 -242 l 1
EndSplineSet
EndChar

StartChar: periodcentered
Encoding: 183 183 120
Width: 1228
Flags: W
LayerCount: 2
Fore
SplineSet
416.289 619 m 1
 416 625.19 416 625.19 416 630 c 0
 416 719.47 416 719.47 487.57 776.909 c 0
 551.087 828 551.087 828 633 828 c 0
 715.384 828 715.384 828 778.069 776.4 c 0
 848 718.953 848 718.953 848 632 c 0
 848 543.343 848 543.343 777.018 485.567 c 0
 712.193 434 712.193 434 632 434 c 0
 551.264 434 551.264 434 485.954 484.799 c 2
 313.41 619 l 1
 416.289 619 l 1
EndSplineSet
EndChar

StartChar: cedilla
Encoding: 184 184 121
Width: 1228
Flags: W
LayerCount: 2
Fore
SplineSet
486.754 -167.393 m 2
 487.872 -159.568 487.872 -159.568 512.721 18.3742 c 2
 521.747 83 l 1
 726.032 83 l 1
 706.753 -70.1604 l 1
 836.109 -93.1266 836.109 -93.1266 899.125 -154.074 c 0
 946.245 -199.569 946.245 -199.569 954.613 -253.5 c 0
 961.729 -299.366 961.729 -299.366 950.291 -337.204 c 0
 938.077 -377.608 938.077 -377.608 901.786 -412.252 c 0
 868.253 -444.262 868.253 -444.262 825.329 -458.297 c 0
 762.569 -480 762.569 -480 694 -480 c 0
 633.189 -480 633.189 -480 595.301 -475.495 c 0
 544.378 -469.716 544.378 -469.716 422.791 -437.498 c 2
 349.334 -418.035 l 1
 402.579 -227.24 l 1
 476.472 -250.446 l 2
 585.56 -284.704 585.56 -284.704 674.891 -284.999 c 1
 705.052 -284.036 705.052 -284.036 726.927 -279.963 c 1
 702.174 -270.561 702.174 -270.561 664.238 -264.076 c 0
 620.16 -257.553 620.16 -257.553 555.5 -252.798 c 2
 475.395 -246.908 l 1
 486.754 -167.393 l 2
EndSplineSet
EndChar

StartChar: onesuperior
Encoding: 185 185 122
Width: 1228
Flags: W
LayerCount: 2
Fore
SplineSet
324.133 1217.51 m 1
 624.68 1352.5 l 1
 720.5 1352.5 l 1
 720.5 630.5 l 1
 936.5 630.5 l 1
 936.5 479.5 l 1
 346.5 479.5 l 1
 346.5 630.5 l 1
 567.5 630.5 l 1
 567.5 1162.66 l 1
 514.693 1139.15 514.693 1139.15 440.052 1104.77 c 2
 388.177 1080.88 l 1
 324.133 1217.51 l 1
EndSplineSet
EndChar

StartChar: ordmasculine
Encoding: 186 186 123
Width: 1228
Flags: W
LayerCount: 2
Fore
SplineSet
928.5 518.5 m 1
 336.5 518.5 l 1
 336.5 660.5 l 1
 928.5 660.5 l 1
 928.5 518.5 l 1
733.862 1089.25 m 0
 693.42 1120.5 693.42 1120.5 632 1120.5 c 0
 562.493 1120.5 562.493 1120.5 515.995 1077.67 c 1
 473.5 1034.43 473.5 1034.43 473.5 969.5 c 0
 473.5 904.189 473.5 904.189 516.156 861.164 c 1
 561.373 818.5 561.373 818.5 632.5 818.5 c 0
 703.459 818.5 703.459 818.5 747.679 861.993 c 0
 791.5 905.094 791.5 905.094 791.5 970 c 0
 791.5 1034.35 791.5 1034.35 746.345 1077.36 c 0
 737.83 1085.47 737.83 1085.47 733.862 1089.25 c 0
854.149 757.885 m 2
 766.598 676.5 766.598 676.5 631 676.5 c 0
 495.187 676.5 495.187 676.5 409.573 757.146 c 0
 322.5 839.167 322.5 839.167 322.5 969 c 0
 322.5 1098.69 322.5 1098.69 409.905 1181.69 c 0
 496.05 1263.5 496.05 1263.5 630.5 1263.5 c 0
 764.722 1263.5 764.722 1263.5 852.307 1181.47 c 0
 941.5 1097.93 941.5 1097.93 941.5 970 c 0
 941.5 909.409 941.5 909.409 921.04 857.5 c 1
 961.31 857.5 l 1
 854.149 757.885 l 2
EndSplineSet
EndChar

StartChar: guillemotright
Encoding: 187 187 124
Width: 1228
Flags: W
LayerCount: 2
Fore
SplineSet
135.678 878.365 m 2
 164.726 912.793 164.726 912.793 175.967 924.033 c 2
 225.416 973.482 l 1
 809.739 465.647 l 1
 221.112 -39.6118 l 1
 172.238 16.9785 l 2
 151.109 41.4435 151.109 41.4435 136.199 62.0882 c 2
 95.8899 117.901 l 1
 500.101 466.025 l 1
 151.812 766.265 151.812 766.265 143.173 773.944 c 2
 88.5443 822.503 l 1
 135.678 878.365 l 2
513.554 881.581 m 2
 537.832 907.209 537.832 907.209 546.056 916.292 c 1
 590.871 983.515 l 1
 1186.79 465.607 l 1
 1120.81 409.056 l 2
 1008.75 313.012 1008.75 313.012 654.77 10.0217 c 2
 595.487 -40.7204 l 1
 472.77 114.721 l 1
 877.216 465.694 l 1
 459.383 824.4 l 1
 513.554 881.581 l 2
EndSplineSet
EndChar

StartChar: questiondown
Encoding: 191 191 128
Width: 1228
Flags: W
LayerCount: 2
Fore
SplineSet
832.167 682.511 m 2
 774.264 634 774.264 634 694.5 634 c 0
 614.205 634 614.205 634 557.625 682.612 c 0
 496 735.559 496 735.559 496 815.5 c 0
 496 895.346 496 895.346 558.499 949.279 c 0
 616.116 999 616.116 999 696 999 c 0
 775.795 999 775.795 999 832.375 950.388 c 0
 894 897.441 894 897.441 894 818 c 0
 894 740.635 894 740.635 835.451 685.431 c 2
 833.852 683.923 l 1
 832.167 682.511 l 2
790 272.553 m 1
 708.39 254.811 l 2
 684.25 249.226 684.25 249.226 673.722 246.278 c 0
 660.969 242.707 660.969 242.707 649.734 239.643 c 2
 646.328 238.714 l 1
 642.851 238.109 l 2
 626.765 235.312 626.765 235.312 617.334 231.775 c 0
 598.082 224.556 598.082 224.556 589.234 222.143 c 0
 587.872 221.771 587.872 221.771 586.854 221.364 c 2
 573.444 216 l 1
 570.354 216 l 1
 520.244 198.068 520.244 198.068 480.642 168.733 c 0
 441.19 139.509 441.19 139.509 425.22 107.236 c 0
 408.249 72.9408 408.249 72.9408 404.016 17.5095 c 1
 404.949 -46.0413 404.949 -46.0413 450.924 -101.356 c 0
 473.996 -129.701 473.996 -129.701 524.119 -149.971 c 0
 578.592 -172 578.592 -172 669 -172 c 0
 743.33 -172 743.33 -172 851 -134.842 c 1
 851 18 l 1
 1059 18 l 1
 1059 -288.057 l 1
 1007.72 -305.151 l 2
 882.178 -346.998 882.178 -346.998 835.938 -358.826 c 0
 750.761 -379 750.761 -379 654 -379 c 0
 443.026 -379 443.026 -379 318.809 -260.842 c 0
 193 -141.169 193 -141.169 193 26 c 0
 193 141.16 193 141.16 253.476 229.45 c 1
 323.572 339.029 323.572 339.029 516.38 408.49 c 0
 551.822 421.548 551.822 421.548 584 431.662 c 1
 584 574 l 1
 790 574 l 1
 790 272.553 l 1
EndSplineSet
EndChar

StartChar: AE
Encoding: 198 198 135
Width: 1228
Flags: W
LayerCount: 2
Fore
SplineSet
828 831.857 m 1
 1009.24 831.857 l 1
 998.079 953 l 1
 789 953 l 1
 789 713 l 1
 828 713 l 1
 828 831.857 l 1
477.763 518 m 1
 582 518 l 1
 582 792.089 l 1
 477.763 518 l 1
1026 379.625 m 2
 1026 387.039 l 1
 828 387.039 l 1
 828 512 l 1
 789 512 l 1
 789 200 l 1
 1016.28 200 l 1
 1025.44 365.403 1025.44 365.403 1026 379.625 c 2
1026 723.833 m 1
 1026 439.786 l 1
 1226 439.786 l 1
 1226 0 l 1
 582 0 l 1
 582 318 l 1
 403.124 318 l 1
 323.223 200 l 1
 488 200 l 1
 488 0 l 1
 -22 0 l 1
 -22 200 l 1
 106.392 200 l 1
 470.851 953 l 1
 275 953 l 1
 275 1153 l 1
 1210 1153 l 1
 1210 723.833 l 1
 1026 723.833 l 1
EndSplineSet
EndChar

StartChar: Eth
Encoding: 208 208 145
Width: 1228
Flags: W
LayerCount: 2
Fore
SplineSet
385 200 m 1
 585 200 l 2
 668.829 200 668.829 200 718.848 208.049 c 0
 811.268 222.793 811.268 222.793 865.967 268.406 c 0
 999 379.343 999 379.343 999 590.259 c 0
 999 748.994 999 748.994 908.392 854.451 c 1
 854.34 915.159 854.34 915.159 793.127 934.022 c 1
 725.46 953 725.46 953 596 953 c 2
 385 953 l 1
 385 710 l 1
 740 710 l 1
 740 510 l 1
 385 510 l 1
 385 200 l 1
10 200 m 1
 178 200 l 1
 178 510 l 1
 10 510 l 1
 10 710 l 1
 178 710 l 1
 178 953 l 1
 10 953 l 1
 10 1153 l 1
 594 1153 l 2
 756.961 1153 756.961 1153 839.459 1128.36 c 0
 924.288 1106.04 924.288 1106.04 977 1071.21 c 0
 1025.82 1038.95 1025.82 1038.95 1070.33 992.496 c 1
 1214 829.018 1214 829.018 1214 595.809 c 0
 1214 288.517 1214 288.517 1020.71 123.205 c 1
 913.591 35.1091 913.591 35.1091 770.729 15.9203 c 1
 674.696 0 674.696 0 585 0 c 2
 10 0 l 1
 10 200 l 1
EndSplineSet
EndChar

StartChar: multiply
Encoding: 215 215 152
Width: 1228
Flags: W
LayerCount: 2
Fore
SplineSet
948.349 1047.73 m 1
 1096.72 902.975 l 1
 777.983 637.917 l 1
 1094.98 372.95 l 1
 947.749 225.716 l 1
 631.749 491.683 l 1
 527.033 440 l 2
 443.191 355.976 443.191 355.976 367.378 279 c 2
 314.348 225.619 l 1
 238.967 301 l 2
 229.706 309.153 229.706 309.153 218.505 320 c 2
 170.324 375.665 l 1
 486.824 638.057 l 1
 349.914 747.022 349.914 747.022 221.315 848.242 c 2
 166.919 901.627 l 1
 315.567 1046.65 l 1
 631.916 784.982 l 1
 948.349 1047.73 l 1
EndSplineSet
EndChar

StartChar: Oslash
Encoding: 216 216 153
Width: 1228
Flags: W
LayerCount: 2
Fore
SplineSet
307.582 226.092 m 1
 839.7 912.992 l 1
 753.137 982 753.137 982 625 982 c 0
 512.66 982 512.66 982 424.829 915.627 c 1
 333.482 843.651 333.482 843.651 289.681 739.034 c 0
 244 629.927 244 629.927 244 533.5 c 0
 244 430.751 244 430.751 268.485 327.269 c 0
 280.742 275.467 280.742 275.467 307.582 226.092 c 1
957.241 898.418 m 1
 436.525 228.809 l 1
 528.184 171 528.184 171 619 171 c 0
 741.776 171 741.776 171 826.716 232.253 c 1
 913.86 292.584 913.86 292.584 961.332 400.66 c 0
 1011 513.739 1011 513.739 1011 648 c 0
 1011 773.257 1011 773.257 957.241 898.418 c 1
1203.14 1077.14 m 1
 1102.44 963.146 l 1
 1227 801.034 1227 801.034 1227 574.229 c 0
 1227 323.751 1227 323.751 1072.11 155.683 c 0
 988.022 64.1827 988.022 64.1827 877.487 16.6505 c 0
 766.952 -37 766.952 -37 637 -37 c 0
 462.116 -37 462.116 -37 312.466 62.1286 c 1
 198.396 -76.4618 l 1
 139.995 -18.061 l 2
 137.495 -15.6822 137.495 -15.6822 131.086 -10.6982 c 0
 124.517 -5.59008 124.517 -5.59008 115.177 1.13493 c 2
 52.8943 45.9786 l 1
 167.521 178.675 l 1
 60.3323 313.93 60.3323 313.93 38.783 445.011 c 0
 29 503.007 29 503.007 29 572.546 c 0
 29 737.103 29 737.103 98.1382 871.112 c 0
 169.235 1008.92 169.235 1008.92 308.467 1092.77 c 0
 449.667 1190 449.667 1190 616.5 1190 c 0
 779.023 1190 779.023 1190 879.351 1133.6 c 0
 924.589 1108.96 924.589 1108.96 968.6 1076.56 c 1
 1006.43 1123.85 l 2
 1049.82 1178.08 1049.82 1178.08 1052.94 1181.98 c 1
 1203.14 1077.14 l 1
EndSplineSet
EndChar

StartChar: Thorn
Encoding: 222 222 159
Width: 1228
Flags: W
LayerCount: 2
Fore
SplineSet
468 388 m 1
 666.488 388 l 2
 736.717 387.087 736.717 387.087 790.084 396.79 c 0
 837.581 405.426 837.581 405.426 870.664 424.757 c 0
 902.09 443.119 902.09 443.119 923 471 c 0
 943.734 498.646 943.734 498.646 955.17 545.913 c 0
 958.379 558.747 958.379 558.747 960.346 571.735 c 0
 962 582.652 962 582.652 962 596 c 0
 962 661.768 962 661.768 934.753 711.413 c 0
 909.24 757.898 909.24 757.898 863.226 785.455 c 1
 838.086 796.929 838.086 796.929 811.73 802.786 c 0
 779.618 809.922 779.618 809.922 748.102 813.472 c 0
 716.23 817.062 716.23 817.062 686.383 817.508 c 0
 653.51 818 653.51 818 627 818 c 2
 468 818 l 1
 468 388 l 1
710 200 m 1
 710 0 l 1
 88 0 l 1
 88 200 l 1
 261 200 l 1
 261 953 l 1
 88 953 l 1
 88 1153 l 1
 710 1153 l 1
 710 953 l 1
 468 953 l 1
 468 944.661 l 1
 535 944.661 l 2
 738.425 944.661 738.425 944.661 805.845 936.499 c 0
 923.219 922.104 923.219 922.104 983.908 890.879 c 1
 1075.06 842.234 1075.06 842.234 1126.23 767.06 c 0
 1178 691 1178 691 1178 598.598 c 0
 1178 505.752 1178 505.752 1137.53 440.895 c 0
 1098.54 378.409 1098.54 378.409 1042.88 339.906 c 0
 988.837 302.519 988.837 302.519 931.068 285.051 c 0
 879.235 269.377 879.235 269.377 843.383 264.805 c 0
 794.894 258.575 794.894 258.575 718.067 255.524 c 0
 642.781 252.535 642.781 252.535 535 252.535 c 2
 468 252.535 l 1
 468 200 l 1
 710 200 l 1
EndSplineSet
EndChar

StartChar: germandbls
Encoding: 223 223 160
Width: 1228
Flags: W
LayerCount: 2
Fore
SplineSet
560.204 605.514 m 2
 490 609.139 l 1
 490 761.967 l 1
 556.912 767.815 l 2
 684.701 778.987 684.701 778.987 734.851 814.516 c 0
 785 858.607 785 858.607 785 941 c 0
 785 1002.35 785 1002.35 765.4 1034.46 c 0
 745.8 1066.56 745.8 1066.56 701.752 1084.52 c 0
 673.401 1096 673.401 1096 637 1096 c 0
 563.066 1096 563.066 1096 507.269 1047.45 c 0
 446 993.935 446 993.935 446 859 c 2
 446 276.246 l 1
 549.489 232.493 l 2
 645.268 192 645.268 192 737 192 c 0
 801.525 192 801.525 192 863.165 231.146 c 0
 889.564 248.444 889.564 248.444 907.564 282.288 c 0
 927 318.833 927 318.833 927 366.865 c 0
 927 479.686 927 479.686 842.581 537.488 c 0
 758.162 595.289 758.162 595.289 560.204 605.514 c 2
476.025 54.9224 m 2
 446 73.1849 l 1
 446 0 l 1
 74 0 l 1
 74 201 l 1
 239 201 l 1
 239 877 l 2
 239 1065.6 239 1065.6 355.961 1185.03 c 1
 476.377 1303 476.377 1303 637.5 1303 c 0
 800.739 1303 800.739 1303 899.495 1196.5 c 0
 996 1092.42 996 1092.42 996 943 c 0
 996 851.307 996 851.307 935.561 774.302 c 0
 910.445 742.302 910.445 742.302 869.156 713.979 c 1
 941.808 685.283 941.808 685.283 980.898 658.132 c 0
 1144 545.317 1144 545.317 1144 342.953 c 0
 1144 196.59 1144 196.59 1038.34 92.6379 c 0
 928.929 -15 928.929 -15 753.5 -15 c 0
 590.982 -15 590.982 -15 476.025 54.9224 c 2
EndSplineSet
EndChar

StartChar: ae
Encoding: 230 230 167
Width: 1228
Flags: W
LayerCount: 2
Fore
SplineSet
726.7 566 m 1
 1039.42 566 l 1
 1032.7 612.109 1032.7 612.109 1019.45 643.486 c 0
 1006.19 674.863 1006.19 674.863 987.11 690.997 c 0
 968.031 707.131 968.031 707.131 947.676 713.566 c 0
 927.321 720 927.321 720 901 720 c 0
 874.42 720 874.42 720 846.744 710.271 c 0
 814.76 699.028 814.76 699.028 788.818 679.588 c 0
 762.097 659.564 762.097 659.564 744.97 632.601 c 0
 728.76 607.08 728.76 607.08 726.999 578.487 c 0
 726.968 572.306 726.968 572.306 726.7 566 c 1
518 241.944 m 1
 518 388.479 l 1
 448.637 397 448.637 397 401 397 c 0
 356.051 397 356.051 397 318.997 387.822 c 0
 285.165 379.442 285.165 379.442 261.728 363.855 c 0
 239.275 348.924 239.275 348.924 225.898 325.571 c 0
 212 301.31 212 301.31 212 267.106 c 0
 212 247.713 212 247.713 220.151 229.352 c 0
 227.973 211.734 227.973 211.734 242.762 197.733 c 0
 255.709 185.477 255.709 185.477 275.323 177.897 c 0
 293.169 171 293.169 171 320 171 c 0
 398.141 171 398.141 171 518 241.944 c 1
480.984 919.62 m 1
 541.837 903.694 l 1
 586.374 886.536 586.374 886.536 619.17 855.362 c 0
 638.261 837.214 638.261 837.214 654.486 813.736 c 1
 679.753 838.909 679.753 838.909 707.317 858.32 c 0
 751.47 889.415 751.47 889.415 800.467 906.374 c 0
 851.391 924 851.391 924 903 924 c 2
 914 924 l 2
 926.921 924 926.921 924 950.098 918.406 c 0
 966.094 914.545 966.094 914.545 985.104 909.114 c 0
 1005.94 903.162 1005.94 903.162 1027.18 894.9 c 0
 1050.68 885.762 1050.68 885.762 1067.79 875.783 c 2
 1069.29 874.909 l 1
 1070.74 873.968 l 2
 1095.35 858.045 1095.35 858.045 1118.07 833.951 c 0
 1138.61 815.169 1138.61 815.169 1155.94 793.299 c 0
 1172.2 772.768 1172.2 772.768 1185.09 752.058 c 0
 1198.47 730.558 1198.47 730.558 1206.28 712.601 c 0
 1228.79 660.198 1228.79 660.198 1240.96 597.705 c 0
 1253 535.929 1253 535.929 1253 460.695 c 2
 1253 365 l 1
 727.11 365 l 1
 728.117 351.834 728.117 351.834 729.288 340.643 c 0
 732.359 311.317 732.359 311.317 739.061 290.531 c 0
 744.992 272.138 744.992 272.138 754.837 258.232 c 0
 765.713 242.87 765.713 242.87 785.271 224.526 c 1
 811.813 197.856 811.813 197.856 849.195 185.428 c 0
 886.577 173 886.577 173 946 173 c 0
 1028.73 173 1028.73 173 1136.1 209.091 c 2
 1201.5 231.074 l 1
 1281.49 45.8289 l 1
 1200.05 22.0142 l 2
 1018.74 -31 1018.74 -31 950 -31 c 0
 847.625 -31 847.625 -31 759.518 12.1416 c 0
 681.777 50.207 681.777 50.207 636.334 105.097 c 1
 473.7 -33 473.7 -33 323 -33 c 0
 268.5 -33 268.5 -33 220 -17.7944 c 1
 220 -94.2434 l 1
 86.7915 69.7056 l 2
 5 157.919 5 157.919 5 272.388 c 0
 5 334.939 5 334.939 31.8198 393.969 c 0
 58.9501 453.681 58.9501 453.681 111.15 499.976 c 0
 162.965 545.928 162.965 545.928 235.956 573.34 c 0
 309.605 601 309.605 601 400 601 c 0
 422.836 601 422.836 601 518 588.176 c 1
 518 604.68 l 2
 518 665.704 518 665.704 496.198 695.043 c 1
 492.051 699.448 l 2
 482.35 709.752 482.35 709.752 465.3 714.876 c 0
 448.25 720 448.25 720 412 720 c 0
 309.568 720 309.568 720 191.275 675.753 c 2
 116.496 647.782 l 1
 58.0929 839.677 l 1
 126.903 863.023 l 2
 306.627 924 306.627 924 421 924 c 0
 452.685 924 452.685 924 480.984 919.62 c 1
EndSplineSet
EndChar

StartChar: eth
Encoding: 240 240 177
Width: 1228
Flags: W
LayerCount: 2
Fore
SplineSet
994.079 560.96 m 2
 982.878 586.484 l 1
 921.626 699.581 921.626 699.581 762.636 742.542 c 0
 704.198 758 704.198 758 632 758 c 0
 451.647 758 451.647 758 348.63 666.714 c 0
 243.5 573.588 243.5 573.588 243.5 446.156 c 0
 243.5 321.137 243.5 321.137 347.794 227.984 c 0
 450.779 136 450.779 136 632 136 c 0
 720.694 136 720.694 136 787.229 158.972 c 0
 855.355 182.493 855.355 182.493 896.136 212.609 c 0
 937.782 243.364 937.782 243.364 965.294 280.369 c 0
 992.812 317.382 992.812 317.382 1006.57 359.473 c 0
 1020.5 402.089 1020.5 402.089 1020.5 452.486 c 0
 1020.5 500.751 1020.5 500.751 994.079 560.96 c 2
597.779 1488.18 m 1
 647.512 1455.6 l 2
 676.872 1436.36 676.872 1436.36 699.392 1421.01 c 2
 745.351 1389.67 l 1
 661.295 1257.16 l 1
 673.44 1249.44 673.44 1249.44 689.82 1239.04 c 0
 755.365 1197.43 755.365 1197.43 796.66 1164.61 c 0
 898.938 1084.25 898.938 1084.25 945.126 1030.46 c 0
 988.417 980.039 988.417 980.039 1016.71 944.025 c 0
 1045.86 906.926 1045.86 906.926 1069.28 870.737 c 0
 1093.18 838.245 1093.18 838.245 1112.7 802.959 c 0
 1201.5 642.039 1201.5 642.039 1201.5 464.181 c 0
 1201.5 317.775 1201.5 317.775 1124.19 200.496 c 1
 1041.03 84.8641 1041.03 84.8641 918.715 31.0704 c 2
 835.5 -10.537 l 1
 835.5 -1.22746 l 1
 740.666 -31 740.666 -31 632 -31 c 0
 441.637 -31 441.637 -31 289.291 55.7119 c 0
 241.285 82.1782 241.285 82.1782 205.701 114.717 c 2
 204.628 115.698 l 1
 203.617 116.728 l 2
 62.5 260.439 62.5 260.439 62.5 442.493 c 0
 62.5 586.237 62.5 586.237 141.278 695.443 c 1
 212.596 798.221 212.596 798.221 345.519 861.547 c 1
 470.43 924 470.43 924 635.5 924 c 0
 732.131 924 732.131 924 820.716 899.833 c 1
 793.961 930.476 793.961 930.476 777.394 945.846 c 0
 737.46 982.894 737.46 982.894 703.999 1009.67 c 0
 650.355 1052.88 650.355 1052.88 566.679 1104.33 c 1
 505.01 1006.61 505.01 1006.61 484.408 974.469 c 2
 451.537 923.19 l 1
 306.563 1028.37 l 1
 410.91 1185.36 l 1
 301.526 1234.78 301.526 1234.78 231.925 1259.26 c 2
 177.178 1278.51 l 1
 237.07 1443.92 l 1
 290.34 1426 l 2
 380.677 1395.59 380.677 1395.59 506.571 1338.26 c 1
 597.779 1488.18 l 1
EndSplineSet
EndChar

StartChar: divide
Encoding: 247 247 184
Width: 1228
Flags: W
LayerCount: 2
Fore
SplineSet
734.786 210.748 m 0
 691.051 169 691.051 169 632 169 c 0
 572.45 169 572.45 169 529.095 211.347 c 0
 485 254.415 485 254.415 485 316 c 0
 485 377.586 485 377.586 529.095 420.653 c 0
 572.451 463 572.451 463 632 463 c 0
 690.526 463 690.526 463 734.129 422.371 c 0
 780 379.628 780 379.628 780 316.5 c 0
 780 253.909 780 253.909 734.786 210.748 c 0
1189 735 m 1
 1189 527 l 1
 75 527 l 1
 75 735 l 1
 1189 735 l 1
529.744 1051.78 m 0
 572.977 1093 572.977 1093 632 1093 c 0
 692.549 1093 692.549 1093 735.905 1050.65 c 0
 780 1007.59 780 1007.59 780 947 c 0
 780 887.948 780 887.948 738.252 844.214 c 0
 695.09 799 695.09 799 632.5 799 c 0
 570.414 799 570.414 799 527.347 843.095 c 0
 485 886.451 485 886.451 485 947 c 0
 485 1009.12 485 1009.12 529.744 1051.78 c 0
EndSplineSet
EndChar

StartChar: oslash
Encoding: 248 248 185
Width: 1228
Flags: W
LayerCount: 2
Fore
SplineSet
885.245 260.991 m 0
 1003 361.574 1003 361.574 1003 528 c 0
 1003 581.553 1003 581.553 977.669 649.951 c 2
 967.041 678.646 l 2
 962.937 687.594 962.937 687.594 958.305 696.331 c 1
 461.106 208.891 l 1
 535.253 177 535.253 177 632 177 c 0
 787.252 177 787.252 177 885.245 260.991 c 0
1181.96 624.084 m 0
 1219 539.9 1219 539.9 1219 449.177 c 0
 1219 310.21 1219 310.21 1137.25 196.939 c 0
 1134.72 193.536 1134.72 193.536 1130.91 188.273 c 0
 1127.1 183.01 1127.1 183.01 1125.06 180.27 c 0
 1014.69 31.8702 1014.69 31.8702 790.963 -14.0575 c 0
 716.413 -31 716.413 -31 608.5 -31 c 0
 494.523 -31 494.523 -31 382.585 13.8886 c 0
 339.816 31.0393 339.816 31.0393 302.33 53.2324 c 1
 196.477 -50.543 l 1
 144.25 1.68428 l 2
 140.392 5.35654 140.392 5.35654 123.63 20.6631 c 0
 113.391 30.0119 113.391 30.0119 98.5495 43.5045 c 2
 39.8265 89.1184 l 1
 96.442 136.638 l 2
 119.516 156.003 119.516 156.003 144.846 177.26 c 1
 45 297.324 45 297.324 45 451.495 c 0
 45 643.536 45 643.536 194.357 779.064 c 0
 353.525 924 353.525 924 632 924 c 0
 772.447 924 772.447 924 886.188 878.502 c 0
 922.303 863.654 922.303 863.654 955.236 844.541 c 1
 1066.42 953.388 l 1
 1221.78 824.605 l 1
 1114.4 733.462 l 1
 1154.78 684.186 1154.78 684.186 1181.96 624.084 c 0
301.347 203.677 m 1
 516.863 415.178 516.863 415.178 794.652 687.283 c 1
 778.268 693.718 778.268 693.718 760.55 699.132 c 0
 702.71 716 702.71 716 621 716 c 0
 542.367 716 542.367 716 470.214 687.308 c 0
 413.946 664.933 413.946 664.933 374.099 628.984 c 1
 356.353 610.32 l 2
 261 510.031 261 510.031 261 371 c 0
 261 276.924 261 276.924 301.347 203.677 c 1
EndSplineSet
EndChar

StartChar: thorn
Encoding: 254 254 191
Width: 1228
Flags: W
LayerCount: 2
Fore
SplineSet
922.907 240.612 m 0
 1021.5 324.657 1021.5 324.657 1021.5 451.089 c 0
 1021.5 556.754 1021.5 556.754 938.228 645.407 c 1
 899.289 684.56 899.289 684.56 835.107 710.277 c 0
 770.908 736 770.908 736 690 736 c 0
 535.6 736 535.6 736 434.398 652.639 c 0
 333.5 569.529 333.5 569.529 333.5 454.426 c 0
 333.5 316.34 333.5 316.34 451.338 232.276 c 0
 557.184 157 557.184 157 692.5 157 c 0
 824.821 157 824.821 157 922.907 240.612 c 0
-22.5 1125.57 m 1
 -22.5 1291.87 l 1
 342.5 1312.31 l 1
 342.5 774.512 l 1
 479.591 908 479.591 908 688 908 c 0
 835.39 908 835.39 908 957.312 832.361 c 0
 1078.44 766.836 1078.44 766.836 1140.72 665.138 c 0
 1202.5 564.261 1202.5 564.261 1202.5 470.615 c 0
 1202.5 320.33 1202.5 320.33 1125.91 212.307 c 0
 1049.95 105.18 1049.95 105.18 933.238 49.133 c 0
 816.782 -15 816.782 -15 692 -15 c 2
 674 -15 l 2
 634.45 -15 634.45 -15 582.571 -3.0275 c 0
 532.009 8.64101 532.009 8.64101 498.24 23.1964 c 0
 465.542 37.2899 465.542 37.2899 439.103 53.3836 c 0
 413.531 68.9495 413.531 68.9495 386.7 90.1079 c 0
 363.475 107.908 363.475 107.908 342.5 127.266 c 1
 342.5 -174 l 1
 664.5 -174 l 1
 664.5 -341 l 1
 -7.5 -341 l 1
 -7.5 -174 l 1
 170.5 -174 l 1
 170.5 1133.57 l 1
 -22.5 1125.57 l 1
EndSplineSet
EndChar

StartChar: Hbar
Encoding: 294 294 231
Width: 1228
Flags: W
LayerCount: 2
Fore
SplineSet
373 696 m 1
 854 696 l 1
 854 775 l 1
 373 775 l 1
 373 696 l 1
1224 200 m 1
 1224 0 l 1
 694 0 l 1
 694 200 l 1
 854 200 l 1
 854 496 l 1
 373 496 l 1
 373 200 l 1
 533 200 l 1
 533 0 l 1
 6 0 l 1
 6 200 l 1
 166 200 l 1
 166 742.027 l 1
 6 742.027 l 1
 6 908.804 l 1
 166 908.804 l 1
 166 953 l 1
 6 953 l 1
 6 1153 l 1
 533 1153 l 1
 533 953 l 1
 373 953 l 1
 373 900 l 1
 854 900 l 1
 854 953 l 1
 694 953 l 1
 694 1153 l 1
 1224 1153 l 1
 1224 953 l 1
 1061 953 l 1
 1061 908.804 l 1
 1224 908.804 l 1
 1224 742.027 l 1
 1061 742.027 l 1
 1061 200 l 1
 1224 200 l 1
EndSplineSet
EndChar

StartChar: Idotaccent
Encoding: 304 304 241
Width: 1228
Flags: W
LayerCount: 2
Fore
SplineSet
741 1544 m 1
 741 1213 l 1
 487 1213 l 1
 487 1544 l 1
 741 1544 l 1
1091 200 m 1
 1091 0 l 1
 137 0 l 1
 137 200 l 1
 510 200 l 1
 510 953 l 1
 137 953 l 1
 137 1153 l 1
 1091 1153 l 1
 1091 953 l 1
 718 953 l 1
 718 200 l 1
 1091 200 l 1
EndSplineSet
EndChar

StartChar: dotlessi
Encoding: 305 305 242
Width: 1228
Flags: W
LayerCount: 2
Fore
SplineSet
1096 201 m 1
 1096 0 l 1
 133 0 l 1
 133 201 l 1
 513 201 l 1
 513 679 l 1
 195 679 l 1
 195 881 l 1
 722 881 l 1
 722 201 l 1
 1096 201 l 1
EndSplineSet
EndChar

StartChar: IJ
Encoding: 306 306 243
Width: 1228
Flags: W
LayerCount: 2
Fore
SplineSet
510 200 m 1
 510 0 l 1
 -42 0 l 1
 -42 200 l 1
 128 200 l 1
 128 953 l 1
 -42 953 l 1
 -42 1153 l 1
 510 1153 l 1
 510 953 l 1
 336 953 l 1
 336 200 l 1
 510 200 l 1
1115 953 m 1
 1115 283.934 l 2
 1115 132.55 1115 132.55 1019.39 48.3206 c 1
 933.068 -38 933.068 -38 805 -38 c 0
 682.055 -38 682.055 -38 586.527 46.6283 c 0
 554.656 74.6061 554.656 74.6061 534.935 107.004 c 2
 524 124.969 l 1
 524 592 l 1
 730 592 l 1
 730 189.646 l 1
 740.002 181.69 740.002 181.69 752.882 175.408 c 0
 778.317 163 778.317 163 799.5 163 c 0
 824.399 163 824.399 163 843.666 169.072 c 0
 858.362 173.704 858.362 173.704 870.991 185.59 c 0
 908 220.581 908 220.581 908 297.468 c 2
 908 953 l 1
 662 953 l 1
 662 1153 l 1
 1255 1153 l 1
 1255 953 l 1
 1115 953 l 1
EndSplineSet
EndChar

StartChar: ij
Encoding: 307 307 244
Width: 1228
Flags: W
LayerCount: 2
Fore
SplineSet
1072 1343 m 1
 1072 986 l 1
 817 986 l 1
 817 1343 l 1
 1072 1343 l 1
355.263 -146.085 m 1
 426.978 -161.722 l 2
 552.081 -189 552.081 -189 644 -189 c 0
 788.882 -189 788.882 -189 838.608 -143.536 c 1
 872.719 -114.993 872.719 -114.993 884.148 -85.3454 c 1
 902.857 -27.0026 902.857 -27.0026 905.178 6.66016 c 0
 908 47.5925 908 47.5925 908 57 c 2
 908 679 l 1
 582 679 l 1
 582 881 l 1
 1116 881 l 1
 1116 44 l 2
 1116 2.75241 1116 2.75241 1112.52 -27.9367 c 0
 1109.11 -58.1143 1109.11 -58.1143 1105.34 -75.7147 c 0
 1101.97 -91.4257 1101.97 -91.4257 1096.31 -110.939 c 0
 1059.28 -252.522 1059.28 -252.522 945.326 -324.261 c 0
 831.373 -396 831.373 -396 661 -396 c 0
 554.76 -396 554.76 -396 383.637 -362.612 c 2
 306.748 -347.609 l 1
 355.263 -146.085 l 1
447 1343 m 1
 447 986 l 1
 191 986 l 1
 191 1343 l 1
 447 1343 l 1
722 201 m 1
 722 0 l 1
 -21 0 l 1
 -21 201 l 1
 239 201 l 1
 239 679 l 1
 37 679 l 1
 37 881 l 1
 447 881 l 1
 447 201 l 1
 722 201 l 1
EndSplineSet
EndChar

StartChar: kgreenlandic
Encoding: 312 312 249
Width: 1228
Flags: W
LayerCount: 2
Fore
SplineSet
681 201 m 1
 763.683 201 l 1
 648.598 324.434 648.598 324.434 487.461 474.173 c 1
 419 421.902 l 1
 419 0 l 1
 34 0 l 1
 34 201 l 1
 211 201 l 1
 211 679 l 1
 1 679 l 1
 1 881 l 1
 419 881 l 1
 419 516.594 l 1
 631.78 679 l 1
 594 679 l 1
 594 881 l 1
 1148 881 l 1
 1148 679 l 1
 952.453 679 l 1
 648.736 501.67 l 1
 717.241 453.567 717.241 453.567 761.033 420.235 c 2
 855.543 348.299 l 1
 947.274 275.738 947.274 275.738 1028.54 201 c 1
 1228 201 l 1
 1228 0 l 1
 681 0 l 1
 681 201 l 1
EndSplineSet
EndChar

StartChar: Lslash
Encoding: 321 321 258
Width: 1228
Flags: W
LayerCount: 2
Fore
SplineSet
468 200 m 1
 977.407 200 l 1
 991.746 433.559 991.746 433.559 1002.25 563.061 c 2
 1007.83 632 l 1
 1206.5 632 l 1
 1177.65 0 l 1
 48 0 l 1
 48 200 l 1
 262 200 l 1
 262 405.176 l 1
 105.849 315.827 l 1
 63.3356 367.035 l 2
 44.7884 389.376 44.7884 389.376 25.2654 414.224 c 2
 -14.9668 465.43 l 1
 262 623.91 l 1
 262 953 l 1
 48 953 l 1
 48 1153 l 1
 731 1153 l 1
 731 953 l 1
 468 953 l 1
 468 741.782 l 1
 722.979 887.68 l 1
 843.709 738.027 l 1
 468 523.048 l 1
 468 200 l 1
EndSplineSet
EndChar

StartChar: lslash
Encoding: 322 322 259
Width: 1228
Flags: W
LayerCount: 2
Fore
SplineSet
164.513 1038.68 m 1
 136.516 1238.66 l 1
 717 1275.98 l 1
 717 809.075 l 1
 719.476 810.78 l 2
 796.495 863.79 796.495 863.79 876.51 918.803 c 2
 938.691 961.552 l 1
 1060.96 811.045 l 1
 717 613.987 l 1
 717 201 l 1
 1094 201 l 1
 1094 0 l 1
 133 0 l 1
 133 201 l 1
 509 201 l 1
 509 500.778 l 1
 313.013 386.22 l 1
 192.328 539.1 l 1
 253.51 574.946 l 2
 333.453 621.783 333.453 621.783 410.892 667.34 c 0
 460.891 696.753 460.891 696.753 509 725.002 c 1
 509 1065.85 l 1
 234.897 1044.23 l 2
 223.555 1043.34 223.555 1043.34 200.094 1041.49 c 0
 176.633 1039.64 176.633 1039.64 164.513 1038.68 c 1
EndSplineSet
EndChar

StartChar: Eng
Encoding: 330 330 266
Width: 1228
Flags: W
LayerCount: 2
Fore
SplineSet
1148 815.084 m 2
 1148 76.98 l 2
 1148 -93.1671 1148 -93.1671 1020.39 -187.132 c 0
 904.579 -281 904.579 -281 765 -281 c 2
 553 -281 l 1
 553 -74 l 1
 765 -74 l 2
 817.431 -74 817.431 -74 850.669 -57.4669 c 0
 883.906 -40.9338 883.906 -40.9338 907.527 -5.5013 c 0
 942 39.6579 942 39.6579 942 92.0596 c 2
 942 802.295 l 2
 942 871.79 942 871.79 918.952 908.119 c 0
 895.903 944.449 895.903 944.449 848.114 962.04 c 0
 817.083 974 817.083 974 776 974 c 0
 597.5 974 597.5 974 407 826.451 c 1
 407 200 l 1
 587 200 l 1
 587 0 l 1
 18 0 l 1
 18 200 l 1
 200 200 l 1
 200 953 l 1
 18 953 l 1
 18 1153 l 1
 407 1153 l 1
 407 1052.78 l 1
 443.18 1075.91 443.18 1075.91 468.391 1089.51 c 0
 507.422 1110.56 507.422 1110.56 539.459 1126.58 c 0
 577.276 1145.49 577.276 1145.49 630.243 1159.62 c 0
 715.761 1181 715.761 1181 784 1181 c 0
 889.841 1181 889.841 1181 971.919 1132.55 c 0
 1054 1089.04 1054 1089.04 1099.95 1007.07 c 0
 1148 921.859 1148 921.859 1148 815.084 c 2
EndSplineSet
EndChar

StartChar: eng
Encoding: 331 331 267
Width: 1228
Flags: W
LayerCount: 2
Fore
SplineSet
510.695 658.723 m 2
 444.049 626.27 l 2
 418.46 613.81 418.46 613.81 379 591.026 c 1
 379 201 l 1
 561 201 l 1
 561 0 l 1
 -6 0 l 1
 -6 201 l 1
 172 201 l 1
 172 679 l 1
 -6 679 l 1
 -6 881 l 1
 379 881 l 1
 379 803.816 l 2
 379.898 804.38 379.898 804.38 380.16 804.543 c 0
 495.212 876.86 495.212 876.86 568.81 895.261 c 0
 639.763 913 639.763 913 702 913 c 0
 870.891 913 870.891 913 974.291 809.617 c 0
 1074 709.926 1074 709.926 1074 559.116 c 2
 1074 74.9463 l 2
 1074 -98.908 1074 -98.908 944.284 -190.222 c 1
 829.454 -285 829.454 -285 685 -285 c 2
 490 -285 l 1
 490 -77 l 1
 685 -77 l 2
 733.366 -77 733.366 -77 765.711 -62.0578 c 0
 798.057 -47.1156 798.057 -47.1156 822.553 -15.2717 c 0
 867 32.5591 867 32.5591 867 89.2608 c 2
 867 532.982 l 2
 867 615.224 867 615.224 817.975 663.048 c 1
 769.468 706 769.468 706 706 706 c 0
 613.656 706 613.656 706 527.326 666.319 c 0
 519.453 662.722 519.453 662.722 510.695 658.723 c 2
EndSplineSet
EndChar

StartChar: OE
Encoding: 338 338 274
Width: 1228
Flags: W
LayerCount: 2
Fore
SplineSet
538 200 m 2
 582 200 l 1
 582 953 l 1
 577 953 l 2
 483.571 953 483.571 953 413.54 926.163 c 0
 343.51 899.326 343.51 899.326 289.186 843.493 c 0
 187 738.948 187 738.948 187 572.984 c 1
 184.367 458.067 184.367 458.067 257.91 345.755 c 0
 280.794 310.417 280.794 310.417 310.016 281.639 c 1
 373.471 225.568 373.471 225.568 472.276 206.659 c 0
 505.015 200 505.015 200 538 200 c 2
829 831.857 m 1
 986.039 831.857 l 1
 974.323 953 l 1
 790 953 l 1
 790 713 l 1
 829 713 l 1
 829 831.857 l 1
1185 723.833 m 1
 1027 723.833 l 1
 1027 438.016 l 1
 1212 438.016 l 1
 1212 0 l 1
 505 0 l 2
 390.193 0 390.193 0 292.965 48.1665 c 0
 195.736 90.5753 195.736 90.5753 122.974 171.927 c 0
 -28 342.269 -28 342.269 -28 571.014 c 0
 -28 730.788 -28 730.788 46.2198 863.453 c 0
 122.278 999.404 122.278 999.404 264.193 1076.29 c 0
 405.784 1153 405.784 1153 583 1153 c 2
 1185 1153 l 1
 1185 723.833 l 1
1003.99 200 m 1
 1013.43 387.039 l 1
 829 387.039 l 1
 829 512 l 1
 790 512 l 1
 790 200 l 1
 1003.99 200 l 1
EndSplineSet
EndChar

StartChar: oe
Encoding: 339 339 275
Width: 1228
Flags: W
LayerCount: 2
Fore
SplineSet
730.049 564 m 1
 1043.94 564 l 1
 1031.96 700.951 1031.96 700.951 975.343 760.641 c 0
 943.354 795 943.354 795 901 795 c 0
 843.705 795 843.705 795 781.583 725.89 c 1
 763.095 701.499 763.095 701.499 745.89 643.627 c 0
 735.346 608.159 735.346 608.159 730.049 564 c 1
261.195 188.184 m 0
 290.136 171 290.136 171 334 171 c 0
 377.957 171 377.957 171 410.017 183.295 c 0
 442.078 195.59 442.078 195.59 467.245 224.665 c 0
 492.411 253.74 492.411 253.74 505.158 306.216 c 0
 517.906 358.692 517.906 358.692 518 434.827 c 1
 516.092 546.081 516.092 546.081 494.482 613.972 c 0
 472.873 681.862 472.873 681.862 446.702 699.786 c 0
 412.875 723 412.875 723 367 723 c 0
 318.296 723 318.296 723 283.772 702.645 c 0
 249.247 682.29 249.247 682.29 220.878 632.032 c 1
 171 538.504 171 538.504 171 416.333 c 0
 171 319.329 171 319.329 200.998 261.189 c 0
 228.715 207.469 228.715 207.469 261.195 188.184 c 0
1138.33 209.095 m 2
 1201.04 227.075 l 1
 1281.79 45.3888 l 1
 1201.24 20.3745 l 2
 1029.39 -33 1029.39 -33 930 -33 c 0
 865.455 -33 865.455 -33 776.203 0.321487 c 1
 719.907 24.2469 719.907 24.2469 658.005 91.0045 c 0
 645.711 104.263 645.711 104.263 634.317 119.34 c 1
 596.876 64.9075 596.876 64.9075 553 32 c 2
 551.521 30.8907 l 1
 549.989 29.8558 l 2
 456.96 -33 456.96 -33 354 -33 c 0
 147.013 -33 147.013 -33 51.6619 83.4853 c 0
 -26.8991 179.005 -26.8991 179.005 -42.8029 330.965 c 0
 -43.8004 345.506 -43.8004 345.506 -44.692 353.916 c 2
 -45 356.821 l 1
 -45 403.472 l 2
 -45 602.163 -45 602.163 39.5662 747.193 c 1
 88.2422 823.18 88.2422 823.18 170.83 869.69 c 0
 256.572 926 256.572 926 349 926 c 0
 502.618 926 502.618 926 590.258 838.843 c 1
 614.494 817.598 614.494 817.598 634.685 787.893 c 1
 667.821 830.19 667.821 830.19 709.075 857.522 c 0
 809.413 924 809.413 924 902.5 924 c 0
 997.137 924 997.137 924 1071.75 870.418 c 0
 1141.59 826.789 1141.59 826.789 1181.98 757.625 c 0
 1254 632.336 1254 632.336 1254 498.613 c 2
 1254 369 l 1
 726.644 369 l 1
 736.213 278.585 736.213 278.585 791.28 222.67 c 0
 807.347 205.951 807.347 205.951 824.125 195.656 c 1
 852.373 181.821 852.373 181.821 875.916 176.604 c 0
 901.203 171 901.203 171 953 171 c 0
 1005.45 171 1005.45 171 1138.33 209.095 c 2
EndSplineSet
EndChar

StartChar: florin
Encoding: 402 402 319
Width: 1228
Flags: W
LayerCount: 2
Fore
SplineSet
1097.35 1130.31 m 1
 1020.32 1147.88 l 2
 971.567 1159 971.567 1159 907 1159 c 0
 792.726 1159 792.726 1159 718.966 1125.09 c 1
 681.785 1104.39 681.785 1104.39 661.654 1076.83 c 0
 641.523 1049.27 641.523 1049.27 633.639 1008.78 c 0
 625 963.851 625 963.851 625 949 c 2
 625 869 l 1
 1007 869 l 1
 1007 679 l 1
 625 679 l 1
 625 136.371 l 2
 625 16.5082 625 16.5082 564.173 -45.3384 c 0
 437.693 -201 437.693 -201 130 -201 c 0
 77.7928 -201 77.7928 -201 35.6701 -193.98 c 2
 -30.7175 -182.915 l 1
 -26.8779 -115.721 l 2
 -24.7099 -77.7827 -24.7099 -77.7827 -21.3123 -52.8665 c 2
 -11.114 21.9206 l 1
 63.6066 11.2462 l 2
 121.33 3 121.33 3 168 3 c 0
 225.139 3 225.139 3 286.612 19.4507 c 0
 346.884 35.58 346.884 35.58 366.448 47.723 c 0
 384.851 59.1457 384.851 59.1457 394.925 71.4585 c 0
 418 94.1278 418 94.1278 418 136.854 c 2
 418 679 l 1
 186 679 l 1
 186 869 l 1
 418 869 l 1
 418 922 l 2
 418 1063.85 418 1063.85 468.712 1152.91 c 0
 537.884 1276.17 537.884 1276.17 690.836 1326.33 c 0
 785.568 1356.79 785.568 1356.79 879.137 1358.49 c 0
 965.042 1360.05 965.042 1360.05 1049.54 1353.8 c 2
 1125.21 1348.19 l 1
 1118.73 1272.59 l 2
 1115.44 1234.32 1115.44 1234.32 1110.89 1208.15 c 2
 1097.35 1130.31 l 1
EndSplineSet
EndChar

StartChar: dotlessj
Encoding: 567 567 323
Width: 1228
Flags: W
LayerCount: 2
Fore
SplineSet
179.758 -145.975 m 1
 251.978 -161.722 l 2
 377.081 -189 377.081 -189 471 -189 c 0
 561.573 -189 561.573 -189 605.167 -175.402 c 0
 645.857 -162.71 645.857 -162.71 669.643 -143.342 c 0
 692.299 -124.894 692.299 -124.894 703.602 -102.593 c 0
 717.553 -75.0679 717.553 -75.0679 723.552 -45.8226 c 0
 732 -12.2278 732 -12.2278 732 60.0831 c 2
 732 679 l 1
 405 679 l 1
 405 881 l 1
 940 881 l 1
 940 67 l 2
 940 -188.449 940 -188.449 800.708 -302.87 c 0
 693.73 -391.405 693.73 -391.405 485.828 -396 c 1
 380.823 -396 380.823 -396 207.804 -362.644 c 2
 126.942 -347.056 l 1
 150 -268 l 2
 156.426 -245.966 156.426 -245.966 162.962 -217.958 c 2
 179.758 -145.975 l 1
EndSplineSet
EndChar

StartChar: circumflex
Encoding: 710 710 324
Width: 1228
Flags: W
LayerCount: 2
Fore
SplineSet
316.748 1167.72 m 2
 440.164 1302.17 440.164 1302.17 482.748 1346.79 c 2
 504.907 1370 l 1
 712.569 1370 l 1
 967.387 1109.29 l 1
 899 1058 l 2
 878.327 1042.5 878.327 1042.5 863.593 1031.97 c 2
 821.948 1002.22 l 1
 604.258 1144.02 l 1
 405.916 1000.32 l 1
 361.887 1032.34 l 2
 352.117 1039.45 352.117 1039.45 345.897 1043.6 c 0
 336.681 1049.74 336.681 1049.74 327 1057 c 2
 260.737 1106.7 l 1
 316.748 1167.72 l 2
EndSplineSet
EndChar

StartChar: caron
Encoding: 711 711 325
Width: 1228
Flags: W
LayerCount: 2
Fore
SplineSet
619.871 1230.77 m 1
 821.923 1375.67 l 1
 962.845 1265.58 l 1
 719.492 1006 l 1
 514.45 1006 l 1
 492.387 1028.55 l 2
 447.89 1074.04 447.89 1074.04 405.782 1115.66 c 0
 362.877 1158.05 362.877 1158.05 317.387 1204.55 c 2
 258.758 1264.49 l 1
 398.951 1374.01 l 1
 619.871 1230.77 l 1
EndSplineSet
EndChar

StartChar: breve
Encoding: 728 728 326
Width: 1228
Flags: W
LayerCount: 2
Fore
SplineSet
415.46 1316.34 m 2
 451.881 1255.1 451.881 1255.1 499.602 1227.55 c 0
 547.322 1200 547.322 1200 616 1200 c 0
 684.721 1200 684.721 1200 732.772 1227.64 c 0
 780.823 1255.28 780.823 1255.28 817.725 1316.65 c 2
 839.583 1353 l 1
 1048.89 1353 l 1
 997.689 1245.7 l 2
 942.257 1129.54 942.257 1129.54 844.116 1067.77 c 0
 745.974 1006 745.974 1006 617 1006 c 0
 453.937 1006 453.937 1006 335.596 1106.71 c 0
 296.243 1139.93 296.243 1139.93 271.596 1176.9 c 0
 248.027 1212.25 248.027 1212.25 233.057 1250.93 c 2
 193.545 1353 l 1
 393.655 1353 l 1
 415.46 1316.34 l 2
EndSplineSet
EndChar

StartChar: dotaccent
Encoding: 729 729 327
Width: 1228
Flags: W
LayerCount: 2
Fore
SplineSet
743 1014 m 1
 488 1014 l 1
 488 1347 l 1
 743 1347 l 1
 743 1014 l 1
EndSplineSet
EndChar

StartChar: ring
Encoding: 730 730 328
Width: 1228
Flags: W
LayerCount: 2
Fore
SplineSet
615 1110.5 m 0
 635.183 1110.5 635.183 1110.5 641.341 1116.66 c 0
 663.5 1138.82 663.5 1138.82 663.5 1160 c 0
 663.5 1180.04 663.5 1180.04 657.426 1189.43 c 0
 651.351 1198.82 651.351 1198.82 633.324 1207.15 c 0
 624.226 1210.5 624.226 1210.5 603.5 1210.5 c 0
 591.895 1210.5 591.895 1210.5 576.243 1196.56 c 0
 563.5 1185.21 563.5 1185.21 563.5 1174.5 c 0
 563.5 1149.99 563.5 1149.99 567.21 1141.48 c 0
 571.162 1132.41 571.162 1132.41 578.051 1125.28 c 0
 594.268 1110.5 594.268 1110.5 615 1110.5 c 0
474.321 1300.61 m 2
 533.981 1357.5 533.981 1357.5 613.5 1357.5 c 0
 693.612 1357.5 693.612 1357.5 751.408 1300.41 c 0
 809.5 1243.02 809.5 1243.02 809.5 1161 c 0
 809.5 1079.18 809.5 1079.18 752.159 1021.84 c 0
 694.817 964.5 694.817 964.5 614 964.5 c 0
 534.391 964.5 534.391 964.5 474.076 1020.61 c 1
 416.5 1078.18 416.5 1078.18 416.5 1159.5 c 0
 416.5 1240 416.5 1240 472.362 1298.66 c 2
 473.317 1299.66 l 1
 474.321 1300.61 l 2
EndSplineSet
EndChar

StartChar: ogonek
Encoding: 731 731 329
Width: 1228
Flags: W
LayerCount: 2
Fore
SplineSet
790.455 -160.589 m 1
 840.984 -362.704 l 1
 794.75 -391.6 l 2
 704.507 -448 704.507 -448 600 -448 c 0
 526.25 -448 526.25 -448 466.085 -416.088 c 0
 405.92 -384.177 405.92 -384.177 371.058 -323.517 c 0
 343.802 -276.578 343.802 -276.578 342.048 -214.857 c 1
 336.911 -108.449 336.911 -108.449 412.844 -27.6418 c 0
 482.065 46.0238 482.065 46.0238 608.846 79.5128 c 2
 618.261 82 l 1
 1094.35 82 l 1
 721.148 -62.9143 l 2
 664.999 -84.7167 664.999 -84.7167 625.585 -108.941 c 0
 586.17 -133.166 586.17 -133.166 572.499 -147.638 c 0
 558.829 -162.11 558.829 -162.11 556.54 -171.058 c 0
 551.28 -190.562 551.28 -190.562 551.722 -201.096 c 0
 552.163 -211.631 552.163 -211.631 553.713 -213 c 0
 555.262 -214.369 555.262 -214.369 561.811 -218.735 c 0
 576.986 -229 576.986 -229 609.5 -229 c 0
 647.929 -229 647.929 -229 707.545 -200.386 c 2
 790.455 -160.589 l 1
EndSplineSet
EndChar

StartChar: tilde
Encoding: 732 732 330
Width: 1228
Flags: W
LayerCount: 2
Fore
SplineSet
752 1204 m 0
 773.498 1204 773.498 1204 788.641 1217.58 c 0
 803.784 1231.15 803.784 1231.15 818.792 1276.54 c 2
 842.566 1348.45 l 1
 955.236 1309.98 l 2
 966.65 1306.08 966.65 1306.08 990.255 1298.02 c 0
 1013.86 1289.96 1013.86 1289.96 1025.98 1285.82 c 1
 1002.05 1214.99 l 2
 970.109 1120.44 970.109 1120.44 902.773 1065.77 c 0
 831.605 1008 831.605 1008 745 1008 c 0
 658.974 1008 658.974 1008 560.886 1086.84 c 1
 505.862 1128.29 505.862 1128.29 489.367 1136.72 c 0
 482.944 1140 482.944 1140 473 1140 c 0
 463.965 1140 463.965 1140 456.383 1136.74 c 0
 448.801 1133.47 448.801 1133.47 435.538 1116.11 c 0
 422.275 1098.74 422.275 1098.74 409.636 1067.15 c 2
 381.781 997.51 l 1
 312.146 1025.36 l 2
 293.537 1032.81 293.537 1032.81 278.038 1038.28 c 2
 203.835 1064.47 l 1
 233.555 1137.33 l 2
 270.56 1228.04 270.56 1228.04 330.873 1282.02 c 0
 391.186 1336 391.186 1336 473 1336 c 0
 533.43 1336 533.43 1336 581.923 1309.06 c 0
 618.822 1288.56 618.822 1288.56 684.676 1236.21 c 0
 725.182 1204 725.182 1204 752 1204 c 0
EndSplineSet
EndChar

StartChar: hungarumlaut
Encoding: 733 733 331
Width: 1228
Flags: W
LayerCount: 2
Fore
SplineSet
268.389 994 m 1
 565.62 1339 l 1
 822.62 1339 l 1
 887.379 1339 l 1
 1145.05 1339 l 1
 746.978 994 l 1
 525.389 994 l 1
 628.34 1113.5 l 1
 491.072 994 l 1
 268.389 994 l 1
EndSplineSet
EndChar

StartChar: Gamma
Encoding: 915 915 332
Width: 1228
Flags: W
LayerCount: 2
Fore
SplineSet
616 200 m 1
 616 0 l 1
 47 0 l 1
 47 200 l 1
 226 200 l 1
 226 953 l 1
 47 953 l 1
 47 1153 l 1
 1158.67 1153 l 1
 1159.99 1079.34 l 2
 1160.97 1024.28 1160.97 1024.28 1162.98 944.874 c 2
 1165.98 824.899 l 2
 1166.97 784.327 1166.97 784.327 1167.98 738.666 c 2
 1169.69 662 l 1
 973.456 662 l 1
 951.456 953 l 1
 433 953 l 1
 433 200 l 1
 616 200 l 1
EndSplineSet
EndChar

StartChar: Delta
Encoding: 916 916 333
Width: 1228
Flags: W
LayerCount: 2
Fore
SplineSet
365.901 200 m 1
 861.099 200 l 1
 613.5 946.334 l 1
 365.901 200 l 1
65 200 m 1
 175.971 200 l 1
 522.971 1153 l 1
 702.745 1153 l 1
 1055.74 200 l 1
 1167 200 l 1
 1167 0 l 1
 65 0 l 1
 65 200 l 1
EndSplineSet
EndChar

StartChar: Theta
Encoding: 920 920 334
Width: 1228
Flags: W
LayerCount: 2
Fore
SplineSet
954 817.695 m 1
 954 370.136 l 1
 754 370.136 l 1
 754 487 l 1
 473 487 l 1
 473 370.136 l 1
 273 370.136 l 1
 273 817.922 l 1
 225.847 707.68 225.847 707.68 224.998 595.432 c 0
 224.092 486.736 224.092 486.736 254.22 403.823 c 0
 284.124 330.301 284.124 330.301 336.99 275.44 c 0
 394.26 216.476 394.26 216.476 461.431 189.562 c 0
 528.602 162.649 528.602 162.649 612.254 164 c 1
 727.091 164 727.091 164 815.633 217.644 c 0
 907.597 273.361 907.597 273.361 952.896 362.144 c 1
 1002 461.819 1002 461.819 1002 560 c 0
 1002 676.279 1002 676.279 973.072 766.629 c 0
 964.578 793.16 964.578 793.16 954 817.695 c 1
1213 559.712 m 0
 1213 294.896 1213 294.896 1025.73 117.911 c 0
 862.58 -37 862.58 -37 613 -37 c 0
 434.058 -37 434.058 -37 295.015 56.8529 c 0
 87.9052 179.141 87.9052 179.141 32.5026 420.474 c 0
 15 494.564 15 494.564 15 574.188 c 0
 15 828.269 15 828.269 173.049 996.699 c 0
 226.029 1053.05 226.029 1053.05 295.989 1094.13 c 0
 436.908 1190 436.908 1190 597 1190 c 0
 741.427 1190 741.427 1190 858.661 1136.27 c 0
 975.894 1088.64 975.894 1088.64 1058.06 995.262 c 0
 1213 820.771 1213 820.771 1213 559.712 c 0
412.682 936.958 m 1
 326.717 887.079 326.717 887.079 278.312 801.552 c 1
 473 801.552 l 1
 473 687 l 1
 754 687 l 1
 754 801.552 l 1
 948.506 801.552 l 1
 925.262 841.837 925.262 841.837 892.894 875.114 c 0
 835.463 933.821 835.463 933.821 767.182 961.411 c 0
 698.901 989 698.901 989 613 989 c 0
 504.373 989 504.373 989 412.682 936.958 c 1
EndSplineSet
EndChar

StartChar: Sigma
Encoding: 931 931 335
Width: 1228
Flags: W
LayerCount: 2
Fore
SplineSet
1066 0 m 1
 101 0 l 1
 101 133.204 l 1
 491.979 605.44 l 1
 375.988 729.191 375.988 729.191 118.553 1000.61 c 2
 101 1019.11 l 1
 101 1153 l 1
 1056 1153 l 1
 1056 662 l 1
 859.978 662 l 1
 839.978 953 l 1
 406.743 953 l 1
 524.654 833.502 524.654 833.502 711.859 644.229 c 2
 749.225 606.451 l 1
 387.144 200 l 1
 858.009 200 l 1
 870.009 493 l 1
 1066 493 l 1
 1066 0 l 1
EndSplineSet
EndChar

StartChar: Phi
Encoding: 934 934 336
Width: 1228
Flags: W
LayerCount: 2
Fore
SplineSet
462.228 318.741 m 0
 496.738 315.865 496.738 315.865 508 314.632 c 1
 508 839.461 l 1
 355.771 823.316 355.771 823.316 291.886 761.746 c 0
 228 700.175 228 700.175 228 580 c 0
 228 500.475 228 500.475 251.777 451.122 c 0
 275.554 401.769 275.554 401.769 323.977 371.458 c 0
 358.08 349.831 358.08 349.831 377.328 342.232 c 0
 436.453 320.889 436.453 320.889 462.228 318.741 c 0
715 839.552 m 1
 715 313.94 l 1
 780.679 317.127 780.679 317.127 814.932 329.824 c 0
 864.904 348.348 864.904 348.348 900.136 371.55 c 1
 948.254 400.272 948.254 400.272 972.697 449.146 c 0
 997.14 498.02 997.14 498.02 999.999 580.138 c 1
 999.573 700.379 999.573 700.379 934.494 761.911 c 0
 869.414 823.443 869.414 823.443 715 839.552 c 1
897 200 m 1
 897 0 l 1
 329 0 l 1
 329 200 l 1
 449.386 200 l 1
 191.185 231.919 191.185 231.919 86.8897 368.009 c 0
 15 460.928 15 460.928 15 575.249 c 0
 15 731.766 15 731.766 143.989 836.287 c 1
 260.288 928.754 260.288 928.754 458.493 953 c 1
 329 953 l 1
 329 1153 l 1
 897 1153 l 1
 897 953 l 1
 778.119 953 l 1
 939.108 934.286 939.108 934.286 1036.55 874.674 c 1
 1096.13 840.025 1096.13 840.025 1139.37 785.939 c 0
 1212.68 694.736 1212.68 694.736 1213 578.485 c 1
 1216.22 451.375 1216.22 451.375 1121.76 348.168 c 0
 1088.13 311.041 1088.13 311.041 1034.81 277.332 c 0
 978.111 241.481 978.111 241.481 873.604 216.582 c 0
 830.22 206.246 830.22 206.246 780.749 200 c 1
 897 200 l 1
EndSplineSet
EndChar

StartChar: alpha
Encoding: 945 945 337
Width: 1228
Flags: W
LayerCount: 2
Fore
SplineSet
380.807 190.619 m 0
 423.361 173 423.361 173 476 173 c 0
 543.836 173 543.836 173 621.641 223.471 c 0
 699.447 273.941 699.447 273.941 782.779 385.483 c 0
 792.746 398.085 792.746 398.085 801.312 409.562 c 1
 772.865 519.205 772.865 519.205 688.731 613.067 c 0
 592.22 720 592.22 720 483 720 c 0
 425.124 720 425.124 720 380.657 702.873 c 0
 336.189 685.746 336.189 685.746 298.089 648.331 c 0
 219 570.664 219 570.664 219 450.424 c 0
 219 329.612 219 329.612 299.394 247.789 c 0
 338.253 208.238 338.253 208.238 380.807 190.619 c 0
1230.18 828.588 m 2
 1169.94 611.822 1169.94 611.822 1022.79 396.142 c 1
 1048.66 320.783 1048.66 320.783 1075.86 201 c 1
 1228 201 l 1
 1228 0 l 1
 899.243 0 l 1
 888.978 62.9255 l 2
 878.273 128.546 878.273 128.546 864.198 199.776 c 1
 816.099 137.767 816.099 137.767 781.232 105.226 c 0
 631.702 -34.9563 631.702 -34.9563 462.479 -33.0003 c 1
 327.996 -32.6227 327.996 -32.6227 222.058 48.9409 c 1
 121.539 110.781 121.539 110.781 59.2936 226.093 c 1
 4 338.023 4 338.023 4 454.229 c 0
 4 649.209 4 649.209 133.192 781.711 c 0
 198.836 849.038 198.836 849.038 285.213 884.349 c 0
 371.59 926 371.59 926 472 926 c 0
 645.933 926 645.933 926 771.458 809.495 c 1
 821.926 764.563 821.926 764.563 866.923 699.316 c 0
 900.375 649.91 900.375 649.91 929.898 584.073 c 1
 992.341 726.69 992.341 726.69 1029.6 864.568 c 2
 1044.58 920 l 1
 1250.68 920 l 1
 1230.18 828.588 l 2
EndSplineSet
EndChar

StartChar: delta
Encoding: 948 948 338
Width: 1228
Flags: W
LayerCount: 2
Fore
SplineSet
605 176 m 0
 745.068 176 745.068 176 822.794 231.976 c 1
 923 301.851 923 301.851 923 410.362 c 0
 923 507.179 923 507.179 844.668 574.556 c 0
 760.996 647 760.996 647 614 647 c 0
 469.265 647 469.265 647 383.324 576.738 c 1
 305 510.948 305 510.948 305 411.121 c 0
 305 312.487 305 312.487 383.559 246.825 c 0
 468.232 176 468.232 176 605 176 c 0
1017.68 699.904 m 0
 1039.85 678.422 1039.85 678.422 1061.74 650.163 c 1
 1139 543.473 1139 543.473 1139 408.454 c 0
 1139 231.73 1139 231.73 1006.53 108.254 c 0
 860.27 -29 860.27 -29 614 -29 c 0
 372.74 -29 372.74 -29 224.392 104.636 c 1
 88 229.062 88 229.062 88 410.507 c 0
 88 591.654 88 591.654 223.99 717.718 c 1
 334.606 818.918 334.606 818.918 500.096 844.273 c 1
 479.397 859.339 479.397 859.339 459.177 874.132 c 0
 362.893 942.34 362.893 942.34 336.049 962.092 c 0
 308.874 982.088 308.874 982.088 297.141 991.154 c 0
 285.611 1000.06 285.611 1000.06 274.276 1009.13 c 0
 248.04 1031.44 248.04 1031.44 218.619 1067.92 c 2
 202 1088.53 l 1
 202 1282 l 1
 1032 1282 l 1
 1032 1080 l 1
 510.333 1080 l 1
 860.757 817.182 l 1
 965.913 751.317 965.913 751.317 1017.68 699.904 c 0
EndSplineSet
EndChar

StartChar: epsilon
Encoding: 949 949 339
Width: 1228
Flags: W
LayerCount: 2
Fore
SplineSet
866.861 231.282 m 2
 949.486 271.977 l 1
 1001.17 72.6298 l 1
 950.423 44.4382 l 2
 938.788 37.9741 938.788 37.9741 914.035 26.7225 c 0
 886.909 14.392 886.909 14.392 840.986 1.35219 c 0
 797.111 -11.1062 797.111 -11.1062 739.657 -21.7462 c 0
 678.887 -33 678.887 -33 600 -33 c 0
 417.613 -33 417.613 -33 297.863 54.0896 c 1
 177 133.305 177 133.305 177 245.544 c 0
 177 317.56 177 317.56 218.912 375.232 c 0
 260.824 432.903 260.824 432.903 336.972 467.512 c 1
 325.235 474.585 325.235 474.585 314.742 482.639 c 0
 218 560.567 218 560.567 218 662.205 c 0
 218 767.475 218 767.475 329.992 841.839 c 0
 433.935 924 433.935 924 597 924 c 0
 750.364 924 750.364 924 862.215 857.23 c 1
 863.541 865.723 863.541 865.723 864.688 874.133 c 2
 873.533 939 l 1
 1058.77 939 l 1
 1051.72 857.534 l 2
 1043 756.721 1043 756.721 1043 689.5 c 0
 1043 624.865 1043 624.865 1050.09 579.623 c 2
 1061.72 505.529 l 1
 988.597 494.059 l 1
 988.11 493.983 l 1
 862.911 474.343 l 1
 850.967 547.995 l 2
 846.098 578.016 846.098 578.016 836.242 605.122 c 0
 823.771 641.842 823.771 641.842 797.679 667.265 c 0
 743.518 720 743.518 720 603 720 c 0
 471.091 720 471.091 720 441.314 671.957 c 0
 434 659.241 434 659.241 434 643.071 c 0
 434 619.617 434 619.617 449.821 600.022 c 0
 465.642 580.428 465.642 580.428 506.611 560.263 c 1
 563.23 534.041 563.23 534.041 697.92 529.699 c 2
 770 527.377 l 1
 770 361 l 1
 695 361 l 2
 538.912 361 538.912 361 470.015 331.221 c 0
 438.15 318.206 438.15 318.206 417.873 301.641 c 0
 393 282.245 393 282.245 393 254.49 c 0
 393 231.299 393 231.299 439.471 204.141 c 0
 492.758 173 492.758 173 616 173 c 0
 748.531 173 748.531 173 866.861 231.282 c 2
EndSplineSet
EndChar

StartChar: mu
Encoding: 956 956 340
Width: 1228
Flags: W
LayerCount: 2
Fore
SplineSet
1232 188 m 1
 1232 0 l 1
 848 0 l 1
 848 44.6731 l 1
 820.024 26.5191 820.024 26.5191 788.477 13.0354 c 2
 785.642 11.8236 l 1
 782.717 10.8487 l 2
 674.04 -25.3778 674.04 -25.3778 584.576 -19.9354 c 1
 462.713 -16.1774 462.713 -16.1774 377 40.1522 c 1
 377 -305 l 1
 172 -305 l 1
 172 691 l 1
 -6 691 l 1
 -6 881 l 1
 379 881 l 1
 379 420.185 l 2
 379 335.289 379 335.289 385.329 311.16 c 0
 396.411 268.318 396.411 268.318 423.317 240.872 c 0
 450.222 213.426 450.222 213.426 498.628 195.516 c 0
 548.973 177 548.973 177 588 177 c 0
 725.266 177 725.266 177 794.703 239.725 c 1
 823.009 270.961 823.009 270.961 834.228 302.561 c 1
 845 339.702 845 339.702 845 405.358 c 2
 845 691 l 1
 668 691 l 1
 668 881 l 1
 1053 881 l 1
 1053 188 l 1
 1232 188 l 1
EndSplineSet
EndChar

StartChar: pi
Encoding: 960 960 341
Width: 1228
Flags: W
LayerCount: 2
Fore
SplineSet
1212 201 m 1
 1212 0 l 1
 669 0 l 1
 669 201 l 1
 833 201 l 1
 833 679 l 1
 405 679 l 1
 405 201 l 1
 560 201 l 1
 560 0 l 1
 19 0 l 1
 19 201 l 1
 197 201 l 1
 197 679 l 1
 19 679 l 1
 19 881 l 1
 1212 881 l 1
 1212 679 l 1
 1042 679 l 1
 1042 201 l 1
 1212 201 l 1
EndSplineSet
EndChar

StartChar: sigma
Encoding: 963 963 342
Width: 1228
Flags: W
LayerCount: 2
Fore
SplineSet
281 445.109 m 0
 281 332.684 281 332.684 377.905 252.628 c 1
 475.839 175 475.839 175 612 175 c 0
 748.883 175 748.883 175 849.852 252.45 c 1
 948 331.541 948 331.541 948 442.76 c 0
 948 556.735 948 556.735 849.213 638.275 c 1
 750.34 716 750.34 716 610.5 716 c 0
 471.355 716 471.355 716 377.057 637.736 c 0
 281 558.012 281 558.012 281 445.109 c 0
400.639 875.953 m 1
 442.533 890.555 l 1
 496.786 907.054 496.786 907.054 557.714 913.543 c 0
 594.055 917.788 594.055 917.788 623.415 919.389 c 0
 651.241 920.906 651.241 920.906 670.058 921.897 c 0
 710.031 924 710.031 924 779 924 c 2
 1296 924 l 1
 1296 722.263 l 1
 1033.04 740.089 l 1
 1108.16 667.395 1108.16 667.395 1141.88 572.446 c 0
 1164 507.8 1164 507.8 1164 441.414 c 0
 1164 322.968 1164 322.968 1094.34 217.363 c 0
 1024.84 111.988 1024.84 111.988 898.856 45.6557 c 0
 771.259 -33 771.259 -33 614.5 -33 c 0
 457.233 -33 457.233 -33 326.844 49.6556 c 0
 198.102 118.729 198.102 118.729 130.79 225.794 c 0
 64 332.029 64 332.029 64 451.121 c 0
 64 563.929 64 563.929 129.097 670.186 c 1
 228.922 818.549 228.922 818.549 400.639 875.953 c 1
EndSplineSet
EndChar

StartChar: tau
Encoding: 964 964 343
Width: 1228
Flags: W
LayerCount: 2
Fore
SplineSet
843.989 224.789 m 2
 927.632 270.573 l 1
 980.899 72.7242 l 1
 933.61 43.313 l 2
 833.418 -19 833.418 -19 698 -19 c 0
 598 -19 598 -19 535.5 39.5 c 0
 473 86.8854 473 86.8854 473 167.076 c 2
 473 679 l 1
 388 679 l 2
 297.934 679 297.934 679 215.784 665.931 c 2
 129 652.125 l 1
 129 853.132 l 1
 188.876 865.459 l 2
 264.357 881 264.357 881 367 881 c 2
 1012 881 l 1
 1012 679 l 1
 681 679 l 1
 681 207.349 l 2
 681 192.871 681 192.871 684.37 184.36 c 1
 696.486 182 696.486 182 717.5 182 c 0
 765.816 182 765.816 182 843.989 224.789 c 2
EndSplineSet
EndChar

StartChar: phi
Encoding: 966 966 344
Width: 1228
Flags: W
LayerCount: 2
Fore
SplineSet
658.5 65.1636 m 0
 658.534 49.5845 658.534 49.5845 658.585 24.3978 c 1
 700.209 27.8637 700.209 27.8637 742.873 39.749 c 0
 800.159 55.7072 800.159 55.7072 852.887 90.4006 c 1
 881.858 112.154 881.858 112.154 905.719 142.943 c 0
 931.623 176.369 931.623 176.369 950.591 216.833 c 0
 969.822 257.859 969.822 257.859 980.54 302.872 c 0
 991 346.804 991 346.804 991 391 c 0
 991 436.884 991 436.884 981.237 481.452 c 0
 972.418 521.712 972.418 521.712 950.869 557.113 c 0
 901.023 639.618 901.023 639.618 846.051 678.015 c 0
 797.396 712 797.396 712 758 712 c 0
 740.197 712 740.197 712 724.372 703.84 c 0
 708.54 695.676 708.54 695.676 695.592 677.495 c 0
 679.572 654.997 679.572 654.997 669.114 618.396 c 0
 658 579.495 658 579.495 658 525 c 0
 658 292.637 658 292.637 658.5 65.1636 c 0
452 524.947 m 2
 452 610.105 452 610.105 471.55 678 c 1
 417.598 678 l 1
 409.362 674.424 409.362 674.424 403.329 671.83 c 0
 374.074 657.236 374.074 657.236 349.066 635.213 c 0
 321.876 611.27 321.876 611.27 300.801 582.088 c 0
 279.697 552.867 279.697 552.867 265.479 519.558 c 0
 251.56 486.948 251.56 486.948 245.945 452.457 c 0
 238 407.432 238 407.432 238 367 c 0
 238 300.573 238 300.573 262.243 235.785 c 0
 285.05 174.836 285.05 174.836 345.04 118.954 c 0
 365.907 99.6321 365.907 99.6321 394.79 82.7834 c 0
 421.012 67.487 421.012 67.487 452.51 55.3743 c 1
 452 524.947 l 2
481 884 m 1
 481 706.969 l 1
 502.512 766.094 502.512 766.094 535.719 808.943 c 0
 577.645 863.042 577.645 863.042 635.755 890.715 c 0
 693.053 918 693.053 918 758 918 c 0
 808.312 918 808.312 918 859.983 900.562 c 0
 910.09 883.652 910.09 883.652 958.353 850.052 c 0
 972.952 839.888 972.952 839.888 988 827.621 c 1
 988 895.323 l 1
 1127.2 700.265 l 2
 1165.46 646.659 1165.46 646.659 1181.64 586.33 c 0
 1197 529.071 1197 529.071 1197 468.652 c 0
 1197 410.001 1197 410.001 1181.67 352.354 c 0
 1166.39 294.895 1166.39 294.895 1137.95 243.396 c 0
 1109.07 191.121 1109.07 191.121 1067.31 147.439 c 0
 1024.49 102.659 1024.49 102.659 970.376 71.1187 c 0
 887.776 14.9052 887.776 14.9052 798.115 -9.38952 c 0
 728.385 -28.2838 728.385 -28.2838 658.893 -32.0843 c 1
 659 -141.318 659 -141.318 659 -245 c 2
 659 -320 l 1
 453.081 -320 l 1
 452.745 -10.8637 l 1
 419.5 -2.26986 419.5 -2.26986 388.572 9.12427 c 0
 334.977 28.8693 334.977 28.8693 288.859 55.6296 c 0
 241.023 79.0121 241.023 79.0121 204.908 107.407 c 0
 108.944 182.403 108.944 182.403 69.7265 271.002 c 0
 32 356.232 32 356.232 32 444.286 c 0
 32 497.333 32 497.333 42.0541 545.829 c 0
 51.7387 595.009 51.7387 595.009 75.7547 641.394 c 0
 99.5729 687.396 99.5729 687.396 134.473 727.574 c 0
 169.411 767.795 169.411 767.795 214.715 801.068 c 0
 261.166 835.183 261.166 835.183 315.059 857.379 c 2
 317.56 858.602 l 1
 320.146 859.636 l 2
 324.034 861.191 324.034 861.191 330.939 864.212 c 0
 341.452 868.811 341.452 868.811 352.538 872.724 c 0
 363.818 876.705 363.818 876.705 374.175 879.468 c 0
 391.17 884 391.17 884 406 884 c 2
 481 884 l 1
EndSplineSet
EndChar

StartChar: endash
Encoding: 8211 8211 353
Width: 1228
Flags: W
LayerCount: 2
Fore
SplineSet
1124 493 m 1
 106 493 l 1
 106 711 l 1
 1124 711 l 1
 1124 493 l 1
EndSplineSet
EndChar

StartChar: emdash
Encoding: 8212 8212 354
Width: 1228
Flags: W
LayerCount: 2
Fore
SplineSet
1400 493 m 1
 -171 493 l 1
 -171 711 l 1
 1400 711 l 1
 1400 493 l 1
EndSplineSet
EndChar

StartChar: underscoredbl
Encoding: 8215 8215 355
Width: 1228
Flags: W
LayerCount: 2
Fore
SplineSet
1435 -346 m 1
 -171 -346 l 1
 -171 -139 l 1
 1435 -139 l 1
 1435 -346 l 1
1435 -563 m 1
 -171 -563 l 1
 -171 -354 l 1
 1435 -354 l 1
 1435 -563 l 1
EndSplineSet
EndChar

StartChar: quoteleft
Encoding: 8216 8216 356
Width: 1228
Flags: W
LayerCount: 2
Fore
SplineSet
288.273 591 m 1
 568.394 1217 l 1
 819.861 1217 l 1
 625.222 591 l 1
 288.273 591 l 1
EndSplineSet
EndChar

StartChar: quoteright
Encoding: 8217 8217 357
Width: 1228
Flags: W
LayerCount: 2
Fore
SplineSet
300.139 593 m 1
 494.778 1219 l 1
 833.727 1219 l 1
 553.606 593 l 1
 300.139 593 l 1
EndSplineSet
EndChar

StartChar: quotesinglbase
Encoding: 8218 8218 358
Width: 1228
Flags: W
LayerCount: 2
Fore
SplineSet
279.947 -298 m 1
 474.882 325 l 1
 814.027 325 l 1
 533.48 -298 l 1
 279.947 -298 l 1
EndSplineSet
EndChar

StartChar: quotedblleft
Encoding: 8220 8220 359
Width: 1228
Flags: W
LayerCount: 2
Fore
SplineSet
236.051 592 m 1
 517.487 1218 l 1
 769.475 1218 l 1
 570.891 592 l 1
 236.051 592 l 1
586.494 592 m 1
 865.301 1218 l 1
 1116.86 1218 l 1
 922.222 592 l 1
 586.494 592 l 1
EndSplineSet
EndChar

StartChar: quotedblright
Encoding: 8221 8221 360
Width: 1228
Flags: W
LayerCount: 2
Fore
SplineSet
491.414 688.371 m 2
 561.473 912.552 561.473 912.552 641.516 1164.69 c 2
 658.121 1217 l 1
 993.727 1217 l 1
 713.606 591 l 1
 460.986 591 l 1
 491.414 688.371 l 2
109.139 591 m 1
 303.778 1217 l 1
 642.727 1217 l 1
 362.606 591 l 1
 109.139 591 l 1
EndSplineSet
EndChar

StartChar: quotedblbase
Encoding: 8222 8222 361
Width: 1228
Flags: W
LayerCount: 2
Fore
SplineSet
457.535 -298 m 1
 655.103 325 l 1
 991.027 325 l 1
 710.48 -298 l 1
 457.535 -298 l 1
105.947 -298 m 1
 300.882 325 l 1
 640.027 325 l 1
 359.48 -298 l 1
 105.947 -298 l 1
EndSplineSet
EndChar

StartChar: dagger
Encoding: 8224 8224 362
Width: 1228
Flags: W
LayerCount: 2
Fore
SplineSet
708.5 -161.5 m 1
 524.5 -161.5 l 1
 524.5 756.5 l 1
 282.5 756.5 l 1
 282.5 926.5 l 1
 524.5 926.5 l 1
 524.5 1226.5 l 1
 708.5 1226.5 l 1
 708.5 926.5 l 1
 948.5 926.5 l 1
 948.5 756.5 l 1
 708.5 756.5 l 1
 708.5 -161.5 l 1
EndSplineSet
EndChar

StartChar: daggerdbl
Encoding: 8225 8225 363
Width: 1228
Flags: W
LayerCount: 2
Fore
SplineSet
706.5 -161.5 m 1
 526.5 -161.5 l 1
 526.5 308.5 l 1
 288.5 308.5 l 1
 288.5 474.5 l 1
 526.5 474.5 l 1
 526.5 756.5 l 1
 288.5 756.5 l 1
 288.5 922.5 l 1
 526.5 922.5 l 1
 526.5 1226.5 l 1
 706.5 1226.5 l 1
 706.5 922.5 l 1
 943.5 922.5 l 1
 943.5 756.5 l 1
 706.5 756.5 l 1
 706.5 474.5 l 1
 943.5 474.5 l 1
 943.5 308.5 l 1
 706.5 308.5 l 1
 706.5 -161.5 l 1
EndSplineSet
EndChar

StartChar: bullet
Encoding: 8226 8226 364
Width: 1228
Flags: W
LayerCount: 2
Fore
SplineSet
803.033 766.033 m 0
 881 688.066 881 688.066 881 578.5 c 0
 881 468.934 881 468.934 802.533 390.467 c 0
 724.066 312 724.066 312 614.5 312 c 0
 504.934 312 504.934 312 425.493 391.44 c 1
 349 470.714 349 470.714 349 579.5 c 0
 349 689.066 349 689.066 426.467 766.533 c 0
 503.934 844 503.934 844 614.5 844 c 0
 725.066 844 725.066 844 803.033 766.033 c 0
EndSplineSet
EndChar

StartChar: ellipsis
Encoding: 8230 8230 365
Width: 1228
Flags: W
LayerCount: 2
Fore
SplineSet
918.404 227.984 m 1
 982.692 282 982.692 282 1066 282 c 0
 1150.16 282 1150.16 282 1213.01 229.617 c 0
 1282 172.126 1282 172.126 1282 84.5 c 0
 1282 41.9869 1282 41.9869 1263.18 3.90003 c 0
 1244.35 -34.1868 1244.35 -34.1868 1210.94 -60.9987 c 0
 1147.36 -112 1147.36 -112 1066.5 -112 c 0
 986.7 -112 986.7 -112 922.567 -63.1729 c 0
 887.964 -36.828 887.964 -36.828 868.482 1.69271 c 0
 849 40.2134 849 40.2134 849 83.5 c 0
 849 171.737 849 171.737 918.404 227.984 c 1
484.404 227.984 m 1
 548.692 282 548.692 282 632 282 c 0
 716.151 282 716.151 282 779.014 229.617 c 0
 848 172.13 848 172.13 848 84.5 c 0
 848 41.9866 848 41.9866 829.177 3.90103 c 0
 810.355 -34.1845 810.355 -34.1845 776.935 -60.9987 c 0
 713.37 -112 713.37 -112 632.5 -112 c 0
 552.7 -112 552.7 -112 488.567 -63.1729 c 0
 453.964 -36.828 453.964 -36.828 434.482 1.69273 c 0
 415 40.2135 415 40.2135 415 83.5 c 0
 415 171.735 415 171.735 484.404 227.984 c 1
51.4042 227.984 m 1
 115.692 282 115.692 282 199 282 c 0
 283.154 282 283.154 282 346.014 229.617 c 0
 415 172.128 415 172.128 415 84.5 c 0
 415 41.9866 415 41.9866 396.177 3.90104 c 0
 377.355 -34.1845 377.355 -34.1845 343.935 -60.9987 c 0
 280.37 -112 280.37 -112 199.5 -112 c 0
 119.698 -112 119.698 -112 55.5672 -63.1729 c 0
 20.9642 -36.8275 20.9642 -36.8275 1.48209 1.69296 c 0
 -18 40.2134 -18 40.2134 -18 83.5 c 0
 -18 171.735 -18 171.735 51.4042 227.984 c 1
EndSplineSet
EndChar

StartChar: perthousand
Encoding: 8240 8240 366
Width: 1228
Flags: W
LayerCount: 2
Fore
SplineSet
160.5 233 m 0
 160.5 356.421 160.5 356.421 233.276 451.865 c 0
 254.251 479.373 254.251 479.373 278.724 499.508 c 1
 187.204 459.006 187.204 459.006 92.5348 416.537 c 2
 42.2282 393.97 l 1
 17.5704 443.285 l 2
 6.79254 464.841 6.79254 464.841 -1.7599 478.525 c 2
 -36.8438 534.659 l 1
 23.647 561.544 l 2
 144.976 615.467 144.976 615.467 255.57 664.526 c 1
 254.077 664.506 254.077 664.506 252.578 664.5 c 0
 126.078 662.469 126.078 662.469 42.7621 768.507 c 0
 -31.9204 863.669 -31.9204 863.669 -27.4984 984.142 c 1
 -27.1391 1109.33 -27.1391 1109.33 46.7668 1203.5 c 0
 126.038 1304.5 126.038 1304.5 251.5 1304.5 c 0
 376.747 1304.5 376.747 1304.5 456.012 1204.78 c 0
 530.5 1111.07 530.5 1111.07 530.5 984.5 c 0
 530.5 857.932 530.5 857.932 456.012 764.221 c 0
 448.724 755.052 448.724 755.052 441.046 746.726 c 1
 679.155 852.146 679.155 852.146 857.875 930.645 c 2
 906.034 951.799 l 1
 983.543 810.873 l 1
 926.353 785.456 l 2
 818.251 737.412 818.251 737.412 714.64 691.862 c 0
 611.844 646.669 611.844 646.669 508.236 600.903 c 0
 452.289 576.189 452.289 576.189 396.342 551.475 c 1
 416.703 554.5 416.703 554.5 438.5 554.5 c 0
 564.967 554.5 564.967 554.5 644.233 453.499 c 0
 689.395 395.955 689.395 395.955 707.094 327.043 c 1
 732.917 434.689 732.917 434.689 821.688 502.385 c 1
 887.583 554.5 887.583 554.5 990 554.5 c 0
 1100.96 554.5 1100.96 554.5 1180.23 453.499 c 0
 1254.5 358.878 1254.5 358.878 1254.5 233.5 c 0
 1254.5 108.104 1254.5 108.104 1179.7 12.9627 c 0
 1099.94 -88.5 1099.94 -88.5 976 -88.5 c 0
 889.897 -88.5 889.897 -88.5 824.461 -38.5425 c 0
 759.025 11.415 759.025 11.415 720.245 101.127 c 0
 712.339 119.437 712.339 119.437 707.065 140.064 c 1
 689.254 70.903 689.254 70.903 643.703 12.9627 c 0
 563.937 -88.5 563.937 -88.5 438.5 -88.5 c 0
 312.675 -88.5 312.675 -88.5 233.914 13.9554 c 0
 160.5 109.453 160.5 109.453 160.5 233 c 0
505.386 120.722 m 0
 536.5 168.17 536.5 168.17 536.5 213 c 0
 536.5 300.27 536.5 300.27 504.474 350.654 c 0
 490.917 371.983 490.917 371.983 476.448 380.241 c 0
 461.98 388.5 461.98 388.5 440 388.5 c 0
 417.903 388.5 417.903 388.5 402.85 380.019 c 0
 387.796 371.539 387.796 371.539 373.514 349.863 c 0
 340.5 299.759 340.5 299.759 340.5 233.5 c 0
 340.5 167.242 340.5 167.242 373.514 117.137 c 0
 387.796 95.4614 387.796 95.4614 402.851 86.9807 c 0
 417.906 78.5 417.906 78.5 440 78.5 c 0
 461.096 78.5 461.096 78.5 475.952 87.6367 c 0
 490.808 96.7733 490.808 96.7733 505.386 120.722 c 0
252 830.5 m 0
 273.226 830.5 273.226 830.5 288.52 839.315 c 0
 303.815 848.13 303.815 848.13 319.025 870.696 c 0
 349.5 917.586 349.5 917.586 349.5 984 c 0
 349.5 1051.7 349.5 1051.7 317.041 1100.78 c 0
 303.081 1121.89 303.081 1121.89 288.169 1130.19 c 0
 273.257 1138.5 273.257 1138.5 251 1138.5 c 0
 229.281 1138.5 229.281 1138.5 214.688 1130.01 c 0
 200.094 1121.53 200.094 1121.53 186.177 1099.39 c 0
 153.5 1047.42 153.5 1047.42 153.5 982.5 c 0
 153.5 918.355 153.5 918.355 186.4 868.809 c 0
 200.706 847.266 200.706 847.266 215.572 838.883 c 0
 230.438 830.5 230.438 830.5 252 830.5 c 0
910.129 117.463 m 0
 924.914 95.3653 924.914 95.3653 939.94 86.9326 c 0
 954.966 78.5 954.966 78.5 977 78.5 c 0
 998.88 78.5 998.88 78.5 1013.33 86.8094 c 0
 1027.77 95.1188 1027.77 95.1188 1041.37 116.676 c 0
 1073.5 167.625 1073.5 167.625 1073.5 233.5 c 0
 1073.5 299.041 1073.5 299.041 1040.7 349.794 c 0
 1026.63 371.583 1026.63 371.583 1011.79 380.041 c 0
 996.956 388.5 996.956 388.5 975 388.5 c 0
 953.483 388.5 953.483 388.5 938.93 379.909 c 0
 924.377 371.317 924.377 371.317 910.382 348.722 c 0
 877.5 295.633 877.5 295.633 877.5 231.5 c 0
 877.5 168.363 877.5 168.363 910.129 117.463 c 0
EndSplineSet
EndChar

StartChar: guilsinglleft
Encoding: 8249 8249 367
Width: 1228
Flags: W
LayerCount: 2
Fore
SplineSet
545.93 465.819 m 1
 957.55 110.195 l 1
 822.05 -37.2607 l 1
 767.016 10.2064 l 2
 687.041 79.1827 687.041 79.1827 582.556 169.171 c 0
 478.062 259.17 478.062 259.17 420.569 308.661 c 0
 363.133 358.104 363.133 358.104 303.428 408.855 c 2
 237.001 465.316 l 1
 820.213 973.113 l 1
 964.483 825.144 l 1
 545.93 465.819 l 1
EndSplineSet
EndChar

StartChar: guilsinglright
Encoding: 8250 8250 368
Width: 1228
Flags: W
LayerCount: 2
Fore
SplineSet
275.25 821.638 m 1
 408.034 977.184 l 1
 997.451 466.019 l 1
 932.157 409.356 l 2
 757.79 258.036 757.79 258.036 465.551 9.83523 c 2
 405.87 -40.8523 l 1
 357.799 20.9545 l 2
 352.359 27.9477 352.359 27.9477 329.055 54.0488 c 2
 278.342 110.847 l 1
 688.62 466.159 l 1
 515.111 616.992 515.111 616.992 332.32 772.945 c 2
 275.25 821.638 l 1
EndSplineSet
EndChar

StartChar: exclamdbl
Encoding: 8252 8252 369
Width: 1228
Flags: W
LayerCount: 2
Fore
SplineSet
717.156 -61.0503 m 1
 657 -6.05114 657 -6.05114 657 71.5 c 0
 657 149.079 657 149.079 715.93 202.886 c 0
 771.91 254 771.91 254 855.5 254 c 0
 939.118 254 939.118 254 995.608 202.352 c 0
 1055 148.051 1055 148.051 1055 71 c 0
 1055 16.6002 1055 16.6002 1028.38 -23.1104 c 0
 1017.14 -39.8824 1017.14 -39.8824 1001.97 -52.8077 c 0
 934.118 -112 934.118 -112 855 -112 c 0
 776.065 -112 776.065 -112 717.156 -61.0503 c 1
758.526 326 m 1
 714.3 1244 l 1
 998.803 1244 l 1
 953.381 326 l 1
 758.526 326 l 1
237.156 -61.0503 m 1
 177 -6.05002 177 -6.05002 177 71.5 c 0
 177 149.08 177 149.08 235.93 202.886 c 0
 291.911 254 291.911 254 375.5 254 c 0
 459.118 254 459.118 254 515.608 202.352 c 0
 575 148.051 575 148.051 575 71 c 0
 575 16.5999 575 16.5999 548.384 -23.1104 c 0
 537.143 -39.8823 537.143 -39.8823 521.97 -52.8077 c 0
 454.118 -112 454.118 -112 375 -112 c 0
 296.066 -112 296.066 -112 237.156 -61.0503 c 1
278.526 326 m 1
 234.3 1244 l 1
 518.803 1244 l 1
 473.381 326 l 1
 278.526 326 l 1
EndSplineSet
EndChar

StartChar: overline
Encoding: 8254 8254 370
Width: 1228
Flags: W
LayerCount: 2
Fore
SplineSet
1210 1456 m 1
 20 1456 l 1
 20 1663 l 1
 1210 1663 l 1
 1210 1456 l 1
EndSplineSet
EndChar

StartChar: fraction
Encoding: 8260 8260 371
Width: 1228
Flags: W
LayerCount: 2
Fore
SplineSet
12.7918 -43.5114 m 1
 1008.17 1336.87 l 2
 1015.31 1346.79 1015.31 1346.79 1029.93 1367.05 c 0
 1044.55 1387.32 1044.55 1387.32 1051.93 1397.56 c 1
 1061.98 1390.34 1061.98 1390.34 1082.25 1375.8 c 0
 1102.51 1361.26 1102.51 1361.26 1112.72 1353.94 c 2
 1219.85 1277.08 l 1
 172.277 -173.325 l 1
 12.7918 -43.5114 l 1
EndSplineSet
EndChar

StartChar: zerosuperior
Encoding: 8304 8304 372
Width: 1228
Flags: W
LayerCount: 2
Fore
SplineSet
488.5 883 m 0
 488.5 583.5 488.5 583.5 614.5 583.5 c 0
 740.5 583.5 740.5 583.5 740.5 882 c 0
 740.5 1180.5 740.5 1180.5 614 1180.5 c 0
 586.759 1180.5 586.759 1180.5 563.842 1162.64 c 0
 537.34 1141.99 537.34 1141.99 524.07 1109.87 c 0
 488.5 1025.39 488.5 1025.39 488.5 883 c 0
829.96 557.838 m 1
 792.793 499.252 792.793 499.252 737.056 468.376 c 0
 681.319 437.5 681.319 437.5 613 437.5 c 0
 544.539 437.5 544.539 437.5 488.519 469.511 c 0
 432.499 501.522 432.499 501.522 396.012 560.893 c 0
 328.5 670.749 328.5 670.749 328.5 879.5 c 0
 328.5 1087.61 328.5 1087.61 394.387 1200.07 c 0
 430.306 1261.37 430.306 1261.37 487.081 1294.44 c 0
 543.856 1327.5 543.856 1327.5 614 1327.5 c 0
 684.144 1327.5 684.144 1327.5 740.919 1294.44 c 0
 797.694 1261.37 797.694 1261.37 833.613 1200.07 c 0
 899.5 1087.61 899.5 1087.61 899.5 881 c 0
 899.5 674.118 899.5 674.118 829.96 557.838 c 1
EndSplineSet
EndChar

StartChar: foursuperior
Encoding: 8308 8308 373
Width: 1228
Flags: W
LayerCount: 2
Fore
SplineSet
602.5 785.5 m 1
 602.5 987.649 l 1
 484.951 785.5 l 1
 602.5 785.5 l 1
289.5 747.739 m 1
 630.213 1323.5 l 1
 753.5 1323.5 l 1
 753.5 785.5 l 1
 868.5 785.5 l 1
 868.5 634.5 l 1
 753.5 634.5 l 1
 753.5 597.5 l 1
 868.5 597.5 l 1
 868.5 450.5 l 1
 434.5 450.5 l 1
 434.5 597.5 l 1
 602.5 597.5 l 1
 602.5 634.5 l 1
 289.5 634.5 l 1
 289.5 747.739 l 1
EndSplineSet
EndChar

StartChar: fivesuperior
Encoding: 8309 8309 374
Width: 1228
Flags: W
LayerCount: 2
Fore
SplineSet
428.785 812.82 m 1
 345.5 854.463 l 1
 345.5 1310.5 l 1
 857.5 1310.5 l 1
 857.5 1160.5 l 1
 493.5 1160.5 l 1
 493.5 1012.96 l 1
 558.363 1032.5 558.363 1032.5 600 1032.5 c 0
 739.521 1032.5 739.521 1032.5 818.146 945.569 c 0
 894.5 861.149 894.5 861.149 894.5 733.5 c 0
 894.5 603.188 894.5 603.188 806.446 520.164 c 0
 719.834 438.5 719.834 438.5 586 438.5 c 0
 508.669 438.5 508.669 438.5 343.817 493.451 c 2
 284.084 513.362 l 1
 345.938 654.744 l 1
 398.051 633.104 l 2
 505.471 588.5 505.471 588.5 587.5 588.5 c 0
 657.936 588.5 657.936 588.5 698.263 627.06 c 0
 737.5 664.577 737.5 664.577 737.5 732 c 0
 737.5 800.478 737.5 800.478 697.486 841.2 c 0
 657.886 881.5 657.886 881.5 592.5 881.5 c 0
 521.908 881.5 521.908 881.5 457.129 833.724 c 2
 428.785 812.82 l 1
EndSplineSet
EndChar

StartChar: sixsuperior
Encoding: 8310 8310 375
Width: 1228
Flags: W
LayerCount: 2
Fore
SplineSet
496.009 807.99 m 0
 480.886 790.346 480.886 790.346 468.325 763.019 c 1
 476.84 666.417 476.84 666.417 528.816 619.423 c 0
 566.534 584.5 566.534 584.5 613 584.5 c 0
 660.879 584.5 660.879 584.5 693.794 620.049 c 0
 729.5 658.557 729.5 658.557 729.5 723 c 0
 729.5 784.959 729.5 784.959 693.976 827.011 c 0
 660.126 867.5 660.126 867.5 602.5 867.5 c 0
 545.106 867.5 545.106 867.5 496.009 807.99 c 0
348.91 619.777 m 1
 310.5 716.739 310.5 716.739 310.5 832 c 0
 310.5 1036.62 310.5 1036.62 410.77 1175.2 c 1
 447.808 1224.18 447.808 1224.18 504.548 1262.97 c 0
 562.66 1302.69 562.66 1302.69 623.189 1316.28 c 1
 716.697 1334.55 716.697 1334.55 787.86 1332.5 c 1
 892.5 1332.5 l 1
 892.5 1175.13 l 1
 828.981 1181.82 l 2
 812.99 1183.5 812.99 1183.5 807 1183.5 c 2
 780.69 1183.5 l 1
 656.403 1184.85 656.403 1184.85 586.129 1136.19 c 0
 515.855 1087.53 515.855 1087.53 485.416 982.828 c 1
 547.426 1017.5 547.426 1017.5 608 1017.5 c 0
 675.574 1017.5 675.574 1017.5 726.715 991.93 c 0
 775.661 967.457 775.661 967.457 811.737 925.332 c 0
 884.5 840.82 884.5 840.82 884.5 723 c 0
 884.5 606.746 884.5 606.746 808.63 523.413 c 0
 728.61 434.5 728.61 434.5 613 434.5 c 0
 499.052 434.5 499.052 434.5 414.751 521.937 c 0
 378.466 558.881 378.466 558.881 348.91 619.777 c 1
EndSplineSet
EndChar

StartChar: sevensuperior
Encoding: 8311 8311 376
Width: 1228
Flags: W
LayerCount: 2
Fore
SplineSet
660.903 450.5 m 1
 493.275 450.5 l 1
 746.275 1155.5 l 1
 486.5 1155.5 l 1
 486.5 1039.5 l 1
 333.5 1039.5 l 1
 333.5 1305.5 l 1
 919.5 1305.5 l 1
 919.5 1195.3 l 1
 660.903 450.5 l 1
EndSplineSet
EndChar

StartChar: eightsuperior
Encoding: 8312 8312 377
Width: 1228
Flags: W
LayerCount: 2
Fore
SplineSet
614 817.5 m 0
 544.899 817.5 544.899 817.5 512.06 780.394 c 0
 476.5 740.213 476.5 740.213 476.5 710.5 c 0
 476.5 672.153 476.5 672.153 484.782 654.998 c 0
 493.842 636.229 493.842 636.229 514.757 617.479 c 0
 554.578 580.5 554.578 580.5 614 580.5 c 0
 673.725 580.5 673.725 580.5 713.765 616.995 c 0
 751.5 651.39 751.5 651.39 751.5 696 c 0
 751.5 742.337 751.5 742.337 714.154 780.029 c 0
 677.028 817.5 677.028 817.5 614 817.5 c 0
517.997 1146.98 m 0
 490.5 1114.12 490.5 1114.12 490.5 1087 c 0
 490.5 1051.66 490.5 1051.66 497.679 1036.16 c 0
 506.121 1017.92 506.121 1017.92 525.433 997.869 c 0
 559.466 962.5 559.466 962.5 611 962.5 c 0
 664.492 962.5 664.492 962.5 701.354 996.58 c 0
 737.5 1028.78 737.5 1028.78 737.5 1077.5 c 0
 737.5 1124.78 737.5 1124.78 703.045 1153.03 c 0
 663.446 1185.5 663.446 1185.5 624.5 1185.5 c 0
 578.046 1185.5 578.046 1185.5 555.309 1174.63 c 0
 531.932 1163.45 531.932 1163.45 517.997 1146.98 c 0
408.21 901.988 m 1
 390.537 923.54 l 2
 336.5 989.437 336.5 989.437 336.5 1083.5 c 0
 336.5 1182.35 336.5 1182.35 418.722 1257.46 c 0
 498.69 1330.5 498.69 1330.5 614 1330.5 c 0
 729.179 1330.5 729.179 1330.5 809.612 1257.61 c 0
 892.5 1182.49 892.5 1182.49 892.5 1076 c 0
 892.5 971.295 892.5 971.295 807.412 894.277 c 1
 846.235 864.363 846.235 864.363 867.507 826.882 c 0
 906.5 758.178 906.5 758.178 906.5 702 c 0
 906.5 606.359 906.5 606.359 835.268 525.13 c 0
 756.124 434.5 756.124 434.5 614 434.5 c 0
 520.924 434.5 520.924 434.5 450.403 478.09 c 0
 379.882 521.679 379.882 521.679 341.88 603.714 c 0
 321.5 647.191 321.5 647.191 321.5 705.5 c 0
 321.5 767.977 321.5 767.977 363.725 833.237 c 2
 408.21 901.988 l 1
EndSplineSet
EndChar

StartChar: ninesuperior
Encoding: 8313 8313 378
Width: 1228
Flags: W
LayerCount: 2
Fore
SplineSet
684.99 959.009 m 0
 700.113 976.652 700.113 976.652 712.678 1003.99 c 1
 704.194 1100.82 704.194 1100.82 653.229 1147.54 c 0
 614.774 1182.5 614.774 1182.5 568 1182.5 c 0
 520.123 1182.5 520.123 1182.5 487.108 1146.84 c 0
 451.5 1108.44 451.5 1108.44 451.5 1044 c 0
 451.5 982.147 451.5 982.147 487.023 938.991 c 1
 520.941 899.5 520.941 899.5 578.5 899.5 c 0
 635.897 899.5 635.897 899.5 684.99 959.009 c 0
832.187 1148.26 m 1
 870.5 1050.78 870.5 1050.78 870.5 935 c 0
 870.5 730.39 870.5 730.39 770.229 591.802 c 1
 733.208 542.837 733.208 542.837 676.452 504.033 c 0
 618.353 464.311 618.353 464.311 558.123 450.79 c 1
 464.832 431.489 464.832 431.489 392.711 434.5 c 1
 288.5 434.5 l 1
 288.5 591.87 l 1
 352.019 585.184 l 2
 368.02 583.5 368.02 583.5 374 583.5 c 2
 400.311 583.5 l 1
 524.237 582.154 524.237 582.154 594.33 630.395 c 0
 664.424 678.636 664.424 678.636 695.197 782.849 c 1
 633.042 749.5 633.042 749.5 573 749.5 c 0
 505.428 749.5 505.428 749.5 454.285 775.07 c 0
 405.175 799.625 405.175 799.625 369.51 840.384 c 0
 296.5 925.767 296.5 925.767 296.5 1044 c 0
 296.5 1160.27 296.5 1160.27 373.365 1244.58 c 0
 452.37 1332.5 452.37 1332.5 568 1332.5 c 0
 682.07 1332.5 682.07 1332.5 767.145 1246.17 c 0
 802.897 1209.18 802.897 1209.18 832.187 1148.26 c 1
EndSplineSet
EndChar

StartChar: plussuperior
Encoding: 8314 8314 379
Width: 1228
Flags: W
LayerCount: 2
Fore
SplineSet
991.5 803.5 m 1
 701.5 803.5 l 1
 701.5 541.5 l 1
 528.5 541.5 l 1
 528.5 803.5 l 1
 238.5 803.5 l 1
 238.5 961.5 l 1
 528.5 961.5 l 1
 528.5 1223.5 l 1
 701.5 1223.5 l 1
 701.5 961.5 l 1
 991.5 961.5 l 1
 991.5 803.5 l 1
EndSplineSet
EndChar

StartChar: minussuperior
Encoding: 8315 8315 380
Width: 1228
Flags: W
LayerCount: 2
Fore
SplineSet
991.5 805.5 m 1
 238.5 805.5 l 1
 238.5 963.5 l 1
 991.5 963.5 l 1
 991.5 805.5 l 1
EndSplineSet
EndChar

StartChar: parenleftsuperior
Encoding: 8317 8317 381
Width: 1228
Flags: W
LayerCount: 2
Fore
SplineSet
890.639 1340.96 m 2
 748 1098.57 748 1098.57 748 914 c 0
 748 749.414 748 749.414 855.591 555.37 c 2
 857.299 552.29 l 1
 858.712 549.061 l 2
 864.263 536.373 864.263 536.373 891.502 487.53 c 2
 953.702 376 l 1
 732.037 376 l 1
 709.636 407.879 l 2
 625.809 527.172 625.809 527.172 576.388 665.223 c 0
 526 805.975 526 805.975 526 911.5 c 0
 526 1016.16 526 1016.16 561.849 1123.72 c 0
 617.28 1290.02 617.28 1290.02 709.534 1421.98 c 2
 731.925 1454 l 1
 957.157 1454 l 1
 890.639 1340.96 l 2
EndSplineSet
EndChar

StartChar: parenrightsuperior
Encoding: 8318 8318 382
Width: 1228
Flags: W
LayerCount: 2
Fore
SplineSet
516.466 1421.98 m 2
 608.72 1290.02 608.72 1290.02 664.151 1123.72 c 0
 700 1016.16 700 1016.16 700 911.5 c 0
 700 805.975 700 805.975 649.612 665.223 c 0
 600.191 527.172 600.191 527.172 516.364 407.879 c 2
 493.963 376 l 1
 272.298 376 l 1
 334.498 487.53 l 2
 361.737 536.373 361.737 536.373 367.288 549.061 c 2
 368.7 552.289 l 1
 370.409 555.37 l 2
 478 749.414 478 749.414 478 914 c 0
 478 1098.58 478 1098.58 335.361 1340.96 c 2
 268.843 1454 l 1
 494.075 1454 l 1
 516.466 1421.98 l 2
EndSplineSet
EndChar

StartChar: nsuperior
Encoding: 8319 8319 383
Width: 1228
Flags: W
LayerCount: 2
Fore
SplineSet
1076 465 m 1
 623 465 l 1
 623 665 l 1
 751 665 l 1
 751 931 l 2
 751 991.68 751 991.68 726.572 1020.76 c 0
 707.051 1044 707.051 1044 670 1044 c 0
 596.165 1044 596.165 1044 476 957.47 c 1
 476 665 l 1
 602 665 l 1
 602 465 l 1
 150 465 l 1
 150 665 l 1
 272 665 l 1
 272 1026 l 1
 150 1026 l 1
 150 1227 l 1
 476 1227 l 1
 476 1188.05 l 1
 550.078 1225.89 550.078 1225.89 622.94 1236.25 c 0
 770.662 1257.25 770.662 1257.25 872.811 1163.17 c 2
 876.332 1159.92 l 1
 879.411 1156.26 l 2
 955 1066.33 955 1066.33 955 937 c 2
 955 665 l 1
 1076 665 l 1
 1076 465 l 1
EndSplineSet
EndChar

StartChar: franc
Encoding: 8355 8355 384
Width: 1228
Flags: W
LayerCount: 2
Fore
SplineSet
1177.83 1228 m 1
 1189.97 815.205 l 2
 1190.34 802.331 1190.34 802.331 1191.1 776.597 c 0
 1191.86 750.862 1191.86 750.862 1192.24 738 c 1
 998.68 738 l 1
 971.68 1027 l 1
 459 1027 l 1
 459 713 l 1
 899 713 l 1
 899 512 l 1
 459 512 l 1
 459 465 l 1
 988 465 l 1
 988 248 l 1
 459 248 l 1
 459 126 l 1
 740 126 l 1
 740 -75 l 1
 75 -75 l 1
 75 126 l 1
 251 126 l 1
 251 248 l 1
 -31 248 l 1
 -31 465 l 1
 251 465 l 1
 251 1027 l 1
 75 1027 l 1
 75 1228 l 1
 1177.83 1228 l 1
EndSplineSet
EndChar

StartChar: Euro
Encoding: 8364 8364 385
Width: 1228
Flags: W
LayerCount: 2
Fore
SplineSet
685.185 96 m 1
 903.167 96 903.167 96 1126.08 287.845 c 2
 1180.16 334.394 l 1
 1321.76 185.537 l 1
 1263.88 133.993 l 2
 1126.71 11.8353 1126.71 11.8353 991.477 -45.9646 c 2
 977.356 -52 l 1
 976.19 -52 l 1
 830.842 -111.93 830.842 -111.93 699.61 -112.998 c 0
 558.074 -114.149 558.074 -114.149 464.102 -65.6466 c 0
 372.474 -18.3542 372.474 -18.3542 309.352 60.251 c 0
 221.435 171.357 221.435 171.357 179.968 347 c 1
 -6 347 l 1
 -6 554 l 1
 150.887 554 l 1
 149.52 576.5 149.52 576.5 150.06 589.998 c 0
 150.728 606.697 150.728 606.697 153.986 670 c 1
 -6 670 l 1
 -6 877 l 1
 183.088 877 l 1
 254.224 1127.95 254.224 1127.95 460.642 1231.17 c 0
 552.218 1276.36 552.218 1276.36 678.275 1280.95 c 2
 680.541 1281.03 l 1
 682.807 1280.98 l 2
 861.418 1276.68 861.418 1276.68 973.229 1189.67 c 1
 974.685 1197.09 974.685 1197.09 975.964 1204.99 c 2
 986.166 1268 l 1
 1156 1268 l 1
 1156 1076 l 2
 1156 985.749 1156 985.749 1175.39 834.537 c 2
 1184.74 761.588 l 1
 1111.99 750.81 l 2
 1088.27 747.296 1088.27 747.296 1066.5 742.071 c 2
 991.768 724.135 l 1
 975.665 799.285 l 2
 951.846 910.435 951.846 910.435 914.9 966.935 c 1
 879.031 1018.01 879.031 1018.01 823.412 1044.29 c 0
 767.792 1070.57 767.792 1070.57 683.953 1072.97 c 1
 546.518 1069.2 546.518 1069.2 466.561 984.541 c 0
 426.528 942.004 426.528 942.004 398.88 877 c 1
 789 877 l 1
 789 670 l 1
 356.241 670 l 1
 353.023 605.688 353.023 605.688 354.354 554 c 1
 789 554 l 1
 789 347 l 1
 388.511 347 l 1
 442.686 179.663 442.686 179.663 560.875 119.914 c 0
 611.169 94.3908 611.169 94.3908 685.185 96 c 1
EndSplineSet
EndChar

StartChar: oneeighth
Encoding: 8539 8539 387
Width: 1228
Flags: W
LayerCount: 2
Fore
SplineSet
29.8619 1238.64 m 2
 121.68 1278.99 121.68 1278.99 224.107 1321.17 c 2
 234.625 1325.5 l 1
 325.5 1325.5 l 1
 325.5 599.5 l 1
 488.5 599.5 l 1
 488.5 477.222 l 1
 826.129 942.857 826.129 942.857 1098.52 1316.85 c 2
 1131.34 1361.91 l 1
 1248.3 1282.16 l 1
 1242.67 1274.39 1242.67 1274.39 1231.08 1258.41 c 0
 1219.49 1242.44 1219.49 1242.44 1213.55 1234.24 c 2
 134.947 -252.841 l 1
 24.4832 -163.418 l 1
 56.4183 -119.29 l 2
 274.398 181.92 274.398 181.92 470.575 452.5 c 1
 9.5 452.5 l 1
 9.5 599.5 l 1
 177.5 599.5 l 1
 177.5 1143.14 l 1
 37.4724 1085.48 l 1
 13.5704 1133.29 l 2
 2.74262 1154.94 2.74262 1154.94 -1.54929 1167.82 c 2
 -18.1256 1217.55 l 1
 29.8619 1238.64 l 2
774.21 234.988 m 1
 756.537 256.54 l 2
 702.5 322.437 702.5 322.437 702.5 416.5 c 0
 702.5 515.357 702.5 515.357 784.722 590.456 c 0
 864.694 663.5 864.694 663.5 980 663.5 c 0
 1095.18 663.5 1095.18 663.5 1175.61 590.607 c 0
 1258.5 515.489 1258.5 515.489 1258.5 409 c 0
 1258.5 303.742 1258.5 303.742 1172.29 226.268 c 1
 1211.54 196.043 1211.54 196.043 1233.17 158.973 c 0
 1272.5 91.5492 1272.5 91.5492 1272.5 34 c 0
 1272.5 -60.6376 1272.5 -60.6376 1201.27 -141.866 c 0
 1122.13 -232.5 1122.13 -232.5 980 -232.5 c 0
 886.89 -232.5 886.89 -232.5 816.465 -189.276 c 0
 746.04 -146.052 746.04 -146.052 707.773 -64.0557 c 0
 687.5 -19.4567 687.5 -19.4567 687.5 38.5 c 0
 687.5 100.983 687.5 100.983 729.725 166.237 c 2
 774.21 234.988 l 1
883.776 480.701 m 1
 856.5 446.851 856.5 446.851 856.5 420 c 0
 856.5 384.665 856.5 384.665 863.679 369.157 c 0
 872.12 350.924 872.12 350.924 891.433 330.869 c 0
 925.466 295.5 925.466 295.5 977 295.5 c 0
 1030.49 295.5 1030.49 295.5 1067.36 329.582 c 0
 1103.5 361.78 1103.5 361.78 1103.5 410.5 c 0
 1103.5 457.785 1103.5 457.785 1069.05 486.033 c 0
 1029.44 518.5 1029.44 518.5 990.5 518.5 c 0
 944.043 518.5 944.043 518.5 921.309 507.627 c 0
 898.037 496.498 898.037 496.498 883.776 480.701 c 1
980 150.5 m 0
 910.898 150.5 910.898 150.5 878.06 113.394 c 0
 842.5 73.211 842.5 73.211 842.5 43.5 c 0
 842.5 5.15281 842.5 5.15281 850.782 -12.0019 c 0
 859.843 -30.7711 859.843 -30.7711 880.757 -49.5218 c 0
 920.579 -86.5 920.579 -86.5 980 -86.5 c 0
 1039.73 -86.5 1039.73 -86.5 1079.77 -50.0045 c 0
 1117.5 -15.6073 1117.5 -15.6073 1117.5 29 c 0
 1117.5 75.3387 1117.5 75.3387 1080.15 113.029 c 0
 1043.03 150.5 1043.03 150.5 980 150.5 c 0
EndSplineSet
EndChar

